STARTFONT 2.1
FONT -monodromy-Random16x32-Medium-R-Normal--32-320-72-72-C-160-ISO10646-1
SIZE 32 72 72
FONTBOUNDINGBOX 16 32 0 -8
STARTPROPERTIES 23
FOUNDRY "monodromy"
FAMILY_NAME "Random16x32"
WEIGHT_NAME "Medium"
SLANT "R"
SETWIDTH_NAME "Normal"
ADD_STYLE_NAME ""
PIXEL_SIZE 32
POINT_SIZE 320
RESOLUTION_X 72
RESOLUTION_Y 72
SPACING "C"
AVERAGE_WIDTH 160
CHARSET_REGISTRY "ISO10646"
CHARSET_ENCODING "1"
COPYRIGHT "Copyright (c) 2025 TSAstron"
NOTICE "Licences under CC BY-NC-SA 4.0"
FONT_VERSION "17.1"
FONT_ASCENT 24
FONT_DESCENT 8
CAP_HEIGHT 24
X_HEIGHT 12
MIN_SPACE 16
DEFAULT_CHAR 65533
ENDPROPERTIES
CHARS 515
STARTCHAR U+0000
ENCODING 0
SWIDTH 500 0
DWIDTH 16 0
BBX 16 32 0 -8
BITMAP
0000
0000
0000
0000
0000
0000
0000
0000
0000
0000
0000
0000
0000
0000
0000
0000
0000
0000
0000
0000
0000
0000
0000
0000
0000
0000
0000
0000
0000
0000
0000
0000
ENDCHAR
STARTCHAR U+0020
ENCODING 32
SWIDTH 500 0
DWIDTH 16 0
BBX 16 32 0 -8
BITMAP
0000
0000
0000
0000
0000
0000
0000
0000
0000
0000
0000
0000
0000
0000
0000
0000
0000
0000
0000
0000
0000
0000
0000
0000
0000
0000
0000
0000
0000
0000
0000
0000
ENDCHAR
STARTCHAR U+0021
ENCODING 33
SWIDTH 500 0
DWIDTH 16 0
BBX 16 32 0 -8
BITMAP
A405
117B
5115
58D3
CC65
D23C
89AD
508B
D481
3730
DF2F
F955
2D93
C40B
9282
3A67
8528
AA49
31ED
2A08
D9BB
5EF8
40C8
2CB7
2BEC
DDE7
80DE
DADD
9321
3558
4D60
A0C5
ENDCHAR
STARTCHAR U+0022
ENCODING 34
SWIDTH 500 0
DWIDTH 16 0
BBX 16 32 0 -8
BITMAP
27E0
615F
26A5
AE81
74FF
F515
F90C
E0E1
72C1
FCF6
CD57
9193
D984
5440
CCF2
2682
9274
3F3B
3C67
D7D1
66FD
CAD4
0722
C2C8
2BE3
960B
CD36
BB7E
0AEF
1520
1D7D
86D2
ENDCHAR
STARTCHAR U+0023
ENCODING 35
SWIDTH 500 0
DWIDTH 16 0
BBX 16 32 0 -8
BITMAP
B896
F44E
001D
FED6
B833
2DBF
E48D
77DD
E4F0
4D76
9F2E
0423
2584
8D46
E391
1D5E
B3F0
25B2
FB74
28D5
AB5A
FFB5
B3DD
420D
74F8
9E38
C8F6
CD80
6110
7DE1
1267
CEAF
ENDCHAR
STARTCHAR U+0024
ENCODING 36
SWIDTH 500 0
DWIDTH 16 0
BBX 16 32 0 -8
BITMAP
3115
AF19
16E4
C45A
B935
E271
9FEB
F343
8D9F
BC42
FF58
27D0
A2DA
CFE4
FBBA
DF66
F4A8
C6C4
D486
0742
9AA4
B2F4
8ACE
AD84
094D
AEDA
C9D8
460D
536E
A88B
BF05
74F9
ENDCHAR
STARTCHAR U+0025
ENCODING 37
SWIDTH 500 0
DWIDTH 16 0
BBX 16 32 0 -8
BITMAP
7147
EBBF
AE5D
236F
6001
44C9
1D35
C0C8
D66D
B078
A7A6
C006
4D60
B0C7
EF84
2853
F4E3
5B28
2516
BE05
49CD
71E2
CC70
CD7D
B91D
5963
DD3C
DAEC
8FDB
7E99
5C64
A08A
ENDCHAR
STARTCHAR U+0026
ENCODING 38
SWIDTH 500 0
DWIDTH 16 0
BBX 16 32 0 -8
BITMAP
18CD
783B
5BF3
EDBA
A700
7762
EE1B
F30B
0590
4BCC
7B41
F6E9
D7A0
94B8
E81C
4396
7759
FA69
E346
CF5F
1F06
605E
A5C0
E46A
382D
CEC8
F793
363E
5A2F
0C0C
FD8A
BFEE
ENDCHAR
STARTCHAR U+0027
ENCODING 39
SWIDTH 500 0
DWIDTH 16 0
BBX 16 32 0 -8
BITMAP
2ACE
A78C
565B
900D
502F
694A
5BA9
D93E
ED74
85EF
3534
21F2
92A5
7725
B9B4
2981
542C
DCEC
3655
B447
A64D
3BB9
FCBC
6283
BF4A
1B29
58F7
CC74
54E3
77E4
C3F8
C92C
ENDCHAR
STARTCHAR U+0028
ENCODING 40
SWIDTH 500 0
DWIDTH 16 0
BBX 16 32 0 -8
BITMAP
CB05
AB23
7199
A963
54F9
6BB8
2651
D3B4
301B
8C4D
5B49
F337
42F4
ACC8
7625
BC8F
37C0
D89F
0273
58D3
EB7F
BAFE
642F
E77B
65F7
5BE1
6FB2
630B
E5FC
967A
2C40
EE37
ENDCHAR
STARTCHAR U+0029
ENCODING 41
SWIDTH 500 0
DWIDTH 16 0
BBX 16 32 0 -8
BITMAP
EE39
AA82
C115
E254
6167
DBD4
9D86
00ED
FBAE
BCAD
1112
49C7
3F24
D5F1
82CB
527F
0A32
1557
B36F
FEDE
6BB3
0C98
14E3
6A92
7325
D4A9
DCC3
F6DA
2E83
F878
B156
C561
ENDCHAR
STARTCHAR U+002A
ENCODING 42
SWIDTH 500 0
DWIDTH 16 0
BBX 16 32 0 -8
BITMAP
758A
AB10
AA38
24C3
EEEE
4E26
F9B4
7277
704C
7CF3
9AD5
27AB
283E
FF83
1F58
5530
FDBA
75D1
39C6
E3C0
23B5
287E
69C7
6AC4
9E3E
40C7
B7C7
DB88
D6D9
B75F
C640
F9E9
ENDCHAR
STARTCHAR U+002B
ENCODING 43
SWIDTH 500 0
DWIDTH 16 0
BBX 16 32 0 -8
BITMAP
652F
8951
B633
0C71
0450
C850
DF11
BA3F
52E9
4418
21D9
4F8F
0426
A4F0
BFA5
F51F
4BA4
B9A6
CA6D
C1FC
A35B
43B9
39C8
B6C4
C348
C6D8
EB57
69A5
D795
6452
2CEB
CFDA
ENDCHAR
STARTCHAR U+002C
ENCODING 44
SWIDTH 500 0
DWIDTH 16 0
BBX 16 32 0 -8
BITMAP
F4E7
5C1A
D9AC
0BFE
A8DC
F9EF
7AF6
DADD
2D14
C08A
AEF9
FCCA
BC9D
26A7
7C7C
7992
AB85
04D5
660A
DD71
CF12
A551
11BD
23D4
5B80
2A55
BC6D
719F
9719
D6AD
3321
123F
ENDCHAR
STARTCHAR U+002D
ENCODING 45
SWIDTH 500 0
DWIDTH 16 0
BBX 16 32 0 -8
BITMAP
490B
C21F
9780
1993
7662
EF2F
7143
653E
12AD
A212
D14E
3BE8
1878
4C29
32B4
E932
79B6
F472
D9AA
2F5F
7B5C
3873
34E1
DD94
AC97
6DC0
E82D
6543
FBA8
9373
07C2
467C
ENDCHAR
STARTCHAR U+002E
ENCODING 46
SWIDTH 500 0
DWIDTH 16 0
BBX 16 32 0 -8
BITMAP
D629
F1ED
8C62
51C4
4899
CA90
0D2E
15AD
4DB7
9302
1EE6
9CA9
1315
C3B7
7FC2
B059
D56B
F2B2
77AA
7F5C
ED2E
0451
4083
23BA
EFCA
9B27
DFE7
EF3D
9B4B
1DA9
3706
1246
ENDCHAR
STARTCHAR U+002F
ENCODING 47
SWIDTH 500 0
DWIDTH 16 0
BBX 16 32 0 -8
BITMAP
D12B
58D4
9865
FD3E
E295
7011
C5BA
327E
E3E7
144F
9806
643A
0A62
1037
9142
FEC5
F28C
C2D7
5482
5621
A0C3
6E3A
66F4
0B4A
2EED
A077
1414
97ED
A536
EECC
940B
C56C
ENDCHAR
STARTCHAR U+0030
ENCODING 48
SWIDTH 500 0
DWIDTH 16 0
BBX 16 32 0 -8
BITMAP
92C5
4AC5
94A4
C33C
DF76
54BA
CB40
6923
BC9C
4E52
8AD7
22C9
4A01
AD5B
0684
27D8
340B
25D2
576D
43DB
585D
38EB
09F2
B285
946C
B120
FA91
0EAC
4CCB
CEB5
1226
3F5E
ENDCHAR
STARTCHAR U+0031
ENCODING 49
SWIDTH 500 0
DWIDTH 16 0
BBX 16 32 0 -8
BITMAP
1D8D
ADF3
6083
4E9F
507C
5382
1F94
5575
998D
5A4C
0143
2244
DDAB
62F5
061E
0B2E
AA1C
43C9
CF63
0DE1
BF1F
E186
9383
EA19
17A4
D73E
5C6A
6FE8
B4E7
6D0F
4224
2D9B
ENDCHAR
STARTCHAR U+0032
ENCODING 50
SWIDTH 500 0
DWIDTH 16 0
BBX 16 32 0 -8
BITMAP
61DA
59FA
5235
ECC3
058F
2EF4
24EC
BD03
6A58
8D56
D374
A17A
C85D
479C
B6EE
2A66
E02C
A20C
3E74
1467
3A18
4CDD
8D05
AE16
B312
ECCA
317B
18A5
7C79
3A41
85F1
1608
ENDCHAR
STARTCHAR U+0033
ENCODING 51
SWIDTH 500 0
DWIDTH 16 0
BBX 16 32 0 -8
BITMAP
60EF
9DDD
2ACD
6E73
6A3C
0A21
3BA9
1104
AD26
8D6B
55ED
CC5E
AF6A
9D3C
1309
9C99
E85F
A6C7
E91B
A660
50DA
D627
AA2C
B3B3
6352
B7E4
4964
A21A
795C
025B
13F8
233C
ENDCHAR
STARTCHAR U+0034
ENCODING 52
SWIDTH 500 0
DWIDTH 16 0
BBX 16 32 0 -8
BITMAP
5586
7348
D858
DD04
A6D2
4C12
75B2
5216
FEBD
E504
971E
93AC
1990
5EAA
0365
D238
9403
E2A1
0DC4
636D
DC9E
1285
3A7F
B887
4837
77FE
0FCD
A59B
E5A6
83BC
C748
15BC
ENDCHAR
STARTCHAR U+0035
ENCODING 53
SWIDTH 500 0
DWIDTH 16 0
BBX 16 32 0 -8
BITMAP
EF01
2E43
D6B2
0316
DB66
B9E2
E070
9DCD
08C4
3D30
454D
4CDA
330E
9A72
CB1D
7207
9435
F0AB
349F
A664
1D44
299E
48D8
6251
D2D0
CE1C
A133
B1F0
F6F1
CB20
8967
33F5
ENDCHAR
STARTCHAR U+0036
ENCODING 54
SWIDTH 500 0
DWIDTH 16 0
BBX 16 32 0 -8
BITMAP
8A63
491A
B274
E0F3
62E3
BF07
378C
9685
5CE0
A280
6D63
8ED4
743D
5C51
3DE8
F143
C37A
ED78
B15B
5D1B
0CCE
956F
C4D4
DE0E
E275
060E
6B02
0F5A
F6D2
7A53
CB67
43FE
ENDCHAR
STARTCHAR U+0037
ENCODING 55
SWIDTH 500 0
DWIDTH 16 0
BBX 16 32 0 -8
BITMAP
98B4
86ED
C59D
8037
87A6
82BF
7CE0
661A
AA2F
87B4
2D6F
AE6E
635B
5BB8
ACDF
3ECA
00B9
EA36
6747
A524
5F4B
53CF
ABC7
D30A
465E
C188
D931
11E2
22C2
6D29
1822
8E9E
ENDCHAR
STARTCHAR U+0038
ENCODING 56
SWIDTH 500 0
DWIDTH 16 0
BBX 16 32 0 -8
BITMAP
598C
9EA4
2D1A
8ED5
6A5F
E4DC
05A6
28FF
C928
B032
8004
648E
3B88
6F6F
3A7A
7BA1
A929
C43A
7C0D
4F48
EBCC
FEA3
A7D8
2D20
AAEA
EE83
C921
D86F
F0A5
36F5
E0FC
7F9C
ENDCHAR
STARTCHAR U+0039
ENCODING 57
SWIDTH 500 0
DWIDTH 16 0
BBX 16 32 0 -8
BITMAP
B7D1
4D34
60DA
DCAC
DD1B
DEBC
D5FE
1DD6
3F38
BC16
4873
5E85
57C0
EFA3
E97E
4233
C385
2FA8
3B9E
18DE
58F1
3A0C
1981
A299
CD53
4EDB
69A9
82F8
1E28
D9AF
021D
8B19
ENDCHAR
STARTCHAR U+003A
ENCODING 58
SWIDTH 500 0
DWIDTH 16 0
BBX 16 32 0 -8
BITMAP
DAC5
B7D3
B4EA
3889
E24E
357B
C6ED
DFAC
C798
6B06
4953
D897
9B68
7DAE
CF4D
09CA
CAE8
F1EF
A021
6E42
591D
3F3F
1680
A649
0D76
F3BC
9272
B2C9
AC0C
91FD
ABF7
F2EC
ENDCHAR
STARTCHAR U+003B
ENCODING 59
SWIDTH 500 0
DWIDTH 16 0
BBX 16 32 0 -8
BITMAP
9284
E6DE
E503
D0BC
70C5
DE51
1326
6892
2363
4798
E427
F3D1
5176
A986
5B3F
B39F
2A03
F3F7
3A90
923F
3396
F9D5
69D7
7D97
C6DB
6C01
F08C
C504
C795
3D97
F2B0
0DDF
ENDCHAR
STARTCHAR U+003C
ENCODING 60
SWIDTH 500 0
DWIDTH 16 0
BBX 16 32 0 -8
BITMAP
8FC1
8C37
23FE
D318
66D7
6C66
CEA8
FC1C
936D
D088
15AE
B18F
2594
384E
B495
4AAF
47AE
6E5F
8D9A
558B
C1B3
29FC
11FF
6FE7
EDBC
E76C
2E6A
E437
CAE3
5AA9
C070
9CF5
ENDCHAR
STARTCHAR U+003D
ENCODING 61
SWIDTH 500 0
DWIDTH 16 0
BBX 16 32 0 -8
BITMAP
57B6
96F1
D438
0439
0B2D
CDC9
97B0
26BF
0A84
6ABF
4219
5124
C171
A6E4
A80F
CAD6
0E3C
E467
184E
E960
250E
58AF
CC48
6534
1BF7
A74E
E523
4067
0F36
9F50
4387
C9B5
ENDCHAR
STARTCHAR U+003E
ENCODING 62
SWIDTH 500 0
DWIDTH 16 0
BBX 16 32 0 -8
BITMAP
BB53
C776
AD2A
31E7
A3F8
53D9
342A
13B7
90DD
DB8C
6161
07DD
EB6C
CE6C
E15F
6B10
9517
17B3
4510
545E
8C7C
536E
1C8B
E85C
894E
6F5B
7BE8
1A12
9E48
91BE
2156
401C
ENDCHAR
STARTCHAR U+003F
ENCODING 63
SWIDTH 500 0
DWIDTH 16 0
BBX 16 32 0 -8
BITMAP
7E68
8586
D49F
B45A
A439
954F
39C8
9B99
D2E7
CF5B
91C5
DDBC
006D
B2F5
4429
83B5
C031
9F38
41E5
17A8
3696
82DC
7F6A
B116
BCFB
FB7E
B44C
AC8D
6F8B
A4CC
67EB
DED5
ENDCHAR
STARTCHAR U+0040
ENCODING 64
SWIDTH 500 0
DWIDTH 16 0
BBX 16 32 0 -8
BITMAP
6E22
8F36
3340
645F
6408
810C
3EAA
C4AE
288E
0F34
E033
BE00
287F
ECBE
2A04
66B7
9FD9
52B4
9011
52D9
36C0
54DD
D59E
F530
73F3
B326
A613
8421
6866
61EC
3772
24E4
ENDCHAR
STARTCHAR U+0041
ENCODING 65
SWIDTH 500 0
DWIDTH 16 0
BBX 16 32 0 -8
BITMAP
186C
DF68
0368
FCA1
4C98
749C
6592
1256
9745
0460
8F8F
D74C
DB57
80D3
83CF
344B
B0D9
2E24
1454
467F
A67B
DFFA
1208
D65C
FAC8
64D6
EF4D
46BC
F3BF
2275
D847
2DC2
ENDCHAR
STARTCHAR U+0042
ENCODING 66
SWIDTH 500 0
DWIDTH 16 0
BBX 16 32 0 -8
BITMAP
1508
E8AA
68A9
A5B8
1853
09B4
36FD
8DC0
3E29
198C
568B
10F9
FE76
916F
748F
AACF
A0B5
E04D
C798
3661
F299
D929
EABE
161B
55D0
8A2E
CA87
6664
46EA
73F0
0EDE
D6E6
ENDCHAR
STARTCHAR U+0043
ENCODING 67
SWIDTH 500 0
DWIDTH 16 0
BBX 16 32 0 -8
BITMAP
D932
72CD
5662
554E
563E
83CB
AE10
AC7F
5099
6BF8
86FC
7EC5
CFF1
6018
8803
8D2B
32E9
6B21
9E4D
5D39
0895
6D50
A99A
76B0
0849
5256
DC18
B310
5614
62E2
624C
3958
ENDCHAR
STARTCHAR U+0044
ENCODING 68
SWIDTH 500 0
DWIDTH 16 0
BBX 16 32 0 -8
BITMAP
D701
D778
1CD3
1CE6
44F4
B103
DB47
87FB
0FD4
55BD
088D
5C34
E0B8
016B
5755
A2CD
186C
4B44
0D97
9742
B605
881A
8212
D891
08B2
8E98
D712
B605
1F5F
FE35
6971
3ED5
ENDCHAR
STARTCHAR U+0045
ENCODING 69
SWIDTH 500 0
DWIDTH 16 0
BBX 16 32 0 -8
BITMAP
3D00
040A
1394
3D10
689A
323C
57D4
B296
0594
3868
47D4
67CF
1B47
8004
3A43
3D88
9EBC
B09A
72EF
AEC0
9526
05B4
6A70
41C9
648C
2EB9
9B19
5994
294F
CE64
8E73
A3F4
ENDCHAR
STARTCHAR U+0046
ENCODING 70
SWIDTH 500 0
DWIDTH 16 0
BBX 16 32 0 -8
BITMAP
9B52
CFAB
6D94
63C8
04BC
12B1
216C
2655
7DDC
2025
9D3A
0BC5
764C
77BF
1650
3E4B
C9E9
9D78
9473
7742
DE12
4F70
7006
EB22
8116
B902
E6DA
A9EB
986A
92AB
633F
1B1C
ENDCHAR
STARTCHAR U+0047
ENCODING 71
SWIDTH 500 0
DWIDTH 16 0
BBX 16 32 0 -8
BITMAP
2A2F
566F
DA87
5CA0
A656
309F
82CD
113A
4BE3
43E5
5DEC
09C3
187D
8F8A
DBCE
7F9A
C557
921F
30F3
B6B7
3B06
98FF
FC06
D62A
CA87
29E2
7326
35B0
AD27
CCF8
DBC8
146B
ENDCHAR
STARTCHAR U+0048
ENCODING 72
SWIDTH 500 0
DWIDTH 16 0
BBX 16 32 0 -8
BITMAP
F0E5
ED94
3CFF
7783
BC7E
78F7
20C0
2957
5CEF
95D0
EC12
54F0
B74A
483D
8485
5E73
3B84
C223
EB25
B087
D8BE
85D8
8AFD
8F94
9EF8
344D
8A3A
79F7
8E74
EC83
965C
6FD1
ENDCHAR
STARTCHAR U+0049
ENCODING 73
SWIDTH 500 0
DWIDTH 16 0
BBX 16 32 0 -8
BITMAP
1A39
67A8
E929
6F62
A0FF
0BC1
FA3D
A942
C497
875F
70BF
ABE0
498C
65FC
D397
4DA3
7B93
E239
EEB8
0FF6
CAE8
FFD9
BB4B
84C6
3AC8
8C8D
2755
168E
CE0D
58B8
9CCC
5B85
ENDCHAR
STARTCHAR U+004A
ENCODING 74
SWIDTH 500 0
DWIDTH 16 0
BBX 16 32 0 -8
BITMAP
CDFF
1C82
F0B9
2B25
ACE6
0279
0A37
7068
4509
4213
FC85
D41E
C8F8
A191
B7FF
4B32
1088
59D0
EEDF
3068
F20D
3656
ADF8
E821
C489
6359
3F1E
29D1
BBBF
1DA2
21BE
B121
ENDCHAR
STARTCHAR U+004B
ENCODING 75
SWIDTH 500 0
DWIDTH 16 0
BBX 16 32 0 -8
BITMAP
0D37
31C0
F427
AA39
3B25
A9FB
57D1
2ADD
914D
809B
B14A
15D3
D96D
C229
F008
E4C9
3D6F
A201
AFCD
291B
E5D4
7F11
87B7
FC86
73CD
DFAF
A1BC
AA16
F47F
1EA1
B39F
61E9
ENDCHAR
STARTCHAR U+004C
ENCODING 76
SWIDTH 500 0
DWIDTH 16 0
BBX 16 32 0 -8
BITMAP
2298
F699
5FAA
1230
6351
5AA5
7811
AE23
EDFA
AC21
08EC
401C
CA1A
E15E
9AA7
A9BD
4117
26B6
4584
E75C
4A1A
71F4
F17B
C134
F3A1
89CF
5B6D
A195
E126
72EC
C850
7324
ENDCHAR
STARTCHAR U+004D
ENCODING 77
SWIDTH 500 0
DWIDTH 16 0
BBX 16 32 0 -8
BITMAP
D2D5
D45F
30B7
5311
0843
4400
2783
34A9
44DD
D9E7
85A6
4FE7
55DA
E184
8B52
FC97
C01C
0754
4A0F
6AE7
5F42
1665
DA8D
7B85
7228
E902
4EA1
4512
395B
B3FE
236C
7577
ENDCHAR
STARTCHAR U+004E
ENCODING 78
SWIDTH 500 0
DWIDTH 16 0
BBX 16 32 0 -8
BITMAP
C147
9656
02C0
205D
8FDF
BFA7
A236
9EBC
8A55
A31C
FAC7
E773
51CF
9BDE
D57F
FF5A
7AAB
FEF1
48BE
F8F4
5F65
6452
17BA
1233
31E1
D8F3
DB6D
70F8
D4BB
B1C4
E503
2026
ENDCHAR
STARTCHAR U+004F
ENCODING 79
SWIDTH 500 0
DWIDTH 16 0
BBX 16 32 0 -8
BITMAP
A83C
9DC5
E789
989B
2473
FC5F
5411
A0A2
A0AB
341A
0707
8976
DFE2
E040
3DF9
6981
7C48
9AF1
5C13
63CE
93B4
7B38
FBAE
B5E2
3F6E
ACAA
6750
A679
662D
B359
24AD
6196
ENDCHAR
STARTCHAR U+0050
ENCODING 80
SWIDTH 500 0
DWIDTH 16 0
BBX 16 32 0 -8
BITMAP
276E
D5C0
9F65
D9CA
7C05
0723
A969
7809
9653
014A
411B
0E8D
50A0
DB21
7C3B
E26E
7E84
E92A
5D4A
6456
BD2C
91BA
8C60
EF68
7CC9
AB71
E3BD
C3C0
5E4E
FC27
FF21
00E1
ENDCHAR
STARTCHAR U+0051
ENCODING 81
SWIDTH 500 0
DWIDTH 16 0
BBX 16 32 0 -8
BITMAP
5F0A
B69F
BBB8
43BB
9EB9
48DC
0416
48C4
423A
EF81
81E5
0357
C61C
D144
6FF4
1812
C70E
8C40
8A74
D32C
B4DF
5DF3
8EA3
85A7
6063
B791
B399
3E8D
1AD6
C25D
4B34
55FE
ENDCHAR
STARTCHAR U+0052
ENCODING 82
SWIDTH 500 0
DWIDTH 16 0
BBX 16 32 0 -8
BITMAP
B94D
CA3B
B023
60E1
AB5E
973B
D3B5
0911
424A
B64D
027B
EB62
73BC
F150
9449
FF86
8087
17F5
161E
4CCD
76AB
2F3A
C830
7456
B0B8
7E1A
CA84
82EE
538E
2518
BF67
1389
ENDCHAR
STARTCHAR U+0053
ENCODING 83
SWIDTH 500 0
DWIDTH 16 0
BBX 16 32 0 -8
BITMAP
20A2
C40C
6CF7
BA85
B0F7
7AF9
FD09
DF88
683A
8050
E29B
FE88
4F38
17DE
C848
6598
4AD3
8689
FF84
9B08
E283
3138
2255
000D
5323
5ED2
7E78
189B
97C1
76CA
7B74
3A67
ENDCHAR
STARTCHAR U+0054
ENCODING 84
SWIDTH 500 0
DWIDTH 16 0
BBX 16 32 0 -8
BITMAP
5F64
5E9D
5BDC
E8AA
E339
C889
EE67
5DD7
A11E
D08D
DE6E
300E
2BB6
3D02
CB8D
FDE4
5B5F
83BA
091D
35E1
A7BC
DB6F
FB33
EE6E
CD37
CC65
87D6
0FBB
5705
02E6
B796
51F7
ENDCHAR
STARTCHAR U+0055
ENCODING 85
SWIDTH 500 0
DWIDTH 16 0
BBX 16 32 0 -8
BITMAP
3F9C
B8F9
75FF
7188
A885
E53B
8B8A
D048
4871
36A6
587F
3986
0EE0
EEE4
AC63
05F7
255E
B398
140E
BC28
FF56
3AA0
B2C7
898D
9F37
11AA
4E3A
5D45
75A4
325E
FD3B
6E3E
ENDCHAR
STARTCHAR U+0056
ENCODING 86
SWIDTH 500 0
DWIDTH 16 0
BBX 16 32 0 -8
BITMAP
1E3E
325E
BDBA
F5AE
EA8F
DADC
EBF8
1FDD
2CD5
6696
5D57
7CFD
9AA8
7BE3
EB3E
9788
AE94
F2B9
ADE3
8851
0F43
14CD
DE22
DD40
2950
D418
944E
1105
4BC2
0622
BB42
E21E
ENDCHAR
STARTCHAR U+0057
ENCODING 87
SWIDTH 500 0
DWIDTH 16 0
BBX 16 32 0 -8
BITMAP
F176
E0AE
E757
BF0F
EBAC
1D70
68EF
CD65
FF66
6CE2
F762
AB34
255E
F5A2
C8FA
E2A3
A672
47DE
EAA4
AD4B
7135
470F
921E
3643
1441
C852
4AE7
5FD5
2F05
550D
1636
396F
ENDCHAR
STARTCHAR U+0058
ENCODING 88
SWIDTH 500 0
DWIDTH 16 0
BBX 16 32 0 -8
BITMAP
53A1
6BC7
A656
6A53
B0B6
FE8B
8619
DA42
4D52
76B5
26A8
91A6
9CD5
9208
9936
737A
5593
8D0A
8A68
D652
1CE0
ABFC
1B31
9BBD
F5BD
F5C8
7A4E
6030
86A4
E95E
36A5
36A0
ENDCHAR
STARTCHAR U+0059
ENCODING 89
SWIDTH 500 0
DWIDTH 16 0
BBX 16 32 0 -8
BITMAP
E00F
03B9
34E3
6586
D28A
DC8E
853D
84F2
667C
6DB6
DC76
CD70
CF47
BE14
5BCF
2EF7
EC26
A490
CDF0
C0B8
BF02
6FF6
8156
69B5
5481
F490
EFB4
8C37
B860
E33A
5E9B
753A
ENDCHAR
STARTCHAR U+005A
ENCODING 90
SWIDTH 500 0
DWIDTH 16 0
BBX 16 32 0 -8
BITMAP
133E
024E
45E2
A960
9621
209D
D03F
FBE3
41BF
B43C
DA34
FC49
A3EE
E851
0C53
1F59
036F
23D8
9422
7D60
E9F8
7EE0
27E1
E742
B1CA
EA0E
A7DE
0D59
6D83
817A
B50E
8DCC
ENDCHAR
STARTCHAR U+005B
ENCODING 91
SWIDTH 500 0
DWIDTH 16 0
BBX 16 32 0 -8
BITMAP
0E25
3F24
AF37
D923
73DA
7FAF
AFA2
5B72
5665
F7E0
ECA0
C3F6
3EB2
5FA7
6F1D
B11C
5AD2
D12E
C3DB
6970
6DA7
37DF
191C
922D
22A9
B35D
76DA
E483
5C9E
A6BA
62BE
00A8
ENDCHAR
STARTCHAR U+005C
ENCODING 92
SWIDTH 500 0
DWIDTH 16 0
BBX 16 32 0 -8
BITMAP
E9E5
3C6C
3E08
1287
E746
E1B7
FF3F
2DD1
159B
DD4C
C1E6
A55E
DA5C
B8EA
D10E
7EE8
1395
9461
7423
1C9E
2338
D539
A95B
67C8
AE2E
9090
D8CD
00FA
124A
273E
E10D
41A6
ENDCHAR
STARTCHAR U+005D
ENCODING 93
SWIDTH 500 0
DWIDTH 16 0
BBX 16 32 0 -8
BITMAP
6000
E4DF
FEB7
E989
F3C3
4653
B65C
BD66
FC8E
7F36
6314
E315
694D
5D78
1977
5C4D
1751
D950
DCAE
31D3
D3D6
D00F
C6FB
7991
7CFF
A1C6
7B72
A9E8
375D
5A11
1DD8
705E
ENDCHAR
STARTCHAR U+005E
ENCODING 94
SWIDTH 500 0
DWIDTH 16 0
BBX 16 32 0 -8
BITMAP
BC73
3044
B42E
EF42
19F3
8B80
B718
492A
BB14
B967
347B
675B
AFF6
D4B5
6861
5A06
D04C
E081
CCFD
7536
1800
C8A3
69B3
887D
5E2A
08EA
076E
85E7
0EE5
F19E
109A
4A7A
ENDCHAR
STARTCHAR U+005F
ENCODING 95
SWIDTH 500 0
DWIDTH 16 0
BBX 16 32 0 -8
BITMAP
C93D
42F8
49B4
E61F
FA8F
61CD
743E
355A
F5F1
FA25
2AFA
E3F6
8418
86E3
76B8
9536
5E9B
9353
9C7E
0164
3543
DA54
4F32
57FA
1274
A0CE
9FA2
810B
413D
E3C3
98A4
B1B9
ENDCHAR
STARTCHAR U+0060
ENCODING 96
SWIDTH 500 0
DWIDTH 16 0
BBX 16 32 0 -8
BITMAP
5C42
F238
57A6
F09F
F0A4
8911
9415
0459
8319
ABE3
622C
7E31
A765
7609
5FDB
2579
4B79
B9EA
5843
5173
8C7D
D4C5
144F
0F2B
FBF9
D02E
F759
C31C
1B2C
4029
6706
6258
ENDCHAR
STARTCHAR U+0061
ENCODING 97
SWIDTH 500 0
DWIDTH 16 0
BBX 16 32 0 -8
BITMAP
5061
5A35
53D3
507B
8D16
C7DA
E508
4BEB
F258
5D12
3D30
016F
B99D
3F57
0966
07EE
4FD0
D86D
2A78
B44D
82D3
EBB8
F72D
BE65
5025
E890
105D
8C74
CDFD
FD69
574D
22D4
ENDCHAR
STARTCHAR U+0062
ENCODING 98
SWIDTH 500 0
DWIDTH 16 0
BBX 16 32 0 -8
BITMAP
1142
C348
4F9D
6734
94A6
0DF0
98E0
706B
EBF4
6C8F
E6FE
80AD
9848
4381
46B2
D3F7
17BB
4D29
8D0D
BFF7
A21D
FB21
A7C6
7B3A
E33F
A0A2
0CD6
BE36
7FCF
B59B
98B5
06B7
ENDCHAR
STARTCHAR U+0063
ENCODING 99
SWIDTH 500 0
DWIDTH 16 0
BBX 16 32 0 -8
BITMAP
41D3
228D
3F50
A516
EBE0
2DE2
7025
271F
B74F
80BF
2194
241D
7EE7
0A14
7EE9
EE68
E5D3
8F0A
3EB3
414A
683C
EC06
B991
718B
1E12
C63B
6818
6627
D7B1
A1FE
D111
08D5
ENDCHAR
STARTCHAR U+0064
ENCODING 100
SWIDTH 500 0
DWIDTH 16 0
BBX 16 32 0 -8
BITMAP
5237
5CB9
6FC0
4B28
890A
24FA
9603
2562
7B9C
3102
E0A3
DFF7
725C
BB09
64DD
563E
8AC0
7F67
17D6
EC2F
02CD
6537
CC48
0EE9
B850
D009
23AA
6AC4
2653
B3F0
544E
06E7
ENDCHAR
STARTCHAR U+0065
ENCODING 101
SWIDTH 500 0
DWIDTH 16 0
BBX 16 32 0 -8
BITMAP
36AE
2697
D7E8
07CE
3770
2C92
01E7
C766
9CC9
E250
15E2
1C46
1482
689E
0403
F712
A988
BDBE
2F6E
4D72
C5DB
346D
BEFC
CD9E
8FAC
C856
9E09
94FF
0C97
15C6
3580
235B
ENDCHAR
STARTCHAR U+0066
ENCODING 102
SWIDTH 500 0
DWIDTH 16 0
BBX 16 32 0 -8
BITMAP
124A
CA97
0A16
2A90
89A6
39FE
35C5
F28D
717D
1D86
D307
5D13
857C
758D
F6E9
D732
1EF1
BEA9
D646
6459
7B94
73A3
A7CC
F3F9
4BB6
04D0
2753
1F9C
F7FE
21C8
09DE
9200
ENDCHAR
STARTCHAR U+0067
ENCODING 103
SWIDTH 500 0
DWIDTH 16 0
BBX 16 32 0 -8
BITMAP
401D
B184
76E8
258B
239D
52E8
F2C2
782A
334B
363A
EBC4
9E73
71AF
01FE
FD10
0843
75D6
FD77
4077
32E3
DF27
D140
4396
EF99
8122
5FF7
FFF1
ECF1
B73D
9394
F894
6B1D
ENDCHAR
STARTCHAR U+0068
ENCODING 104
SWIDTH 500 0
DWIDTH 16 0
BBX 16 32 0 -8
BITMAP
3FAA
AAD7
56A9
CDF4
6E10
12A9
6047
8630
A9F9
6A56
17C1
4472
0C5E
2434
32FF
2880
9EBE
B287
D0C0
8C0C
0B39
6BBF
6B4C
EEE6
3A86
833E
3163
94BF
2F83
7AC4
61C8
D332
ENDCHAR
STARTCHAR U+0069
ENCODING 105
SWIDTH 500 0
DWIDTH 16 0
BBX 16 32 0 -8
BITMAP
0965
9BF8
1502
4568
D0D4
D9F5
21C6
0C7E
339C
A312
B97F
CEC5
E863
3065
661F
3D04
1E2F
FB84
DF2D
73E8
9F80
DBA7
E2E0
12E5
750B
16D3
D84C
AEB2
480B
9AB4
6887
68BF
ENDCHAR
STARTCHAR U+006A
ENCODING 106
SWIDTH 500 0
DWIDTH 16 0
BBX 16 32 0 -8
BITMAP
016F
2FD3
7255
39C1
49CD
E4F8
B7FC
2F19
69F8
15FA
801F
AF27
CFEB
0A79
A06C
983B
5B74
33EA
6AA7
EC08
DC82
5F02
5230
3014
5CAF
643A
1839
EF44
D860
6FE4
824F
968A
ENDCHAR
STARTCHAR U+006B
ENCODING 107
SWIDTH 500 0
DWIDTH 16 0
BBX 16 32 0 -8
BITMAP
0A5F
C2F4
C3C1
2671
FFAC
395D
4F40
5636
586A
F105
98CA
7AFF
9648
1C63
61F5
A593
D00D
9C30
1458
C42F
5D6B
E672
828E
812E
7E10
42C9
4FCF
8BB2
EACF
A39B
7570
4B7E
ENDCHAR
STARTCHAR U+006C
ENCODING 108
SWIDTH 500 0
DWIDTH 16 0
BBX 16 32 0 -8
BITMAP
18BF
1E93
DE0F
D8DA
21FA
1970
79B5
7FDC
D5E0
6B05
F499
1475
09AF
E412
9304
2EAD
EFAB
8508
7693
4FF1
C911
F1DE
A720
BBD4
1ADD
A4DB
3888
688F
2411
40A2
2AF0
8C4F
ENDCHAR
STARTCHAR U+006D
ENCODING 109
SWIDTH 500 0
DWIDTH 16 0
BBX 16 32 0 -8
BITMAP
94A1
6C45
3E4F
5379
3BF1
64F1
374F
1648
E7D4
5713
7F96
CE71
D5D5
0963
D335
2518
2A51
AEC4
3E6F
405B
DEED
91D6
3948
E607
5806
C60C
3B5E
F205
777F
0621
02C6
78A3
ENDCHAR
STARTCHAR U+006E
ENCODING 110
SWIDTH 500 0
DWIDTH 16 0
BBX 16 32 0 -8
BITMAP
E8FE
5FA0
C314
8B65
A199
450C
076A
691D
4479
A8A4
D4B3
865A
222F
1E9C
CF37
A031
0D2E
B428
A4EA
7BC0
2D7E
111F
7CAD
8347
CE9B
F553
88BA
41E4
23BA
DEC9
CD4E
A34C
ENDCHAR
STARTCHAR U+006F
ENCODING 111
SWIDTH 500 0
DWIDTH 16 0
BBX 16 32 0 -8
BITMAP
7D2F
5976
8564
612C
5007
69E2
C8E0
9BB9
41B6
1670
6F76
0681
C615
5C8C
BC23
74E7
45FA
5990
3D46
6F39
1859
C4EE
BF45
D889
B843
43B7
0BA2
0BD9
D270
3F34
A376
3865
ENDCHAR
STARTCHAR U+0070
ENCODING 112
SWIDTH 500 0
DWIDTH 16 0
BBX 16 32 0 -8
BITMAP
1E85
BCD1
1FAD
29D2
6C5D
6646
6A73
5D47
F5D8
105B
8D1F
DCDB
344A
F0CB
C868
C378
DFE4
D6D5
F8C9
2BF5
6E73
F903
12F9
3846
A1AA
90FD
B4D5
C3BE
DF2B
CA10
B114
6C1A
ENDCHAR
STARTCHAR U+0071
ENCODING 113
SWIDTH 500 0
DWIDTH 16 0
BBX 16 32 0 -8
BITMAP
7432
EBDE
6232
825C
D31F
A987
1F8E
36DE
ED64
AFC2
9251
459A
1C03
4A22
45CB
5A40
F4E5
5E67
1918
B668
E698
CCC8
3D88
6F4E
A7B6
AD5E
906C
49C4
4402
7089
9A5E
0444
ENDCHAR
STARTCHAR U+0072
ENCODING 114
SWIDTH 500 0
DWIDTH 16 0
BBX 16 32 0 -8
BITMAP
6408
4E5B
7950
FCC0
858E
DA7F
EB7F
FC6D
B55F
5E44
A54D
4126
E1BD
A362
5E0E
3478
B0AA
BDEC
E059
DEC8
0077
C0BB
7670
1DA7
8B46
4940
19B2
90EC
FD6E
5919
B796
304C
ENDCHAR
STARTCHAR U+0073
ENCODING 115
SWIDTH 500 0
DWIDTH 16 0
BBX 16 32 0 -8
BITMAP
9014
2C7B
41B7
31B8
2078
26F9
E18D
2F56
B0F7
C658
5C3D
17ED
E307
0369
E058
DC35
FE6B
B9AC
BA90
FBB4
6142
981C
BD55
5C81
F8A8
5710
E7C8
07A9
36E9
D6D7
A92D
2E2B
ENDCHAR
STARTCHAR U+0074
ENCODING 116
SWIDTH 500 0
DWIDTH 16 0
BBX 16 32 0 -8
BITMAP
B265
7671
6AB0
FBD7
CB25
E73D
B336
8620
4EED
A580
2588
BDBB
B5C3
7EB8
5C4E
E2A7
D328
69C1
35EC
15FF
747E
5414
C83B
1AD2
83A8
4DD5
ED5C
90A7
6874
FE91
9CF2
2B8F
ENDCHAR
STARTCHAR U+0075
ENCODING 117
SWIDTH 500 0
DWIDTH 16 0
BBX 16 32 0 -8
BITMAP
CA6B
9E15
3AF9
306A
4D9E
7534
8804
C676
F510
C1F8
E38C
4DA6
7C76
82AA
11CA
A22F
269D
BF7B
C5CB
CF37
24B4
F23D
9EFE
9F76
6B37
DD47
2A99
BA2B
C94A
9218
78B7
37E8
ENDCHAR
STARTCHAR U+0076
ENCODING 118
SWIDTH 500 0
DWIDTH 16 0
BBX 16 32 0 -8
BITMAP
0E41
5182
B06A
FCF3
D45E
AD92
A3CE
66FC
8AA1
B396
DD9E
EF8A
7F7A
83D1
C1FA
088A
F8E3
A7AB
F5A9
4EC3
D7AC
CFE6
27D7
CAE1
0F82
5DD5
D752
9361
AE3F
80F2
715D
382F
ENDCHAR
STARTCHAR U+0077
ENCODING 119
SWIDTH 500 0
DWIDTH 16 0
BBX 16 32 0 -8
BITMAP
126B
07C5
FE2B
A376
C86A
AE34
B947
477E
ED5B
C694
B1FE
08F7
C657
D431
C462
DA25
A10E
B515
402D
235E
9F36
BBB4
3370
6C4F
BD88
3E4B
6DAC
3BB0
5713
652D
F19C
283A
ENDCHAR
STARTCHAR U+0078
ENCODING 120
SWIDTH 500 0
DWIDTH 16 0
BBX 16 32 0 -8
BITMAP
FB0E
2C8C
F93A
9D6B
5606
8ABC
F50A
5D18
D451
0D51
6477
5B4D
1928
BFF9
F787
36A2
1853
3E32
0F11
CEFF
DBEC
C503
E2D9
2BEA
7A53
19E6
4459
F77F
D502
270D
8386
9A87
ENDCHAR
STARTCHAR U+0079
ENCODING 121
SWIDTH 500 0
DWIDTH 16 0
BBX 16 32 0 -8
BITMAP
6C75
0F88
33FE
00DA
012B
3828
33BF
D0C2
E4FC
6B9E
C7C2
2D45
D520
8862
7DAE
D647
6FA9
5120
0FDF
3292
59E4
267C
DD83
F15A
FED2
FFD1
CFA7
EBD0
A71C
712C
87C9
EF08
ENDCHAR
STARTCHAR U+007A
ENCODING 122
SWIDTH 500 0
DWIDTH 16 0
BBX 16 32 0 -8
BITMAP
4835
E3FD
D0C9
3E9F
0AA2
EF27
F7BA
45B6
DAC7
CDD7
308D
3B7B
1A3A
27EA
F1B6
7BB0
BB44
5F55
4EAD
009D
5C9E
6CB6
304A
A306
7D02
9B5B
4D56
C763
6E65
9B49
B2F6
AC57
ENDCHAR
STARTCHAR U+007B
ENCODING 123
SWIDTH 500 0
DWIDTH 16 0
BBX 16 32 0 -8
BITMAP
0D7D
51C7
44D1
32EA
EB16
19E7
6A04
A0C1
8B55
04A3
9843
D58B
E725
2435
04DB
F193
6B49
5D5C
1011
E063
B721
95DE
66B2
4619
61B3
8559
489A
3B2E
317B
23A4
0D35
ECE9
ENDCHAR
STARTCHAR U+007C
ENCODING 124
SWIDTH 500 0
DWIDTH 16 0
BBX 16 32 0 -8
BITMAP
2C0A
9991
2A6C
6331
EF96
9B12
A4B3
920A
64E9
F814
D1CB
ED21
789B
FA76
9B02
5EEC
EA59
6BD7
3533
F8DE
5DB9
2809
1577
A141
D5B6
BFB9
8629
027F
845B
EB80
A0D9
91C9
ENDCHAR
STARTCHAR U+007D
ENCODING 125
SWIDTH 500 0
DWIDTH 16 0
BBX 16 32 0 -8
BITMAP
CE04
287E
188B
C24B
7E64
F2BE
5044
3583
02AD
DDC3
E655
810B
3B0E
CEB0
2B78
0490
69AE
E732
B97B
48E2
C431
53DF
A543
C5FB
1DF1
4593
0983
421A
DE47
3CD2
DB58
21E9
ENDCHAR
STARTCHAR U+007E
ENCODING 126
SWIDTH 500 0
DWIDTH 16 0
BBX 16 32 0 -8
BITMAP
5EC7
42E8
DDC2
8D22
4132
5BEF
F588
331D
520C
8F97
6EA9
72F5
349D
64B7
5C63
C350
3AF6
BFCC
B865
1017
A671
2063
CC8D
A489
2D05
8ADD
5117
ADD1
4979
096F
AACB
9DD9
ENDCHAR
STARTCHAR U+007F
ENCODING 127
SWIDTH 500 0
DWIDTH 16 0
BBX 16 32 0 -8
BITMAP
0000
0000
0000
0000
0000
0000
0000
0000
0000
0000
0000
0000
0000
0000
0000
0000
0000
0000
0000
0000
0000
0000
0000
0000
0000
0000
0000
0000
0000
0000
0000
0000
ENDCHAR
STARTCHAR U+00A0
ENCODING 160
SWIDTH 500 0
DWIDTH 16 0
BBX 16 32 0 -8
BITMAP
0000
0000
0000
0000
0000
0000
0000
0000
0000
0000
0000
0000
0000
0000
0000
0000
0000
0000
0000
0000
0000
0000
0000
0000
0000
0000
0000
0000
0000
0000
0000
0000
ENDCHAR
STARTCHAR U+2500
ENCODING 9472
SWIDTH 500 0
DWIDTH 16 0
BBX 16 32 0 -8
BITMAP
2C86
08A7
12C6
7C3B
8B68
26F2
3B57
775C
222B
C0A3
5CF8
AEB2
E927
3DBA
4DCD
34E7
22AD
2C37
F86D
7D55
649B
55D8
6DB2
E912
BB4F
851D
DFEA
96D7
36A5
30B0
A15E
25A3
ENDCHAR
STARTCHAR U+2501
ENCODING 9473
SWIDTH 500 0
DWIDTH 16 0
BBX 16 32 0 -8
BITMAP
0EE2
142F
F03E
B0CD
8590
A460
C5B0
1218
9B88
8B8E
90BF
4B3F
78C9
6DEE
0AF5
B3DA
B9FE
4F82
BD31
C2AB
6E82
8C8B
A2B0
0F69
B9BD
140A
71CE
3A96
589C
6577
4446
1D0E
ENDCHAR
STARTCHAR U+2502
ENCODING 9474
SWIDTH 500 0
DWIDTH 16 0
BBX 16 32 0 -8
BITMAP
6345
55A2
DE43
7DBE
56FA
617A
71FE
EC06
34F9
B421
42A0
2852
50D7
4015
494C
80A0
E676
7AC1
47EC
13EE
0CE1
8FC2
368F
87A6
96FD
A8E6
E6EC
6DD1
9C02
3BA2
EC95
DD0C
ENDCHAR
STARTCHAR U+2503
ENCODING 9475
SWIDTH 500 0
DWIDTH 16 0
BBX 16 32 0 -8
BITMAP
D1E7
572A
D57F
402B
78DB
9ADD
44ED
3C00
1112
6138
82BC
1CAA
F468
264F
63FB
DF7B
1CE1
CB19
EE19
2E64
DBC6
D16A
508E
6776
17F7
98C3
3A13
480E
B06B
535F
C568
D218
ENDCHAR
STARTCHAR U+2504
ENCODING 9476
SWIDTH 500 0
DWIDTH 16 0
BBX 16 32 0 -8
BITMAP
F409
C24B
F5E3
C891
FA07
0B9F
946C
F0A6
0EF7
A9E7
6FDF
1BA7
8A45
F744
DF77
7253
B460
92DD
87FA
8DCA
FCC4
E22E
CD57
BCF2
E20F
CFCD
5AAF
EBAC
2689
E7E9
616A
9BBC
ENDCHAR
STARTCHAR U+2505
ENCODING 9477
SWIDTH 500 0
DWIDTH 16 0
BBX 16 32 0 -8
BITMAP
2F31
B717
4DB9
ECA0
758E
7301
35A8
0076
CD07
D938
C399
952C
F089
6AB6
3307
0801
F73F
2D87
2098
C351
EDC3
B1D3
6F3C
E810
A677
4FDF
DC0F
8D18
701C
78CA
81ED
A1E5
ENDCHAR
STARTCHAR U+2506
ENCODING 9478
SWIDTH 500 0
DWIDTH 16 0
BBX 16 32 0 -8
BITMAP
E8B1
618C
9923
E3D1
44B6
8624
305A
6EE7
6F5D
0E44
DB22
ABE0
9DAD
750F
DAAC
76DE
31B8
64F6
F87E
E4EA
BA86
AFA3
AEB4
4F56
1D56
B535
1963
04C2
0B99
C796
D2B6
F2A3
ENDCHAR
STARTCHAR U+2507
ENCODING 9479
SWIDTH 500 0
DWIDTH 16 0
BBX 16 32 0 -8
BITMAP
0C4C
3373
1FC6
1902
7F17
F10C
0351
3D94
1C97
E5E2
0F3A
7253
3229
5EE3
F2D9
1A89
E1E5
1CFD
515B
B0A5
99E2
C6B5
058C
3783
64D2
929E
AC39
7557
E4C6
A659
52BA
102F
ENDCHAR
STARTCHAR U+2508
ENCODING 9480
SWIDTH 500 0
DWIDTH 16 0
BBX 16 32 0 -8
BITMAP
602C
6619
A4F5
FB45
E08F
FD1B
0D77
5E2A
F919
16CC
1B7D
8927
5DCD
5D32
D6FE
D305
EFCB
501C
2570
B02E
862C
B77D
F1A0
8389
CBEC
6933
65F5
B3FA
B2F9
0A31
66A5
D018
ENDCHAR
STARTCHAR U+2509
ENCODING 9481
SWIDTH 500 0
DWIDTH 16 0
BBX 16 32 0 -8
BITMAP
C87E
B2BD
D734
4981
D8A3
008B
DE9E
5773
9934
C4E2
20D7
F66A
2B55
DD46
F77D
4657
A051
F684
C49B
C6EC
D5BD
73DC
B0F7
C0BA
2CE1
C599
1DAC
0605
A1DD
9E9E
794D
CF44
ENDCHAR
STARTCHAR U+250A
ENCODING 9482
SWIDTH 500 0
DWIDTH 16 0
BBX 16 32 0 -8
BITMAP
1073
2D94
C28F
CF46
0203
E408
F1B6
904E
6692
71FC
5D2D
C6F2
C6AA
6D7B
DD98
8B1F
22D7
FF69
A802
AD8E
87B8
2DF4
848D
1DEC
5346
F31E
64B3
56B6
8795
C74B
BE2B
4B07
ENDCHAR
STARTCHAR U+250B
ENCODING 9483
SWIDTH 500 0
DWIDTH 16 0
BBX 16 32 0 -8
BITMAP
138E
063E
4722
45BB
3AB4
9E73
EF45
34EA
EC24
537C
F218
3797
F2C0
97BE
D22F
8454
CE98
7F81
2AE2
37B4
CE3E
ABED
6D20
1486
57F8
24B4
28CA
4B2B
BD33
6AE9
4102
3341
ENDCHAR
STARTCHAR U+250C
ENCODING 9484
SWIDTH 500 0
DWIDTH 16 0
BBX 16 32 0 -8
BITMAP
20EE
808B
7309
BC2E
97EA
A3DF
3395
5F2B
2AFA
F70D
B085
9A2F
7E1C
3B39
0F91
CC35
266A
90DA
0FF5
E345
1F6A
9E57
9400
88A1
83DA
3E5B
E539
72A0
505F
C70E
1DF8
A261
ENDCHAR
STARTCHAR U+250D
ENCODING 9485
SWIDTH 500 0
DWIDTH 16 0
BBX 16 32 0 -8
BITMAP
17A9
8342
1249
7EE4
9DE9
19AB
2FBB
C0FD
7AF2
4E84
224B
8777
D017
EDEB
867F
1B11
FD09
87F2
FF5F
AB18
6348
D229
2312
F8AB
0867
AA43
4AE8
CFE7
E995
8E1C
E2B6
6A2A
ENDCHAR
STARTCHAR U+250E
ENCODING 9486
SWIDTH 500 0
DWIDTH 16 0
BBX 16 32 0 -8
BITMAP
2FBF
6F25
FBB8
C060
1BC8
347C
4D1B
7337
D638
FF94
82EE
5393
DAF6
4D91
560A
9356
6662
A01C
FFEB
C117
3FF3
3317
DE12
6C6C
2C6A
FFF3
598D
617E
C2A3
4C66
BB20
E5AE
ENDCHAR
STARTCHAR U+250F
ENCODING 9487
SWIDTH 500 0
DWIDTH 16 0
BBX 16 32 0 -8
BITMAP
672F
30DB
D108
97D3
8B08
7094
E45A
1600
3925
A5F5
7CB5
554A
9F1F
DD37
9B38
29E6
82E2
C08D
2B99
32B9
A4E3
98A7
355E
1148
524E
82B5
BCAD
C5E6
A3A5
D1D3
50C5
FC9A
ENDCHAR
STARTCHAR U+2510
ENCODING 9488
SWIDTH 500 0
DWIDTH 16 0
BBX 16 32 0 -8
BITMAP
6350
27E1
010F
4A6D
4224
1289
1D75
0217
C973
3FD3
729E
4353
D213
9966
B76C
1521
B800
0FC5
748D
0D58
AA7C
3F59
AB4E
27D5
2CBE
05C2
01E9
817C
642D
114E
1D51
BC82
ENDCHAR
STARTCHAR U+2511
ENCODING 9489
SWIDTH 500 0
DWIDTH 16 0
BBX 16 32 0 -8
BITMAP
E4A9
1DDB
CFC2
9F3E
102E
A0CF
F0E5
C300
3825
ECC4
6E49
CC15
4534
2A61
DBAB
A72E
10DB
CB82
0B9C
704E
929C
7CA7
6086
632D
CB7B
0280
E7BA
206D
151A
E63F
211C
B928
ENDCHAR
STARTCHAR U+2512
ENCODING 9490
SWIDTH 500 0
DWIDTH 16 0
BBX 16 32 0 -8
BITMAP
2E2F
890C
24B7
455F
719B
5B47
7711
AC47
5DBF
24F3
81A0
5E44
0EC4
7A70
3ADB
9828
24D3
6C04
2126
DB5D
8D53
6E00
A8C9
5021
DDFC
7251
B975
9721
CEAD
7EEB
697F
FB04
ENDCHAR
STARTCHAR U+2513
ENCODING 9491
SWIDTH 500 0
DWIDTH 16 0
BBX 16 32 0 -8
BITMAP
482A
C1F7
35AE
4197
E2AF
D176
1803
D61E
D9B3
1EEF
DECE
7DFC
C735
3D01
9E22
E855
2206
AF50
3E24
AD42
760D
6BB7
5987
50CD
100E
6CBB
7304
9445
7B23
367D
97D5
FE57
ENDCHAR
STARTCHAR U+2514
ENCODING 9492
SWIDTH 500 0
DWIDTH 16 0
BBX 16 32 0 -8
BITMAP
0412
BBA8
4DA7
AEBD
A0F6
46C2
D7D5
217C
24B6
27A0
F646
9225
395C
D029
7224
7FAE
A4B4
7CF2
711B
9282
5243
1FC7
A3A6
3A08
FEE4
3C1F
93C4
ED8C
C2E6
3E19
78DD
488C
ENDCHAR
STARTCHAR U+2515
ENCODING 9493
SWIDTH 500 0
DWIDTH 16 0
BBX 16 32 0 -8
BITMAP
9C60
98A5
44BE
E608
C4AA
A440
4699
A0D8
085F
2327
BAE8
5E40
B47A
C625
9920
78EE
7BE1
27E6
1803
F119
3CFA
0F6F
00BA
2077
28C6
FFBC
A92E
321B
9445
84AF
B5FF
E9A4
ENDCHAR
STARTCHAR U+2516
ENCODING 9494
SWIDTH 500 0
DWIDTH 16 0
BBX 16 32 0 -8
BITMAP
EC72
F9F7
02FC
1914
62F8
94D6
49CB
DB59
6CC3
7C1F
1B4C
7241
4A53
C4C1
C2D9
FCF8
6C73
F6CC
51C9
CC3D
ADCA
2F12
62BA
71DF
3BFD
1B84
D387
666F
F7F3
9E02
8ED0
BD4A
ENDCHAR
STARTCHAR U+2517
ENCODING 9495
SWIDTH 500 0
DWIDTH 16 0
BBX 16 32 0 -8
BITMAP
F31B
D950
0405
B900
C974
A46A
5C66
7879
5A56
06F6
5CBF
671D
8F31
9CD0
F634
7C3F
0897
8130
15B8
0206
A51D
0FF1
D453
3E57
109F
DAE6
21B7
CB69
6B58
3374
4E11
5233
ENDCHAR
STARTCHAR U+2518
ENCODING 9496
SWIDTH 500 0
DWIDTH 16 0
BBX 16 32 0 -8
BITMAP
73A4
01DC
CD86
F74B
7A1E
B74C
3973
B201
F46C
B6CA
1572
52AA
524F
7B2F
A00F
4D4B
9832
AFBB
3635
8C4F
F72C
49B5
6FC3
5640
A946
5DD6
E278
ECD0
6028
C4EC
8018
8F6E
ENDCHAR
STARTCHAR U+2519
ENCODING 9497
SWIDTH 500 0
DWIDTH 16 0
BBX 16 32 0 -8
BITMAP
8590
AB28
8976
6E2B
9744
6705
13E8
F1A9
127B
2706
496E
0650
B6F4
BC3F
45A0
025B
6FA8
1958
90A5
AF93
0590
BF17
8026
7C3C
08D7
C99A
FCE6
A193
A3BC
6DE8
EB86
0937
ENDCHAR
STARTCHAR U+251A
ENCODING 9498
SWIDTH 500 0
DWIDTH 16 0
BBX 16 32 0 -8
BITMAP
A3CF
F15D
4251
854F
7AA7
9159
6879
C3CA
2AC9
1E5A
2B38
B4E8
9E66
BB77
F148
7847
8733
F430
BB9B
7DB9
7D6E
569E
32F7
03ED
C8B0
B9ED
5A50
BB0D
F60D
AE45
0E49
0DF3
ENDCHAR
STARTCHAR U+251B
ENCODING 9499
SWIDTH 500 0
DWIDTH 16 0
BBX 16 32 0 -8
BITMAP
45C9
8514
F662
6390
CB95
E2F2
BF26
16D9
9499
08E4
B7EB
468C
B917
3E93
1D3F
DC5E
DFA5
B2AD
7C6D
9605
F886
A3DF
2478
738B
87C4
6361
6E2D
46CC
95D8
024B
82F0
731F
ENDCHAR
STARTCHAR U+251C
ENCODING 9500
SWIDTH 500 0
DWIDTH 16 0
BBX 16 32 0 -8
BITMAP
13A1
C127
2430
7D03
B8D5
1B1E
6FBC
457B
D5ED
C366
8612
DA56
E970
0D44
DA5C
0722
12D7
2C46
6BAB
B02E
84BA
3BCD
DFEE
F30E
E167
9A63
D48D
B4A4
D401
B4BD
93B5
409B
ENDCHAR
STARTCHAR U+251D
ENCODING 9501
SWIDTH 500 0
DWIDTH 16 0
BBX 16 32 0 -8
BITMAP
AE5E
C028
BA08
66DD
E3CF
5657
7A92
E953
9670
3E4F
8C2D
CC9D
3881
DEBE
6D94
4D5B
E04C
61A7
E379
EE8A
EC21
8567
A9D6
15C1
72DF
8372
DD50
2E92
38A4
2F40
506E
2092
ENDCHAR
STARTCHAR U+251E
ENCODING 9502
SWIDTH 500 0
DWIDTH 16 0
BBX 16 32 0 -8
BITMAP
6A32
ADBF
6FDD
8DBB
7103
FD53
9ABD
FF5B
1434
9AA4
ABA1
E973
685B
B915
B225
F4AF
AEC0
82A2
3BE1
623E
FC19
7ACA
4400
F31B
73F5
9F83
257A
6A70
5F2D
2980
4C3F
7B79
ENDCHAR
STARTCHAR U+251F
ENCODING 9503
SWIDTH 500 0
DWIDTH 16 0
BBX 16 32 0 -8
BITMAP
7526
49A1
6AD3
ACF1
910B
00C8
7386
233A
7FB2
1549
5EC8
EF34
7DA5
6788
C3A3
3734
89DC
B77C
3AAC
2063
E167
A22A
A242
E35C
6377
6BE8
0D60
C4BF
A869
D8A1
C66F
8597
ENDCHAR
STARTCHAR U+2520
ENCODING 9504
SWIDTH 500 0
DWIDTH 16 0
BBX 16 32 0 -8
BITMAP
C932
181D
550B
FFD4
75C1
751A
A61F
9786
14D7
C278
653B
F882
A865
CD9F
5633
0155
9255
44C8
7CCC
F326
3F3C
2F09
4289
8E2A
EA3E
851A
711F
5243
DD43
7CF6
395A
4C18
ENDCHAR
STARTCHAR U+2521
ENCODING 9505
SWIDTH 500 0
DWIDTH 16 0
BBX 16 32 0 -8
BITMAP
FA6B
8287
76EE
AB0D
1E31
D4C3
DDD1
D247
9952
DFA0
97A0
9F1E
B0FA
FB5A
D9B2
3172
BB12
8B1F
289D
3B93
6FB6
78AB
2270
D202
6990
310C
FC14
7435
33EB
9F69
EF83
EF23
ENDCHAR
STARTCHAR U+2522
ENCODING 9506
SWIDTH 500 0
DWIDTH 16 0
BBX 16 32 0 -8
BITMAP
EA43
D145
64C5
E16B
9CAB
8F6E
2B25
80A3
0A4D
A49E
5217
721E
E978
221E
25E3
4EDA
D4CB
EB84
5F9B
889C
171F
D4BD
030A
EDB7
9811
BC04
0588
E2C4
B100
7506
0D1F
FF44
ENDCHAR
STARTCHAR U+2523
ENCODING 9507
SWIDTH 500 0
DWIDTH 16 0
BBX 16 32 0 -8
BITMAP
1024
0E7B
BBA7
5314
D379
6190
4E80
F82C
6607
E61A
AE79
063D
FDC1
87E8
1C02
7019
48EC
FD89
3CC4
7846
C226
DC53
EC4C
4CCC
08B2
8F86
3D46
1747
A05C
BB50
C081
6F96
ENDCHAR
STARTCHAR U+2524
ENCODING 9508
SWIDTH 500 0
DWIDTH 16 0
BBX 16 32 0 -8
BITMAP
7A02
0111
3EF5
50E1
DE73
12DD
2133
8412
CCEF
4DE8
D92B
B3AF
25E7
4C3A
BE4C
EF5B
522F
F2A0
42E9
C340
CB3E
7C1A
81B0
074F
7999
A23D
CDE9
C6B8
D593
6AEF
4A94
E705
ENDCHAR
STARTCHAR U+2525
ENCODING 9509
SWIDTH 500 0
DWIDTH 16 0
BBX 16 32 0 -8
BITMAP
0BE3
C112
9ED2
CBAA
9593
95A1
3EA0
14B5
3A8F
F54D
DB2C
AF8A
1011
7638
D225
B2CA
B870
4885
CC39
C4A3
7B10
9E3D
EB9A
C11A
9130
A5B7
7964
05E8
778B
56B2
7A30
9D75
ENDCHAR
STARTCHAR U+2526
ENCODING 9510
SWIDTH 500 0
DWIDTH 16 0
BBX 16 32 0 -8
BITMAP
5561
57FA
6473
AAD1
1092
A10E
028A
E7E4
F2DC
DED5
CB11
95E0
06E3
0E5F
B14A
ADF9
1EF8
2389
3BC2
3849
4703
C6EE
6FFE
F642
49EC
5BF5
65BB
AD94
E5C5
C6FE
2CAE
4A0D
ENDCHAR
STARTCHAR U+2527
ENCODING 9511
SWIDTH 500 0
DWIDTH 16 0
BBX 16 32 0 -8
BITMAP
F010
E863
6815
16F9
BC00
40EA
A534
9C0F
1C8B
3DA3
568B
D093
487D
E100
586F
3851
27BC
2725
A20B
0C53
FEFC
6289
1AE2
076C
8F9A
5FAE
84B6
BCB4
A165
01E8
BC56
7777
ENDCHAR
STARTCHAR U+2528
ENCODING 9512
SWIDTH 500 0
DWIDTH 16 0
BBX 16 32 0 -8
BITMAP
5E6F
54A1
0CB9
CA53
97EF
2FB9
3976
AE52
3519
6EBD
279C
C2A4
D627
CD1A
8C9E
F9D1
14A4
7BFB
9AEC
A2ED
053E
D065
1CB6
B7BE
F08B
97A5
084F
7F4F
F4C7
F2C3
B6B8
E6D9
ENDCHAR
STARTCHAR U+2529
ENCODING 9513
SWIDTH 500 0
DWIDTH 16 0
BBX 16 32 0 -8
BITMAP
1E45
6601
BE2E
A544
F941
746D
8B79
49D6
1BA5
CBF7
7516
8719
032C
7CF6
ABCD
10CF
A837
9DB2
893D
9D64
39B8
3C6E
5A77
D8AB
1408
91E9
EC78
E5C9
FFD6
5BAF
C22A
6662
ENDCHAR
STARTCHAR U+252A
ENCODING 9514
SWIDTH 500 0
DWIDTH 16 0
BBX 16 32 0 -8
BITMAP
EB21
F1BF
DA1D
149E
2BE4
3179
A4C3
2135
CD7F
9647
2BEF
2765
25DF
7642
D5C2
B1A6
B2A8
BE88
1ABC
CA76
36E1
26B6
3628
07AC
80F5
9FF6
83B8
2F6C
066D
41F1
6D2E
55AD
ENDCHAR
STARTCHAR U+252B
ENCODING 9515
SWIDTH 500 0
DWIDTH 16 0
BBX 16 32 0 -8
BITMAP
4288
BD25
E7EB
4272
7022
1549
390A
17C3
3816
C27E
0290
952D
9066
116C
4C13
43A6
DA31
BBCB
0659
0105
0DB4
8061
A106
B989
D86B
E20B
BEFA
E66A
4E94
CF98
4A25
7733
ENDCHAR
STARTCHAR U+252C
ENCODING 9516
SWIDTH 500 0
DWIDTH 16 0
BBX 16 32 0 -8
BITMAP
0088
A55C
A59F
4F7E
9966
4C78
153A
13F3
0251
6AF1
5D04
AA55
9248
F898
9876
7AB1
16DC
2656
E2ED
160C
BF31
C7CF
80BC
C960
2E92
B0E4
69CD
3B06
293B
9249
C0C4
9351
ENDCHAR
STARTCHAR U+252D
ENCODING 9517
SWIDTH 500 0
DWIDTH 16 0
BBX 16 32 0 -8
BITMAP
D196
D75D
7E5F
8242
2718
C305
141D
C7D7
8FDC
FE84
B1D2
AEF4
7E57
16D0
8B82
292A
717E
3F10
2C9D
3435
42EC
4C34
BDAB
DA8F
FA91
9CFF
6916
324C
9631
7735
2BA4
ACAE
ENDCHAR
STARTCHAR U+252E
ENCODING 9518
SWIDTH 500 0
DWIDTH 16 0
BBX 16 32 0 -8
BITMAP
ED18
D98D
A50B
36AE
2B05
9246
0DD8
89FD
8875
BBB0
5E41
6413
9E85
FDE2
3923
C00F
3640
9870
7506
EC11
1242
83E3
D1D1
9DBB
2D85
C1FA
1158
7E03
DB4F
E72E
25A0
65D0
ENDCHAR
STARTCHAR U+252F
ENCODING 9519
SWIDTH 500 0
DWIDTH 16 0
BBX 16 32 0 -8
BITMAP
3389
862F
314B
EF13
0A68
7302
706E
6197
BEE6
2F70
2A4E
4000
075E
C256
08F9
3923
CC15
22E1
3BEC
E703
BB2D
914B
DD20
CF62
58D9
5FF9
9EEE
891A
BB22
9CC6
6346
17C8
ENDCHAR
STARTCHAR U+2530
ENCODING 9520
SWIDTH 500 0
DWIDTH 16 0
BBX 16 32 0 -8
BITMAP
44E8
6532
E835
538C
7130
1E27
34B5
5631
7B3E
3B54
C51B
7906
AD23
4AEB
4923
FB66
6DD6
1AD6
C4AC
C1CB
FCB4
72C8
273A
AD06
7CCC
76AE
8234
C83E
C734
ECEF
377C
9A4D
ENDCHAR
STARTCHAR U+2531
ENCODING 9521
SWIDTH 500 0
DWIDTH 16 0
BBX 16 32 0 -8
BITMAP
B709
E484
7EDF
7D82
1F3F
0E8E
82EE
66D2
E70C
0322
3B52
39D7
1DE5
643A
7819
7A09
D57F
66C9
8754
4A42
1BC6
6266
F411
D8A4
0651
F823
148D
7CC7
DAC8
2090
E68A
E821
ENDCHAR
STARTCHAR U+2532
ENCODING 9522
SWIDTH 500 0
DWIDTH 16 0
BBX 16 32 0 -8
BITMAP
9EA7
E853
E3C5
33BF
DD57
0628
82E3
46F1
C990
63BA
9E6F
109E
DF61
8200
4232
1130
B912
2F53
8F85
D8B3
7C50
E307
AAC9
0DD7
45EE
57B5
6E1B
3D2B
50EC
60A4
9720
7B75
ENDCHAR
STARTCHAR U+2533
ENCODING 9523
SWIDTH 500 0
DWIDTH 16 0
BBX 16 32 0 -8
BITMAP
5368
1415
089F
2EEA
59EC
2468
8CC0
695B
67B5
3497
8438
52E6
1D5B
88CF
6587
8D17
5BF7
0399
7A24
6075
34B6
074D
439A
AE15
0D57
E074
1BFF
6087
93EB
5AC1
5255
AAC4
ENDCHAR
STARTCHAR U+2534
ENCODING 9524
SWIDTH 500 0
DWIDTH 16 0
BBX 16 32 0 -8
BITMAP
E5B3
BAA8
B03F
592F
0281
B271
86D8
3469
C1C5
450F
3D50
A09F
20FF
4AB1
3E2E
9484
E49D
F94F
8367
72EE
A81C
8595
2A7E
5DC8
3BBF
0868
9E16
4CCC
5930
9E33
76A8
3CA2
ENDCHAR
STARTCHAR U+2535
ENCODING 9525
SWIDTH 500 0
DWIDTH 16 0
BBX 16 32 0 -8
BITMAP
8422
4B78
E400
5EB2
82D2
5CF7
B061
FDD5
0F35
5549
561D
B575
3127
8ECA
2089
489D
3FEC
9F15
7332
69FF
F636
0918
CCB3
3CD3
0F56
EBA5
E65F
4590
3362
F531
9C95
FA47
ENDCHAR
STARTCHAR U+2536
ENCODING 9526
SWIDTH 500 0
DWIDTH 16 0
BBX 16 32 0 -8
BITMAP
AF56
B686
0D9C
2AA2
C62B
D608
F5AF
F530
130F
BB20
77E9
775B
CF40
1AED
9EAD
A7D0
7956
FE49
1887
1AC7
3DE4
52DD
6545
9539
5131
B9AE
17F7
EB58
1A3B
882A
CD38
E7B4
ENDCHAR
STARTCHAR U+2537
ENCODING 9527
SWIDTH 500 0
DWIDTH 16 0
BBX 16 32 0 -8
BITMAP
BE9F
9707
4952
7E7D
1D51
A6D5
5EC3
EDA5
6DB2
8F0C
53BD
A553
83E3
C046
4F00
DEA0
33AD
6921
6F8A
5AD2
58BB
FFE8
DCAF
04DD
D4C9
25BE
8E87
C2CA
8964
2202
633E
D336
ENDCHAR
STARTCHAR U+2538
ENCODING 9528
SWIDTH 500 0
DWIDTH 16 0
BBX 16 32 0 -8
BITMAP
C8F4
AF9B
34BF
7345
182C
CA76
59BE
2AB3
1BD7
662E
167C
062E
93C8
99A4
B14B
06D1
75FD
A82E
0591
02B1
A63F
7106
78BB
B9CB
3DCC
BEA3
5631
AB20
3350
877D
F45C
FE75
ENDCHAR
STARTCHAR U+2539
ENCODING 9529
SWIDTH 500 0
DWIDTH 16 0
BBX 16 32 0 -8
BITMAP
EE5C
0146
C54D
8738
3610
71CB
F990
8ABD
A67E
D976
2C03
336C
9479
5090
BC84
F193
A0F3
1CC7
08BE
35DF
5766
752F
BBD9
CA91
BA5C
532C
CCA2
5285
91AF
8807
63E9
3444
ENDCHAR
STARTCHAR U+253A
ENCODING 9530
SWIDTH 500 0
DWIDTH 16 0
BBX 16 32 0 -8
BITMAP
2D7F
764A
9338
EA7F
52DB
E2AD
ED76
50F2
957D
45EE
B6A1
044D
8D97
15FE
0451
07CE
3C04
768E
3FC2
FB28
871F
FBA3
04B0
25CC
C183
C43D
49CC
3FF4
529C
EBBE
0F83
87B9
ENDCHAR
STARTCHAR U+253B
ENCODING 9531
SWIDTH 500 0
DWIDTH 16 0
BBX 16 32 0 -8
BITMAP
AF5B
C9FE
E7A4
2BA8
7852
1F7A
D4EE
86FC
F2AA
F469
6604
0B33
7EF5
4C5F
7E84
7168
1D42
9366
9AA6
B34F
01F1
71AB
C21D
6A82
590A
C11E
F8E2
9A88
99BF
E9E7
D32D
853C
ENDCHAR
STARTCHAR U+253C
ENCODING 9532
SWIDTH 500 0
DWIDTH 16 0
BBX 16 32 0 -8
BITMAP
005C
D0BA
AB35
19EF
DEED
A256
02F2
DA10
A081
3BD2
FB21
EB9F
5927
0F5D
32FD
747F
7C15
CEA1
C96A
35C5
952B
1F60
317F
6731
BC67
FBF8
939F
5E1F
E549
20AC
40BF
E26A
ENDCHAR
STARTCHAR U+253D
ENCODING 9533
SWIDTH 500 0
DWIDTH 16 0
BBX 16 32 0 -8
BITMAP
44B1
072F
1499
61E2
8AF9
F5B3
4FF1
82CA
0B95
F0C8
605F
0428
F390
EFA5
756A
0C55
709C
4098
9603
3967
0E6E
F647
3DF0
4611
F9A3
B4AD
BA95
AC39
3746
54DC
B742
21F1
ENDCHAR
STARTCHAR U+253E
ENCODING 9534
SWIDTH 500 0
DWIDTH 16 0
BBX 16 32 0 -8
BITMAP
1014
84FC
F24E
2653
BBCF
E9AD
CDE3
8FA0
EA18
2566
32F3
CF98
D009
437C
5C3A
757F
4B05
34F0
D338
3167
4F9B
6E8B
8756
848E
2503
4A2D
24AA
DC4D
CD4B
8D13
099E
71A5
ENDCHAR
STARTCHAR U+253F
ENCODING 9535
SWIDTH 500 0
DWIDTH 16 0
BBX 16 32 0 -8
BITMAP
2EDF
0CC7
F647
B01E
6767
4A63
6C33
9D0E
C5C1
33D1
8495
A0B1
8616
FA61
6531
22DF
C511
B65F
3032
7292
ABBD
0C31
2C7C
060F
68D8
2101
65FD
FC50
CEE4
6ED5
3B73
D743
ENDCHAR
STARTCHAR U+2540
ENCODING 9536
SWIDTH 500 0
DWIDTH 16 0
BBX 16 32 0 -8
BITMAP
02A8
8E2C
C1D6
FD08
BD41
05CF
45FA
67E6
BE1D
D3BE
8472
713D
A704
6ECB
A4AB
445F
21A7
FB1B
7904
6A48
7724
AA60
74DB
27B0
E8C5
06E2
3268
5C04
CB34
43D2
1830
B564
ENDCHAR
STARTCHAR U+2541
ENCODING 9537
SWIDTH 500 0
DWIDTH 16 0
BBX 16 32 0 -8
BITMAP
E800
44FB
7D5F
FD44
B576
38D0
D542
8F9C
CEAE
1A9F
FDD5
13EF
703C
1967
B6B0
86B3
0DB5
C263
BB58
9689
6A0E
D142
0F15
AD80
4B5C
6739
041E
76AF
98A0
0034
921C
2E78
ENDCHAR
STARTCHAR U+2542
ENCODING 9538
SWIDTH 500 0
DWIDTH 16 0
BBX 16 32 0 -8
BITMAP
BAA4
3F52
87FE
428F
19A0
BFDB
1386
5349
95EE
E0F5
BB87
576C
DFA4
3051
2BB7
A362
9356
4C76
80CC
E221
F569
9918
8916
883B
D972
B8EA
8DD2
B517
456E
E13D
9F05
99C7
ENDCHAR
STARTCHAR U+2543
ENCODING 9539
SWIDTH 500 0
DWIDTH 16 0
BBX 16 32 0 -8
BITMAP
0456
42A0
E2BE
CBBD
B08A
E5AC
7FA5
0815
8268
C2AA
C943
ACFB
5497
E9AB
1579
1769
DEC7
7A60
E2C8
C9D5
223B
4981
67FE
8CFE
E0C1
13E0
AD8E
D972
1375
1631
4392
42C1
ENDCHAR
STARTCHAR U+2544
ENCODING 9540
SWIDTH 500 0
DWIDTH 16 0
BBX 16 32 0 -8
BITMAP
B94A
D9AD
E771
19D9
A1D2
24F1
861C
475A
3D81
E615
F9FC
09B9
E4D1
FB5C
AFD1
21CF
9596
CA82
F2DB
024D
8DBD
3788
B381
2E4D
0BB7
9214
D804
BE3D
074A
85D9
590F
8A75
ENDCHAR
STARTCHAR U+2545
ENCODING 9541
SWIDTH 500 0
DWIDTH 16 0
BBX 16 32 0 -8
BITMAP
20A8
5D8A
A798
251B
3299
1DFC
DE99
75B8
CB38
77C4
D0AD
933C
D5F6
14BB
CFAA
C7BF
1CA7
77DC
190B
BC66
0092
9883
286D
EC27
968E
8CFF
0877
CCAC
AC62
5E46
1B77
7099
ENDCHAR
STARTCHAR U+2546
ENCODING 9542
SWIDTH 500 0
DWIDTH 16 0
BBX 16 32 0 -8
BITMAP
CCA3
4AA2
926F
CFD0
A7BF
3D15
1BA8
E179
0EC9
BFF0
4F3D
5113
00C1
1ACD
D9FD
894F
46A9
8F53
0FCC
E83C
986F
D3DC
D91F
523F
77A9
6F68
A10A
E107
A87C
E1D1
1B5A
6B67
ENDCHAR
STARTCHAR U+2547
ENCODING 9543
SWIDTH 500 0
DWIDTH 16 0
BBX 16 32 0 -8
BITMAP
77AE
74AB
619A
3333
2F3B
1A75
E073
B9DD
DA2C
A85C
6D75
09C4
7B0A
1101
041A
978A
33FF
0FD6
44D5
56C8
BEAF
3EC1
4531
94A4
6EC2
5A18
796F
6B96
F7C9
64EC
B6E5
4446
ENDCHAR
STARTCHAR U+2548
ENCODING 9544
SWIDTH 500 0
DWIDTH 16 0
BBX 16 32 0 -8
BITMAP
AB67
1CBB
D42E
6BF3
0A55
63C9
BF4F
2B99
F704
C4A4
82E2
E142
56E3
14B5
8F9B
D378
1A3E
5C2D
8D93
B58A
8D99
FE74
3310
DC2D
4045
32B0
FD6A
CC0B
8FC1
4540
8EFD
F81D
ENDCHAR
STARTCHAR U+2549
ENCODING 9545
SWIDTH 500 0
DWIDTH 16 0
BBX 16 32 0 -8
BITMAP
AF5D
B483
B505
DE90
0E57
7AD6
3541
2C72
EBBB
5241
C0C2
0AFA
4C67
A48E
1411
2DD9
7F89
0ABE
D3B6
EFC0
056E
D82A
7BA8
0EBE
B1A4
0373
087E
8A1E
3559
6B21
935F
DDB7
ENDCHAR
STARTCHAR U+254A
ENCODING 9546
SWIDTH 500 0
DWIDTH 16 0
BBX 16 32 0 -8
BITMAP
2632
1F07
3D48
0EFA
4319
E28B
F801
3B07
953A
BBCD
7460
E6E0
C24F
59EE
87ED
3E37
06B0
CB33
BADA
8926
4F54
5A46
B122
CEE4
1CF8
F099
4147
4DFE
5C8D
7AB5
1EBC
CB77
ENDCHAR
STARTCHAR U+254B
ENCODING 9547
SWIDTH 500 0
DWIDTH 16 0
BBX 16 32 0 -8
BITMAP
DA05
D2C9
3067
EF31
1700
450C
7F00
4835
10C2
E340
B0EC
3BD7
46E6
3A8E
95E3
F3DB
5714
FAED
033B
339E
031F
62AB
660E
E01A
80B7
552A
6D44
C0E8
E322
3924
D115
9F72
ENDCHAR
STARTCHAR U+254C
ENCODING 9548
SWIDTH 500 0
DWIDTH 16 0
BBX 16 32 0 -8
BITMAP
61A6
B29C
B98D
4CD2
DD40
EF72
195B
ED48
F8A1
A644
A7E8
155F
F16F
8D29
062D
C16D
1BAA
2613
563A
BACA
129D
7A87
E765
57F4
63CD
A01E
C952
78AB
8BB5
4ECD
AB85
3DA3
ENDCHAR
STARTCHAR U+254D
ENCODING 9549
SWIDTH 500 0
DWIDTH 16 0
BBX 16 32 0 -8
BITMAP
34A3
058C
3C0B
EB20
1A51
0FF7
8628
9AC4
2FC6
76A8
0F0B
1787
14CB
FD14
8697
F4E1
826C
1499
3309
ECAA
4F4A
AE88
2C03
A0EB
EB68
2037
FC19
E98D
405B
0FEA
AEB5
8754
ENDCHAR
STARTCHAR U+254E
ENCODING 9550
SWIDTH 500 0
DWIDTH 16 0
BBX 16 32 0 -8
BITMAP
273B
4117
585B
21A2
573D
ED3F
2346
4DC4
DFCD
1E8D
9931
256B
2ED6
07BB
D61B
6AE1
24DE
25D1
AC54
3B1C
EEB5
AA48
05E3
7F27
679B
B362
CF57
5CA7
6C4B
BA59
BECE
31A0
ENDCHAR
STARTCHAR U+254F
ENCODING 9551
SWIDTH 500 0
DWIDTH 16 0
BBX 16 32 0 -8
BITMAP
E3A8
18E6
5E3A
711A
6DF1
AF28
AAC0
8B22
CBB5
8263
7894
474F
2365
F7D9
7B6F
DF05
25E6
817F
B28C
DD64
4DCE
5AE8
2F2D
D357
5812
DECA
4631
CC49
7053
B6C4
524E
D4A6
ENDCHAR
STARTCHAR U+2550
ENCODING 9552
SWIDTH 500 0
DWIDTH 16 0
BBX 16 32 0 -8
BITMAP
2E4F
8D28
CFE4
21F4
2615
7875
0F73
6896
4207
F673
F28F
15D1
90FD
3833
E8AB
D8AC
D4ED
DCDD
AAE4
B028
6ADF
821E
254E
108B
146F
0DB1
BB29
226E
2CB5
BC6B
6203
DC4C
ENDCHAR
STARTCHAR U+2551
ENCODING 9553
SWIDTH 500 0
DWIDTH 16 0
BBX 16 32 0 -8
BITMAP
BB8E
F3E0
4E11
136B
87A2
4666
0CA8
135F
4A16
7F3F
AA61
17FF
CC4D
1310
2029
6451
8054
1643
AEBA
8E87
3097
97E8
F38F
DCF8
7D29
E9A3
C564
D1D9
A063
416F
1E88
ACF9
ENDCHAR
STARTCHAR U+2552
ENCODING 9554
SWIDTH 500 0
DWIDTH 16 0
BBX 16 32 0 -8
BITMAP
C361
5150
9794
D16D
5775
9286
AD39
EDBE
F122
46C0
6E61
DBE1
FB2F
67E9
26A3
9E6A
0178
0F5E
4F4B
0A19
5E97
641D
7B54
135B
9F9C
F064
3F37
D71A
87FB
B72F
FC16
A035
ENDCHAR
STARTCHAR U+2553
ENCODING 9555
SWIDTH 500 0
DWIDTH 16 0
BBX 16 32 0 -8
BITMAP
6264
A535
ABC5
306E
0497
0DD5
3F6B
F19E
E961
244C
7590
7C72
4F1A
1802
31F6
7BE7
6015
385E
A06E
7D7D
FEF8
4EFE
62FE
6DBE
DC39
889A
1A56
AE5D
1831
B689
CE42
D0EB
ENDCHAR
STARTCHAR U+2554
ENCODING 9556
SWIDTH 500 0
DWIDTH 16 0
BBX 16 32 0 -8
BITMAP
6A7A
88FD
AAFA
0985
E04D
F5AB
E11B
5542
9E55
C124
5D92
08E5
10A2
3BAA
EB8D
9523
43DE
BE1C
E4FF
FDBD
2A1B
6C25
BFA3
6FBE
64BA
9752
E4AC
38C6
E5A7
1C7C
B656
BEA7
ENDCHAR
STARTCHAR U+2555
ENCODING 9557
SWIDTH 500 0
DWIDTH 16 0
BBX 16 32 0 -8
BITMAP
4169
5B33
6DA3
A139
D1D5
0DF7
F551
1DC9
2DD2
6D99
FE0B
3969
A540
2E8E
E99D
D444
5125
5E7F
6DC5
FFFD
D6CB
6B11
E989
7DBF
D727
CC6B
46C7
B39D
6F9F
5D02
0ECF
8406
ENDCHAR
STARTCHAR U+2556
ENCODING 9558
SWIDTH 500 0
DWIDTH 16 0
BBX 16 32 0 -8
BITMAP
9CFD
ACAE
53D6
CD47
D73C
68C7
F8A9
7E78
D035
4BFD
ED6E
C928
3D04
446E
C07A
9275
CA90
7546
A35E
F579
52ED
2B54
39FC
D153
A05C
849B
933C
BA89
DCFC
6693
457E
0123
ENDCHAR
STARTCHAR U+2557
ENCODING 9559
SWIDTH 500 0
DWIDTH 16 0
BBX 16 32 0 -8
BITMAP
CFCF
3861
3673
417D
EB69
6EEA
919B
40C5
CAE1
09B6
9D45
E465
9330
61C8
93BA
CA06
37E8
67E0
0794
EA7E
6058
5E30
5936
B891
E029
A517
344A
FB27
9BA7
5C89
DDF1
429B
ENDCHAR
STARTCHAR U+2558
ENCODING 9560
SWIDTH 500 0
DWIDTH 16 0
BBX 16 32 0 -8
BITMAP
5F06
5640
FF10
B6E4
FBD8
EA93
75DE
B341
8438
2D01
F6FA
A207
96E2
748E
78FE
057F
3AC6
7425
6062
EF27
D547
8A26
99F7
9E87
16E3
E571
5DD8
D972
DA84
9626
3C12
6111
ENDCHAR
STARTCHAR U+2559
ENCODING 9561
SWIDTH 500 0
DWIDTH 16 0
BBX 16 32 0 -8
BITMAP
3BEE
F382
CB34
3DD8
B42D
5DBE
6B39
3E9F
F5F0
250A
8996
A39D
71E0
17A6
AF5F
03A0
3C4C
CC0D
5A42
715C
1AA2
86F0
5B2C
9ED5
B918
5EA9
56CD
2F4A
95C1
3E8E
FEF2
4649
ENDCHAR
STARTCHAR U+255A
ENCODING 9562
SWIDTH 500 0
DWIDTH 16 0
BBX 16 32 0 -8
BITMAP
34BF
9529
3F09
CA34
B67D
28F7
70E6
C20F
5E9C
97D2
A4F8
C0CB
BDDD
E905
FCFB
18C1
8F5C
BC7E
D70E
A964
3FB9
7EA7
48CE
A019
BABD
6749
1FAD
BB9D
2CAA
BB3E
6980
CEBD
ENDCHAR
STARTCHAR U+255B
ENCODING 9563
SWIDTH 500 0
DWIDTH 16 0
BBX 16 32 0 -8
BITMAP
E180
20FC
6C8F
8B8A
286C
48FB
19FD
4BB4
2D3C
49EF
2176
F095
593D
4A7C
7791
C7AD
DD91
2BCA
511C
A48B
A703
69DC
9F9F
CBAD
A943
CE87
BB02
CC15
1B99
0BD6
B4A8
3F5A
ENDCHAR
STARTCHAR U+255C
ENCODING 9564
SWIDTH 500 0
DWIDTH 16 0
BBX 16 32 0 -8
BITMAP
D220
BDCB
0023
4A3E
6D82
3B9A
C12D
28F4
DF4F
AADA
77B3
4BEF
32EB
973C
BE4C
99E4
4162
F9C9
4ED5
8E4A
147E
AE05
292F
9A3D
BD2B
3012
55B8
E547
32DE
B3D6
F149
9C85
ENDCHAR
STARTCHAR U+255D
ENCODING 9565
SWIDTH 500 0
DWIDTH 16 0
BBX 16 32 0 -8
BITMAP
07E2
4E6A
B59A
732F
B299
EA8E
8E57
1152
2A1B
C02A
0A75
0720
8732
060C
B1F5
655F
A0C8
BC83
E01C
8D04
D915
5F07
A017
C619
6342
7F11
E378
073E
0FAC
8E4B
6F82
E2FB
ENDCHAR
STARTCHAR U+255E
ENCODING 9566
SWIDTH 500 0
DWIDTH 16 0
BBX 16 32 0 -8
BITMAP
CA5F
4DE5
236F
71B4
1FDB
6DD9
A7A5
EE04
72B4
1C6E
9C4C
F1FF
E3BB
0E7F
4C35
49CC
DA63
14A7
81A8
B4E9
9638
E98C
7A23
4992
46C4
274D
5A1A
FA2C
E915
7D62
D9BD
79D2
ENDCHAR
STARTCHAR U+255F
ENCODING 9567
SWIDTH 500 0
DWIDTH 16 0
BBX 16 32 0 -8
BITMAP
B768
5C68
8F7C
C07C
1E23
8FFC
323F
5C56
93C3
2224
A4B1
43C5
6030
C179
4243
0F07
FC16
DDD4
9725
A3F7
E0A4
29B2
15AF
38C5
5F9E
286E
6944
3710
7798
4698
A7FD
CDFC
ENDCHAR
STARTCHAR U+2560
ENCODING 9568
SWIDTH 500 0
DWIDTH 16 0
BBX 16 32 0 -8
BITMAP
433F
71B4
78E6
D16F
0CAC
C835
3CD2
C073
C331
FD9A
C1E9
538E
FBF0
FC1D
7672
D08D
F7F8
31CD
2743
A39D
59FE
46C7
9230
AD15
13D9
47A3
BE15
8C94
339E
288B
3E75
5F57
ENDCHAR
STARTCHAR U+2561
ENCODING 9569
SWIDTH 500 0
DWIDTH 16 0
BBX 16 32 0 -8
BITMAP
FC15
5262
F847
DD99
97E2
4806
B29B
31CE
6794
FD88
B15E
9CD4
748F
4659
6B42
EB31
3B4D
7655
7919
67DD
1673
BE78
14A5
CDE6
FD50
8A07
47FD
DA2A
2AEC
0F6A
9433
AA6A
ENDCHAR
STARTCHAR U+2562
ENCODING 9570
SWIDTH 500 0
DWIDTH 16 0
BBX 16 32 0 -8
BITMAP
6492
6136
FCE9
567F
34B6
4221
7F29
D377
A6A2
F808
F6FF
3789
C25C
6BF9
F96E
5937
0087
11BB
2D1B
F721
4E0C
BF22
E774
A66F
A68E
A800
EEA0
5228
79AA
1776
A463
EE51
ENDCHAR
STARTCHAR U+2563
ENCODING 9571
SWIDTH 500 0
DWIDTH 16 0
BBX 16 32 0 -8
BITMAP
62F0
A89B
EBCB
C51C
2ADB
0668
B4B7
C900
DAC2
E765
0291
7828
88FD
8A1A
1C8D
706C
8C5C
28A0
C4F9
1505
3AAA
1F1E
01A2
074C
B210
6BC5
54C8
B30E
30EC
4F7F
2460
7BC3
ENDCHAR
STARTCHAR U+2564
ENCODING 9572
SWIDTH 500 0
DWIDTH 16 0
BBX 16 32 0 -8
BITMAP
5F4B
E228
2211
26F1
605D
E159
8EF7
4303
5CAF
FA5A
2BB2
D4BE
45BD
3E6E
316C
473E
9BF5
B189
6BB5
F7CA
F5D3
646C
645F
3099
4BD8
5584
7D08
CDD1
D097
542A
3F71
7F4C
ENDCHAR
STARTCHAR U+2565
ENCODING 9573
SWIDTH 500 0
DWIDTH 16 0
BBX 16 32 0 -8
BITMAP
D06F
DFA2
21B7
E3E5
6E47
1062
B718
B109
449E
7D29
3F3C
AE29
01AE
30AC
F691
9247
A8E5
5BD4
4522
AA4A
39E7
80B1
82D5
8459
4342
AABD
CFD6
78CC
B5F8
3FD3
C665
E4C7
ENDCHAR
STARTCHAR U+2566
ENCODING 9574
SWIDTH 500 0
DWIDTH 16 0
BBX 16 32 0 -8
BITMAP
2F60
EB27
70AA
2A13
1AE6
5A01
0F84
0ED6
575B
75F3
A9A1
6C18
E9B0
1830
B191
7597
B1D9
9646
7675
9962
C034
A26F
76FC
AA71
E1B8
7E19
DD98
DC45
5B06
317E
9C10
57E0
ENDCHAR
STARTCHAR U+2567
ENCODING 9575
SWIDTH 500 0
DWIDTH 16 0
BBX 16 32 0 -8
BITMAP
D282
CBDA
9807
7CC0
A46B
EC48
9D6C
7E1B
7B9D
300D
3DF5
666A
63CB
8B48
0585
2FC2
3703
BBD4
B49C
EF59
9A6B
CEA8
119A
2875
E365
9369
32AC
F9EA
19AF
54C8
15FE
3291
ENDCHAR
STARTCHAR U+2568
ENCODING 9576
SWIDTH 500 0
DWIDTH 16 0
BBX 16 32 0 -8
BITMAP
9D25
0EC5
DF93
1DF3
3148
505D
98B5
43C2
97E8
514A
13D6
F553
74D4
2D25
F048
2EE6
2CD5
7D6C
ACDE
2080
30CF
3C81
6A46
A4F0
E6BF
935F
E185
0DCF
BB6E
5C13
D5C5
D022
ENDCHAR
STARTCHAR U+2569
ENCODING 9577
SWIDTH 500 0
DWIDTH 16 0
BBX 16 32 0 -8
BITMAP
C39C
3C79
A5E8
C074
68A4
E6B9
D701
045C
8EBC
DA65
AD2C
F004
5DB3
5049
101D
1549
8DDD
D57A
A182
1F29
589D
3378
AAA3
385C
666C
7579
8E87
F77F
B614
04E6
8136
75AF
ENDCHAR
STARTCHAR U+256A
ENCODING 9578
SWIDTH 500 0
DWIDTH 16 0
BBX 16 32 0 -8
BITMAP
56E7
90F5
BD71
348E
AE02
568A
5EA9
1BFF
5FC8
C433
8CE4
7353
2C79
751C
C656
6F67
F58C
3E60
6854
92BB
37CA
7AE5
E40B
A9DE
30EB
6DC9
5915
A019
F37B
4F22
8C98
6E84
ENDCHAR
STARTCHAR U+256B
ENCODING 9579
SWIDTH 500 0
DWIDTH 16 0
BBX 16 32 0 -8
BITMAP
131C
D427
78B2
65E4
9824
A95B
346F
5911
E968
9DCC
E9EE
102A
FD5E
368C
FEC5
A4D4
AF0B
1B54
C97C
8CBF
D8B9
5A82
7471
C009
8CAD
CF9F
1D15
86CA
CC9C
B28F
B6CD
0F2C
ENDCHAR
STARTCHAR U+256C
ENCODING 9580
SWIDTH 500 0
DWIDTH 16 0
BBX 16 32 0 -8
BITMAP
36DC
EAC7
7842
C93F
4F90
9395
70BF
A1F5
2D80
A23C
FF14
3D4E
8081
8206
37E0
0807
B818
095C
8D86
5435
D51B
08B3
4EBA
660E
C9F7
0D9A
4A4B
E4F5
3050
B028
9377
FB95
ENDCHAR
STARTCHAR U+256D
ENCODING 9581
SWIDTH 500 0
DWIDTH 16 0
BBX 16 32 0 -8
BITMAP
EA23
81A4
B80E
2B72
0075
9914
BE30
1E2B
965D
1ABE
B963
3D64
62B1
6465
0945
D938
E651
F394
BCA4
55A1
E271
DA6D
3403
3C3A
8673
3389
50E2
7E49
4730
FBF5
1195
2641
ENDCHAR
STARTCHAR U+256E
ENCODING 9582
SWIDTH 500 0
DWIDTH 16 0
BBX 16 32 0 -8
BITMAP
3F77
01CB
2212
BD85
9A17
7E95
B65C
51B8
6852
91A7
C9D9
9A25
A1C4
D8CC
E48F
C80A
C78B
BFCB
CEB4
DC24
983C
0D3B
7DF6
3C73
3B05
4370
A629
D5E1
1575
5CCC
3B0D
5BB5
ENDCHAR
STARTCHAR U+256F
ENCODING 9583
SWIDTH 500 0
DWIDTH 16 0
BBX 16 32 0 -8
BITMAP
FB0F
8941
B011
A2C4
DC53
3E16
F553
B413
06DF
FB81
8409
E350
1017
448C
69DD
8D81
5BE2
C037
9881
1288
D9BA
9B6C
DBAB
2B4D
C076
DBCC
45C1
4FCF
95C7
5BCB
B44D
6FBF
ENDCHAR
STARTCHAR U+2570
ENCODING 9584
SWIDTH 500 0
DWIDTH 16 0
BBX 16 32 0 -8
BITMAP
26CB
5EC9
117B
1E61
A2F9
156B
D7C6
ED11
FED0
5BDE
431D
2546
DEE2
9336
FB01
3178
B78B
B963
0C64
9712
C49F
52DA
2A53
47B7
539F
7C36
B82A
5C3F
D781
559E
2C22
74E2
ENDCHAR
STARTCHAR U+2571
ENCODING 9585
SWIDTH 500 0
DWIDTH 16 0
BBX 16 32 0 -8
BITMAP
0AB5
D705
0B1D
7B47
25A7
72B1
80B1
BBD1
028D
AB46
FA49
DE74
0C94
3702
FF4E
AF2B
AD56
942D
1AD9
ECEA
B1E6
3D49
ECCE
7350
48B2
6438
8F40
CE51
F65E
9A81
7E6D
C8A5
ENDCHAR
STARTCHAR U+2572
ENCODING 9586
SWIDTH 500 0
DWIDTH 16 0
BBX 16 32 0 -8
BITMAP
B3BE
87A9
2ADD
88AA
3137
330D
4791
E8B2
1D4B
8A31
F7C0
23FF
11C9
EFE4
8924
4140
AB54
1814
8523
192C
2F2A
BFB4
FBA5
C049
442A
1B65
E453
872E
D5A1
1092
582A
1F20
ENDCHAR
STARTCHAR U+2573
ENCODING 9587
SWIDTH 500 0
DWIDTH 16 0
BBX 16 32 0 -8
BITMAP
5D73
13BB
7091
B3A5
F083
D3D2
0C6B
707D
EB3D
953F
8A54
BF08
A7ED
2924
A8C7
5258
874B
D93B
8F39
DCDF
2D8A
E2E5
B7D6
38F3
A6A1
CE1A
3115
97FB
6E13
BA50
E325
7361
ENDCHAR
STARTCHAR U+2574
ENCODING 9588
SWIDTH 500 0
DWIDTH 16 0
BBX 16 32 0 -8
BITMAP
4E3B
C977
8243
D2FB
7600
86EF
5872
4FF4
3EA0
142E
861A
276B
9C8E
3B76
CC41
D101
BC68
4498
3ACB
D82D
768C
1878
A686
3690
9904
D0B4
1B94
73AE
D6E4
1196
628A
B20C
ENDCHAR
STARTCHAR U+2575
ENCODING 9589
SWIDTH 500 0
DWIDTH 16 0
BBX 16 32 0 -8
BITMAP
63F1
5394
EBF3
51C1
7882
5992
34A0
E863
5F29
5F2D
CB18
9279
1A46
66AB
18EC
8F02
628D
2948
CA8B
DE7D
D732
CE5C
BAFD
A565
E146
1BBD
7BAD
5A16
19E0
DF5D
D57A
79DE
ENDCHAR
STARTCHAR U+2576
ENCODING 9590
SWIDTH 500 0
DWIDTH 16 0
BBX 16 32 0 -8
BITMAP
76D6
2E04
B1AB
9E53
A2EB
8533
B215
8D08
5183
2CF0
D189
9278
78B7
EDD5
37F6
87C1
5DEA
AA77
4D7C
8150
BCDC
CEC3
57AB
8275
9981
FC89
D5CD
9617
5179
46B8
71C9
DD12
ENDCHAR
STARTCHAR U+2577
ENCODING 9591
SWIDTH 500 0
DWIDTH 16 0
BBX 16 32 0 -8
BITMAP
8C64
0C3F
A4CC
9753
53B6
F835
473D
4A59
B6FF
40A1
6AAA
0CF5
6BD8
C89C
3857
3D03
D28E
ED87
E730
1123
A4DC
5447
F414
3D27
777D
FC6D
BFD3
E5D2
2174
647D
A4EF
4A29
ENDCHAR
STARTCHAR U+2578
ENCODING 9592
SWIDTH 500 0
DWIDTH 16 0
BBX 16 32 0 -8
BITMAP
4243
E17B
293B
0472
9DEE
4474
46C3
6735
95F9
92A2
779C
98D6
BC14
A103
8290
BBB4
262D
35DF
BF5D
4719
C6C6
91AA
0E42
AE14
9A20
532D
7A37
6972
902F
0D5A
D064
5EA3
ENDCHAR
STARTCHAR U+2579
ENCODING 9593
SWIDTH 500 0
DWIDTH 16 0
BBX 16 32 0 -8
BITMAP
EE71
59D7
727F
C610
725A
FDE2
653A
2B26
3A45
7931
5704
8A3E
46A4
5D7E
B42E
5277
EF09
429C
5526
3F78
07B2
93A9
9C4B
94B4
E46B
F720
57F5
6F3B
35EA
19DC
8796
746C
ENDCHAR
STARTCHAR U+257A
ENCODING 9594
SWIDTH 500 0
DWIDTH 16 0
BBX 16 32 0 -8
BITMAP
C83B
E585
0DC1
A4DC
79B3
59B0
EC20
5385
1A78
778E
C561
36BB
9A4F
F6B3
57EE
1BA5
D1B1
80FE
468E
F957
3AFE
8E61
F737
074F
4F07
1BBA
E551
D903
E554
D7A7
3FE7
4917
ENDCHAR
STARTCHAR U+257B
ENCODING 9595
SWIDTH 500 0
DWIDTH 16 0
BBX 16 32 0 -8
BITMAP
4F25
68D4
3619
9DBE
3312
34C3
4747
A684
5A19
39B1
803C
7B89
DF92
D810
BEDB
161A
5AAA
55AC
C612
0ED5
1440
7984
A51E
D5A2
1053
BC69
B3B0
96E4
549B
2800
41A9
8E3A
ENDCHAR
STARTCHAR U+257C
ENCODING 9596
SWIDTH 500 0
DWIDTH 16 0
BBX 16 32 0 -8
BITMAP
0327
501D
CD27
511B
DFC3
2AB5
BF4F
3EF3
80A0
7577
B57D
8B94
CC32
1A5B
8F7D
A850
DF87
B4A8
B65D
5124
4C15
7819
2707
1381
30F3
18FE
C686
CC02
CAAC
E83A
557E
5FC6
ENDCHAR
STARTCHAR U+257D
ENCODING 9597
SWIDTH 500 0
DWIDTH 16 0
BBX 16 32 0 -8
BITMAP
C9DF
9631
13E0
5C1C
65AA
AD32
6BC0
375B
40D1
60C2
ECD6
052B
8FE3
920A
3AA8
3DE9
AB7C
1673
8E0E
ADDC
52C4
775B
09B3
DD50
2565
0092
FFA4
9045
4A33
CA86
4383
8000
ENDCHAR
STARTCHAR U+257E
ENCODING 9598
SWIDTH 500 0
DWIDTH 16 0
BBX 16 32 0 -8
BITMAP
8F1C
D2AC
5709
2DCF
BF4C
9EB7
3BE5
E7A1
7536
429D
6CDB
E9EE
6D30
7C58
18A3
0EFB
C08F
B2E9
0FC6
1C89
1C0E
B33F
2D00
7856
D033
188B
F8DA
1F4A
CF13
2B21
7C96
D9A4
ENDCHAR
STARTCHAR U+257F
ENCODING 9599
SWIDTH 500 0
DWIDTH 16 0
BBX 16 32 0 -8
BITMAP
6E97
D51C
4FF5
11BB
BBA7
B456
65A1
4760
315A
1B8C
88B2
94B4
FC32
08B2
3562
7917
F8D1
25BF
94BD
5DA2
CCC5
F160
5EC2
8374
69DB
3FA9
BD9A
58BC
9F8E
DC25
F320
1406
ENDCHAR
STARTCHAR U+2580
ENCODING 9600
SWIDTH 500 0
DWIDTH 16 0
BBX 16 32 0 -8
BITMAP
FFFF
FFFF
FFFF
FFFF
FFFF
FFFF
FFFF
FFFF
FFFF
FFFF
FFFF
FFFF
FFFF
FFFF
FFFF
FFFF
0000
0000
0000
0000
0000
0000
0000
0000
0000
0000
0000
0000
0000
0000
0000
0000
ENDCHAR
STARTCHAR U+2581
ENCODING 9601
SWIDTH 500 0
DWIDTH 16 0
BBX 16 32 0 -8
BITMAP
FDB6
FBC7
6F5A
FE24
BF51
22EE
7209
FC26
5CF3
B914
7D89
8548
6DFD
295B
B331
D48F
3AE7
7DE8
60E4
73F8
8DA8
F789
D6C1
A832
FBB5
2905
B431
BF07
7F75
E975
6D86
540B
ENDCHAR
STARTCHAR U+2582
ENCODING 9602
SWIDTH 500 0
DWIDTH 16 0
BBX 16 32 0 -8
BITMAP
1FC0
7212
B8CA
725A
6317
B1D5
E589
23AD
F743
C0AB
00E2
BC12
3ACB
F174
B9B5
E0D9
4746
ADF4
73E8
60E4
ADDD
6FEF
0818
3257
1344
6755
D163
A93C
4352
2245
2C82
F9D9
ENDCHAR
STARTCHAR U+2583
ENCODING 9603
SWIDTH 500 0
DWIDTH 16 0
BBX 16 32 0 -8
BITMAP
F64D
964D
08D6
7771
A6E3
C1A4
7951
965A
2754
7146
DC4E
4720
8454
1290
7E32
11EC
B586
9657
7C90
F3FA
30A2
3DBD
AA39
325D
544F
48B3
F50E
43EB
6A57
4206
43B1
4478
ENDCHAR
STARTCHAR U+2584
ENCODING 9604
SWIDTH 500 0
DWIDTH 16 0
BBX 16 32 0 -8
BITMAP
0000
0000
0000
0000
0000
0000
0000
0000
0000
0000
0000
0000
0000
0000
0000
0000
FFFF
FFFF
FFFF
FFFF
FFFF
FFFF
FFFF
FFFF
FFFF
FFFF
FFFF
FFFF
FFFF
FFFF
FFFF
FFFF
ENDCHAR
STARTCHAR U+2585
ENCODING 9605
SWIDTH 500 0
DWIDTH 16 0
BBX 16 32 0 -8
BITMAP
C489
2F07
CF33
5C6C
84C3
E38B
7A44
3940
8296
A4FC
8B04
FE6A
2AD2
F010
FA31
1DDD
3A78
5BAA
347E
ACCD
CAD9
BA52
9658
CC17
933D
AD1B
838D
CEBE
C213
7AB9
F2B0
D315
ENDCHAR
STARTCHAR U+2586
ENCODING 9606
SWIDTH 500 0
DWIDTH 16 0
BBX 16 32 0 -8
BITMAP
25D0
5098
5831
2F7D
0644
3337
DA7B
A041
D73A
3880
5719
7E73
6680
D0D3
2165
034A
0FE3
A5C0
7D5B
E944
62A3
A718
9C47
819F
A74C
853B
B5EC
17C3
2296
B519
F571
96A4
ENDCHAR
STARTCHAR U+2587
ENCODING 9607
SWIDTH 500 0
DWIDTH 16 0
BBX 16 32 0 -8
BITMAP
505D
8D80
EF61
6AD6
D3AE
72B1
DE0E
B075
BEE0
45FD
9813
75A8
C281
EAF6
103A
C7B0
71DA
D607
9FA3
91FB
B13A
C0F2
016C
3ABE
9FB6
C76E
3423
42DE
9EBB
0205
683B
6651
ENDCHAR
STARTCHAR U+2588
ENCODING 9608
SWIDTH 500 0
DWIDTH 16 0
BBX 16 32 0 -8
BITMAP
FFFF
FFFF
FFFF
FFFF
FFFF
FFFF
FFFF
FFFF
FFFF
FFFF
FFFF
FFFF
FFFF
FFFF
FFFF
FFFF
FFFF
FFFF
FFFF
FFFF
FFFF
FFFF
FFFF
FFFF
FFFF
FFFF
FFFF
FFFF
FFFF
FFFF
FFFF
FFFF
ENDCHAR
STARTCHAR U+2589
ENCODING 9609
SWIDTH 500 0
DWIDTH 16 0
BBX 16 32 0 -8
BITMAP
271D
72C9
1B22
4004
E23A
D545
8CC7
FC13
9562
F145
D9AB
1220
DD5D
BFAB
FC73
B909
8D37
C488
652F
6F24
F3E3
120E
836B
B156
8F85
BBF2
F43F
3493
820F
9F49
0365
DB5C
ENDCHAR
STARTCHAR U+258A
ENCODING 9610
SWIDTH 500 0
DWIDTH 16 0
BBX 16 32 0 -8
BITMAP
3C14
F091
D5D8
9D65
A3E2
34A3
A28C
FAB9
A13E
F380
F293
E11E
12C8
8875
0E2F
B484
79CF
0503
145A
6E31
AA8D
E1E8
A781
A558
C8B6
D753
FABD
1396
569A
2C62
467E
D2B5
ENDCHAR
STARTCHAR U+258B
ENCODING 9611
SWIDTH 500 0
DWIDTH 16 0
BBX 16 32 0 -8
BITMAP
4694
D521
DF53
86F7
45F1
6DC6
A533
2604
0837
FABD
F11E
BE5A
B8A2
69EB
0C6F
12DE
89B4
6E4D
E340
ECC9
6184
102D
1082
A22B
D82C
A2CB
B388
A248
5702
C4BC
B301
BE54
ENDCHAR
STARTCHAR U+258C
ENCODING 9612
SWIDTH 500 0
DWIDTH 16 0
BBX 16 32 0 -8
BITMAP
A23E
7377
8CB7
D1C8
17D8
640B
65D7
65F1
5466
E418
FD96
8406
EEDA
4143
70F1
D246
02E8
4F43
BDB0
9575
49AD
65D2
9D0A
345A
1FE7
5F12
0589
DA1E
C4D0
6A19
97F0
DDAC
ENDCHAR
STARTCHAR U+258D
ENCODING 9613
SWIDTH 500 0
DWIDTH 16 0
BBX 16 32 0 -8
BITMAP
814E
8A06
24B1
0F62
3A88
89E5
F7BC
FF19
DAB2
22D0
294C
BE1F
4172
5861
4B04
6108
B8D9
DCDA
D442
2361
32F2
C712
15E8
53F9
32E0
D022
932A
A39C
BFD1
47AD
0575
D5B5
ENDCHAR
STARTCHAR U+258E
ENCODING 9614
SWIDTH 500 0
DWIDTH 16 0
BBX 16 32 0 -8
BITMAP
9B28
2313
9FFE
EC31
8147
7851
EC90
77DD
A207
D6CB
D5E6
25A8
35CD
9568
F830
2F6B
044B
73B0
E0A0
17F3
EB68
0A3B
11F9
8ACC
564C
7644
83F1
4413
82F7
B206
AE74
FA62
ENDCHAR
STARTCHAR U+258F
ENCODING 9615
SWIDTH 500 0
DWIDTH 16 0
BBX 16 32 0 -8
BITMAP
5B94
D54A
C68F
E8BA
9729
041E
2566
C70B
884D
4C80
3456
944A
26C4
B2A1
6E89
617F
EBEC
F2DB
EC02
3596
B5AF
EB0C
AB33
9E2D
2247
0285
7212
41B9
F1EE
A072
96AD
8F3B
ENDCHAR
STARTCHAR U+2590
ENCODING 9616
SWIDTH 500 0
DWIDTH 16 0
BBX 16 32 0 -8
BITMAP
EDCB
3A7C
B5AD
8624
A17E
EFCD
54C4
3D85
2486
CB78
1649
D47D
E834
F0E1
ED25
8025
B35D
EAB8
A234
7461
FFFC
D6A9
6246
2380
0996
CB32
3B9D
A5B7
EFB8
D0E0
88FB
B684
ENDCHAR
STARTCHAR U+2591
ENCODING 9617
SWIDTH 500 0
DWIDTH 16 0
BBX 16 32 0 -8
BITMAP
C0FC
FD68
44B2
8D1A
8EAA
5D92
FB1B
537D
CA2E
34CB
A1C3
4839
FF9E
3D52
5009
BDB1
7098
E5E4
27F8
BA35
F0E0
9618
11D9
6B6F
DC54
90DD
13C0
C44A
29B8
3AA2
B19B
38BF
ENDCHAR
STARTCHAR U+2592
ENCODING 9618
SWIDTH 500 0
DWIDTH 16 0
BBX 16 32 0 -8
BITMAP
74FF
07FA
E491
78EE
8415
3DD5
09DA
919B
BA35
AAA7
FBF7
FF32
8C2C
9728
F726
77D0
989E
8D2D
E3DF
FD10
DEFB
0672
7836
2339
BF3F
5FFC
4A55
5EF8
FC01
6688
400C
6CDE
ENDCHAR
STARTCHAR U+2593
ENCODING 9619
SWIDTH 500 0
DWIDTH 16 0
BBX 16 32 0 -8
BITMAP
E22A
E929
692A
5D05
E93B
7D9C
07B2
8248
FD1C
D549
21B6
2ADA
B8A1
AE3A
8597
5885
F30E
C7DE
93C9
1E0D
87DB
08BC
111D
494F
E408
0C73
9167
8C48
AE78
3AFA
BF96
C61B
ENDCHAR
STARTCHAR U+2594
ENCODING 9620
SWIDTH 500 0
DWIDTH 16 0
BBX 16 32 0 -8
BITMAP
32FE
F32E
3833
77CA
8363
D66F
666A
0B1C
E5C4
3329
4772
3A2F
F5CF
5C56
6D53
6826
B922
87EF
E416
2D0B
8D69
A7AB
9B1D
0765
AB57
BAB2
5E51
4A4A
EA51
3156
3047
AC2D
ENDCHAR
STARTCHAR U+2595
ENCODING 9621
SWIDTH 500 0
DWIDTH 16 0
BBX 16 32 0 -8
BITMAP
404B
BEE7
6860
2B83
5F67
B0F7
77B6
CD33
1484
C739
0971
35C2
A31B
BEC8
FD84
857C
B426
9A7B
A73C
58EB
B983
6042
6CF1
97B6
52B0
A03F
6FAD
9E88
E095
121F
7318
7D0D
ENDCHAR
STARTCHAR U+2596
ENCODING 9622
SWIDTH 500 0
DWIDTH 16 0
BBX 16 32 0 -8
BITMAP
88A9
2402
12BB
B4C1
D545
D01E
A61B
B755
2A08
8A84
E1B1
1D18
7B00
AEBF
C1B0
A39F
08DF
CFB8
1F16
3B49
2776
97F0
1EA0
5CB9
6549
C1D0
3DCA
3755
0188
58DA
7D13
DF00
ENDCHAR
STARTCHAR U+2597
ENCODING 9623
SWIDTH 500 0
DWIDTH 16 0
BBX 16 32 0 -8
BITMAP
3653
FB67
4C36
96B3
F393
E34C
8B4D
3ECB
1E79
94CE
E4F7
F810
B3AF
8C61
D5DF
B739
EA43
B1EC
EA9F
AF21
F1C1
D272
36D7
7501
5ACA
DD4C
FD91
43DA
8949
E022
8B19
78ED
ENDCHAR
STARTCHAR U+2598
ENCODING 9624
SWIDTH 500 0
DWIDTH 16 0
BBX 16 32 0 -8
BITMAP
B249
163F
40A5
AAC0
B49B
7084
6223
4784
D558
9DBD
5596
1B7F
B6A3
D3AA
AA7E
A5D5
46AA
9F91
7FE5
7162
90F5
5313
B9A0
DDEB
FE3B
95BE
E28E
9222
32A5
78ED
1CFC
8FF7
ENDCHAR
STARTCHAR U+2599
ENCODING 9625
SWIDTH 500 0
DWIDTH 16 0
BBX 16 32 0 -8
BITMAP
3FBF
B0C2
8897
BB69
E7D9
B759
B825
41A9
70D8
21CE
1A75
97C7
EBC7
8B3F
F99E
7293
2518
10A4
92AB
6C13
A83E
4173
635D
BD03
6F8C
865E
4C2D
DBBC
B54D
22F6
7E62
6D1D
ENDCHAR
STARTCHAR U+259A
ENCODING 9626
SWIDTH 500 0
DWIDTH 16 0
BBX 16 32 0 -8
BITMAP
CDF2
F794
DF58
8D25
B32A
DFAF
7BC9
CE13
E542
D98B
2C28
91A1
3E44
9086
0574
DE83
E758
03EB
5BD9
DB62
F1B6
B49E
E235
28E0
E998
7A89
E4D0
C998
30CD
70BC
8675
C2A3
ENDCHAR
STARTCHAR U+259B
ENCODING 9627
SWIDTH 500 0
DWIDTH 16 0
BBX 16 32 0 -8
BITMAP
920D
40C8
1A6E
6374
1D68
3D60
C2C4
0CA2
2FB5
7794
1EF7
FD58
D75B
4764
BA6E
C450
BD3A
7C1F
DBD2
19FD
82E9
86DA
6957
E910
3D37
AF28
42E3
8492
CC4E
2F70
214D
F759
ENDCHAR
STARTCHAR U+259C
ENCODING 9628
SWIDTH 500 0
DWIDTH 16 0
BBX 16 32 0 -8
BITMAP
E4EE
DB98
1F92
8162
7E6F
2E94
9CB8
CB0D
74C1
F3BF
EE4A
D2C6
8105
8C4A
4C3B
8545
989A
7245
0921
C345
9A08
F653
D503
5963
020E
53D9
BCDF
D137
3431
C2E0
8FD4
FA35
ENDCHAR
STARTCHAR U+259D
ENCODING 9629
SWIDTH 500 0
DWIDTH 16 0
BBX 16 32 0 -8
BITMAP
9D74
8B44
7313
4081
DD50
8B1C
0FC8
059A
09A0
4E95
B746
038F
2849
4F48
94F2
B9C5
377F
4C93
13E2
BBE7
4C06
695F
5495
C3B1
EC99
24DF
571A
9B68
D75F
27B2
D6CA
1AA3
ENDCHAR
STARTCHAR U+259E
ENCODING 9630
SWIDTH 500 0
DWIDTH 16 0
BBX 16 32 0 -8
BITMAP
2D7E
8FF6
7D40
854C
AB2E
B642
01BF
AFB8
DC8A
42CC
6FCA
88DE
515B
AACB
DB44
FA15
B03D
E8B0
2C9A
7F30
BD0B
6189
03D3
D33D
7E19
A027
0C98
ECDA
DA48
6423
D38E
FAF4
ENDCHAR
STARTCHAR U+259F
ENCODING 9631
SWIDTH 500 0
DWIDTH 16 0
BBX 16 32 0 -8
BITMAP
61B1
7A19
E30E
9394
1E3B
79A5
DE26
99D4
FCF7
51E3
488D
8EBE
2701
F4C6
54F3
015B
FB0A
2826
8AEC
8374
B493
794D
3C30
C4C5
775D
705A
D879
591E
19EB
262C
1636
141E
ENDCHAR
STARTCHAR U+EE00
ENCODING 60928
SWIDTH 500 0
DWIDTH 16 0
BBX 16 32 0 -8
BITMAP
0000
0000
0000
0000
0000
0000
0000
0000
0000
0000
0000
0000
0000
0000
0000
0000
0000
0000
0000
0000
0000
0000
0000
0000
0000
0000
0000
0000
0000
0000
0000
0000
ENDCHAR
STARTCHAR U+EE01
ENCODING 60929
SWIDTH 500 0
DWIDTH 16 0
BBX 16 32 0 -8
BITMAP
0000
0000
0000
0000
0000
0000
0000
0000
0000
0000
0000
0000
0000
0000
0000
0000
0000
0000
0000
0000
0000
0000
0000
0000
00FF
00FF
00FF
00FF
00FF
00FF
00FF
00FF
ENDCHAR
STARTCHAR U+EE02
ENCODING 60930
SWIDTH 500 0
DWIDTH 16 0
BBX 16 32 0 -8
BITMAP
0000
0000
0000
0000
0000
0000
0000
0000
0000
0000
0000
0000
0000
0000
0000
0000
0000
0000
0000
0000
0000
0000
0000
0000
FF00
FF00
FF00
FF00
FF00
FF00
FF00
FF00
ENDCHAR
STARTCHAR U+EE03
ENCODING 60931
SWIDTH 500 0
DWIDTH 16 0
BBX 16 32 0 -8
BITMAP
0000
0000
0000
0000
0000
0000
0000
0000
0000
0000
0000
0000
0000
0000
0000
0000
0000
0000
0000
0000
0000
0000
0000
0000
FFFF
FFFF
FFFF
FFFF
FFFF
FFFF
FFFF
FFFF
ENDCHAR
STARTCHAR U+EE04
ENCODING 60932
SWIDTH 500 0
DWIDTH 16 0
BBX 16 32 0 -8
BITMAP
0000
0000
0000
0000
0000
0000
0000
0000
0000
0000
0000
0000
0000
0000
0000
0000
00FF
00FF
00FF
00FF
00FF
00FF
00FF
00FF
0000
0000
0000
0000
0000
0000
0000
0000
ENDCHAR
STARTCHAR U+EE05
ENCODING 60933
SWIDTH 500 0
DWIDTH 16 0
BBX 16 32 0 -8
BITMAP
0000
0000
0000
0000
0000
0000
0000
0000
0000
0000
0000
0000
0000
0000
0000
0000
00FF
00FF
00FF
00FF
00FF
00FF
00FF
00FF
00FF
00FF
00FF
00FF
00FF
00FF
00FF
00FF
ENDCHAR
STARTCHAR U+EE06
ENCODING 60934
SWIDTH 500 0
DWIDTH 16 0
BBX 16 32 0 -8
BITMAP
0000
0000
0000
0000
0000
0000
0000
0000
0000
0000
0000
0000
0000
0000
0000
0000
00FF
00FF
00FF
00FF
00FF
00FF
00FF
00FF
FF00
FF00
FF00
FF00
FF00
FF00
FF00
FF00
ENDCHAR
STARTCHAR U+EE07
ENCODING 60935
SWIDTH 500 0
DWIDTH 16 0
BBX 16 32 0 -8
BITMAP
0000
0000
0000
0000
0000
0000
0000
0000
0000
0000
0000
0000
0000
0000
0000
0000
00FF
00FF
00FF
00FF
00FF
00FF
00FF
00FF
FFFF
FFFF
FFFF
FFFF
FFFF
FFFF
FFFF
FFFF
ENDCHAR
STARTCHAR U+EE08
ENCODING 60936
SWIDTH 500 0
DWIDTH 16 0
BBX 16 32 0 -8
BITMAP
0000
0000
0000
0000
0000
0000
0000
0000
0000
0000
0000
0000
0000
0000
0000
0000
FF00
FF00
FF00
FF00
FF00
FF00
FF00
FF00
0000
0000
0000
0000
0000
0000
0000
0000
ENDCHAR
STARTCHAR U+EE09
ENCODING 60937
SWIDTH 500 0
DWIDTH 16 0
BBX 16 32 0 -8
BITMAP
0000
0000
0000
0000
0000
0000
0000
0000
0000
0000
0000
0000
0000
0000
0000
0000
FF00
FF00
FF00
FF00
FF00
FF00
FF00
FF00
00FF
00FF
00FF
00FF
00FF
00FF
00FF
00FF
ENDCHAR
STARTCHAR U+EE0A
ENCODING 60938
SWIDTH 500 0
DWIDTH 16 0
BBX 16 32 0 -8
BITMAP
0000
0000
0000
0000
0000
0000
0000
0000
0000
0000
0000
0000
0000
0000
0000
0000
FF00
FF00
FF00
FF00
FF00
FF00
FF00
FF00
FF00
FF00
FF00
FF00
FF00
FF00
FF00
FF00
ENDCHAR
STARTCHAR U+EE0B
ENCODING 60939
SWIDTH 500 0
DWIDTH 16 0
BBX 16 32 0 -8
BITMAP
0000
0000
0000
0000
0000
0000
0000
0000
0000
0000
0000
0000
0000
0000
0000
0000
FF00
FF00
FF00
FF00
FF00
FF00
FF00
FF00
FFFF
FFFF
FFFF
FFFF
FFFF
FFFF
FFFF
FFFF
ENDCHAR
STARTCHAR U+EE0C
ENCODING 60940
SWIDTH 500 0
DWIDTH 16 0
BBX 16 32 0 -8
BITMAP
0000
0000
0000
0000
0000
0000
0000
0000
0000
0000
0000
0000
0000
0000
0000
0000
FFFF
FFFF
FFFF
FFFF
FFFF
FFFF
FFFF
FFFF
0000
0000
0000
0000
0000
0000
0000
0000
ENDCHAR
STARTCHAR U+EE0D
ENCODING 60941
SWIDTH 500 0
DWIDTH 16 0
BBX 16 32 0 -8
BITMAP
0000
0000
0000
0000
0000
0000
0000
0000
0000
0000
0000
0000
0000
0000
0000
0000
FFFF
FFFF
FFFF
FFFF
FFFF
FFFF
FFFF
FFFF
00FF
00FF
00FF
00FF
00FF
00FF
00FF
00FF
ENDCHAR
STARTCHAR U+EE0E
ENCODING 60942
SWIDTH 500 0
DWIDTH 16 0
BBX 16 32 0 -8
BITMAP
0000
0000
0000
0000
0000
0000
0000
0000
0000
0000
0000
0000
0000
0000
0000
0000
FFFF
FFFF
FFFF
FFFF
FFFF
FFFF
FFFF
FFFF
FF00
FF00
FF00
FF00
FF00
FF00
FF00
FF00
ENDCHAR
STARTCHAR U+EE0F
ENCODING 60943
SWIDTH 500 0
DWIDTH 16 0
BBX 16 32 0 -8
BITMAP
0000
0000
0000
0000
0000
0000
0000
0000
0000
0000
0000
0000
0000
0000
0000
0000
FFFF
FFFF
FFFF
FFFF
FFFF
FFFF
FFFF
FFFF
FFFF
FFFF
FFFF
FFFF
FFFF
FFFF
FFFF
FFFF
ENDCHAR
STARTCHAR U+EE10
ENCODING 60944
SWIDTH 500 0
DWIDTH 16 0
BBX 16 32 0 -8
BITMAP
0000
0000
0000
0000
0000
0000
0000
0000
00FF
00FF
00FF
00FF
00FF
00FF
00FF
00FF
0000
0000
0000
0000
0000
0000
0000
0000
0000
0000
0000
0000
0000
0000
0000
0000
ENDCHAR
STARTCHAR U+EE11
ENCODING 60945
SWIDTH 500 0
DWIDTH 16 0
BBX 16 32 0 -8
BITMAP
0000
0000
0000
0000
0000
0000
0000
0000
00FF
00FF
00FF
00FF
00FF
00FF
00FF
00FF
0000
0000
0000
0000
0000
0000
0000
0000
00FF
00FF
00FF
00FF
00FF
00FF
00FF
00FF
ENDCHAR
STARTCHAR U+EE12
ENCODING 60946
SWIDTH 500 0
DWIDTH 16 0
BBX 16 32 0 -8
BITMAP
0000
0000
0000
0000
0000
0000
0000
0000
00FF
00FF
00FF
00FF
00FF
00FF
00FF
00FF
0000
0000
0000
0000
0000
0000
0000
0000
FF00
FF00
FF00
FF00
FF00
FF00
FF00
FF00
ENDCHAR
STARTCHAR U+EE13
ENCODING 60947
SWIDTH 500 0
DWIDTH 16 0
BBX 16 32 0 -8
BITMAP
0000
0000
0000
0000
0000
0000
0000
0000
00FF
00FF
00FF
00FF
00FF
00FF
00FF
00FF
0000
0000
0000
0000
0000
0000
0000
0000
FFFF
FFFF
FFFF
FFFF
FFFF
FFFF
FFFF
FFFF
ENDCHAR
STARTCHAR U+EE14
ENCODING 60948
SWIDTH 500 0
DWIDTH 16 0
BBX 16 32 0 -8
BITMAP
0000
0000
0000
0000
0000
0000
0000
0000
00FF
00FF
00FF
00FF
00FF
00FF
00FF
00FF
00FF
00FF
00FF
00FF
00FF
00FF
00FF
00FF
0000
0000
0000
0000
0000
0000
0000
0000
ENDCHAR
STARTCHAR U+EE15
ENCODING 60949
SWIDTH 500 0
DWIDTH 16 0
BBX 16 32 0 -8
BITMAP
0000
0000
0000
0000
0000
0000
0000
0000
00FF
00FF
00FF
00FF
00FF
00FF
00FF
00FF
00FF
00FF
00FF
00FF
00FF
00FF
00FF
00FF
00FF
00FF
00FF
00FF
00FF
00FF
00FF
00FF
ENDCHAR
STARTCHAR U+EE16
ENCODING 60950
SWIDTH 500 0
DWIDTH 16 0
BBX 16 32 0 -8
BITMAP
0000
0000
0000
0000
0000
0000
0000
0000
00FF
00FF
00FF
00FF
00FF
00FF
00FF
00FF
00FF
00FF
00FF
00FF
00FF
00FF
00FF
00FF
FF00
FF00
FF00
FF00
FF00
FF00
FF00
FF00
ENDCHAR
STARTCHAR U+EE17
ENCODING 60951
SWIDTH 500 0
DWIDTH 16 0
BBX 16 32 0 -8
BITMAP
0000
0000
0000
0000
0000
0000
0000
0000
00FF
00FF
00FF
00FF
00FF
00FF
00FF
00FF
00FF
00FF
00FF
00FF
00FF
00FF
00FF
00FF
FFFF
FFFF
FFFF
FFFF
FFFF
FFFF
FFFF
FFFF
ENDCHAR
STARTCHAR U+EE18
ENCODING 60952
SWIDTH 500 0
DWIDTH 16 0
BBX 16 32 0 -8
BITMAP
0000
0000
0000
0000
0000
0000
0000
0000
00FF
00FF
00FF
00FF
00FF
00FF
00FF
00FF
FF00
FF00
FF00
FF00
FF00
FF00
FF00
FF00
0000
0000
0000
0000
0000
0000
0000
0000
ENDCHAR
STARTCHAR U+EE19
ENCODING 60953
SWIDTH 500 0
DWIDTH 16 0
BBX 16 32 0 -8
BITMAP
0000
0000
0000
0000
0000
0000
0000
0000
00FF
00FF
00FF
00FF
00FF
00FF
00FF
00FF
FF00
FF00
FF00
FF00
FF00
FF00
FF00
FF00
00FF
00FF
00FF
00FF
00FF
00FF
00FF
00FF
ENDCHAR
STARTCHAR U+EE1A
ENCODING 60954
SWIDTH 500 0
DWIDTH 16 0
BBX 16 32 0 -8
BITMAP
0000
0000
0000
0000
0000
0000
0000
0000
00FF
00FF
00FF
00FF
00FF
00FF
00FF
00FF
FF00
FF00
FF00
FF00
FF00
FF00
FF00
FF00
FF00
FF00
FF00
FF00
FF00
FF00
FF00
FF00
ENDCHAR
STARTCHAR U+EE1B
ENCODING 60955
SWIDTH 500 0
DWIDTH 16 0
BBX 16 32 0 -8
BITMAP
0000
0000
0000
0000
0000
0000
0000
0000
00FF
00FF
00FF
00FF
00FF
00FF
00FF
00FF
FF00
FF00
FF00
FF00
FF00
FF00
FF00
FF00
FFFF
FFFF
FFFF
FFFF
FFFF
FFFF
FFFF
FFFF
ENDCHAR
STARTCHAR U+EE1C
ENCODING 60956
SWIDTH 500 0
DWIDTH 16 0
BBX 16 32 0 -8
BITMAP
0000
0000
0000
0000
0000
0000
0000
0000
00FF
00FF
00FF
00FF
00FF
00FF
00FF
00FF
FFFF
FFFF
FFFF
FFFF
FFFF
FFFF
FFFF
FFFF
0000
0000
0000
0000
0000
0000
0000
0000
ENDCHAR
STARTCHAR U+EE1D
ENCODING 60957
SWIDTH 500 0
DWIDTH 16 0
BBX 16 32 0 -8
BITMAP
0000
0000
0000
0000
0000
0000
0000
0000
00FF
00FF
00FF
00FF
00FF
00FF
00FF
00FF
FFFF
FFFF
FFFF
FFFF
FFFF
FFFF
FFFF
FFFF
00FF
00FF
00FF
00FF
00FF
00FF
00FF
00FF
ENDCHAR
STARTCHAR U+EE1E
ENCODING 60958
SWIDTH 500 0
DWIDTH 16 0
BBX 16 32 0 -8
BITMAP
0000
0000
0000
0000
0000
0000
0000
0000
00FF
00FF
00FF
00FF
00FF
00FF
00FF
00FF
FFFF
FFFF
FFFF
FFFF
FFFF
FFFF
FFFF
FFFF
FF00
FF00
FF00
FF00
FF00
FF00
FF00
FF00
ENDCHAR
STARTCHAR U+EE1F
ENCODING 60959
SWIDTH 500 0
DWIDTH 16 0
BBX 16 32 0 -8
BITMAP
0000
0000
0000
0000
0000
0000
0000
0000
00FF
00FF
00FF
00FF
00FF
00FF
00FF
00FF
FFFF
FFFF
FFFF
FFFF
FFFF
FFFF
FFFF
FFFF
FFFF
FFFF
FFFF
FFFF
FFFF
FFFF
FFFF
FFFF
ENDCHAR
STARTCHAR U+EE20
ENCODING 60960
SWIDTH 500 0
DWIDTH 16 0
BBX 16 32 0 -8
BITMAP
0000
0000
0000
0000
0000
0000
0000
0000
FF00
FF00
FF00
FF00
FF00
FF00
FF00
FF00
0000
0000
0000
0000
0000
0000
0000
0000
0000
0000
0000
0000
0000
0000
0000
0000
ENDCHAR
STARTCHAR U+EE21
ENCODING 60961
SWIDTH 500 0
DWIDTH 16 0
BBX 16 32 0 -8
BITMAP
0000
0000
0000
0000
0000
0000
0000
0000
FF00
FF00
FF00
FF00
FF00
FF00
FF00
FF00
0000
0000
0000
0000
0000
0000
0000
0000
00FF
00FF
00FF
00FF
00FF
00FF
00FF
00FF
ENDCHAR
STARTCHAR U+EE22
ENCODING 60962
SWIDTH 500 0
DWIDTH 16 0
BBX 16 32 0 -8
BITMAP
0000
0000
0000
0000
0000
0000
0000
0000
FF00
FF00
FF00
FF00
FF00
FF00
FF00
FF00
0000
0000
0000
0000
0000
0000
0000
0000
FF00
FF00
FF00
FF00
FF00
FF00
FF00
FF00
ENDCHAR
STARTCHAR U+EE23
ENCODING 60963
SWIDTH 500 0
DWIDTH 16 0
BBX 16 32 0 -8
BITMAP
0000
0000
0000
0000
0000
0000
0000
0000
FF00
FF00
FF00
FF00
FF00
FF00
FF00
FF00
0000
0000
0000
0000
0000
0000
0000
0000
FFFF
FFFF
FFFF
FFFF
FFFF
FFFF
FFFF
FFFF
ENDCHAR
STARTCHAR U+EE24
ENCODING 60964
SWIDTH 500 0
DWIDTH 16 0
BBX 16 32 0 -8
BITMAP
0000
0000
0000
0000
0000
0000
0000
0000
FF00
FF00
FF00
FF00
FF00
FF00
FF00
FF00
00FF
00FF
00FF
00FF
00FF
00FF
00FF
00FF
0000
0000
0000
0000
0000
0000
0000
0000
ENDCHAR
STARTCHAR U+EE25
ENCODING 60965
SWIDTH 500 0
DWIDTH 16 0
BBX 16 32 0 -8
BITMAP
0000
0000
0000
0000
0000
0000
0000
0000
FF00
FF00
FF00
FF00
FF00
FF00
FF00
FF00
00FF
00FF
00FF
00FF
00FF
00FF
00FF
00FF
00FF
00FF
00FF
00FF
00FF
00FF
00FF
00FF
ENDCHAR
STARTCHAR U+EE26
ENCODING 60966
SWIDTH 500 0
DWIDTH 16 0
BBX 16 32 0 -8
BITMAP
0000
0000
0000
0000
0000
0000
0000
0000
FF00
FF00
FF00
FF00
FF00
FF00
FF00
FF00
00FF
00FF
00FF
00FF
00FF
00FF
00FF
00FF
FF00
FF00
FF00
FF00
FF00
FF00
FF00
FF00
ENDCHAR
STARTCHAR U+EE27
ENCODING 60967
SWIDTH 500 0
DWIDTH 16 0
BBX 16 32 0 -8
BITMAP
0000
0000
0000
0000
0000
0000
0000
0000
FF00
FF00
FF00
FF00
FF00
FF00
FF00
FF00
00FF
00FF
00FF
00FF
00FF
00FF
00FF
00FF
FFFF
FFFF
FFFF
FFFF
FFFF
FFFF
FFFF
FFFF
ENDCHAR
STARTCHAR U+EE28
ENCODING 60968
SWIDTH 500 0
DWIDTH 16 0
BBX 16 32 0 -8
BITMAP
0000
0000
0000
0000
0000
0000
0000
0000
FF00
FF00
FF00
FF00
FF00
FF00
FF00
FF00
FF00
FF00
FF00
FF00
FF00
FF00
FF00
FF00
0000
0000
0000
0000
0000
0000
0000
0000
ENDCHAR
STARTCHAR U+EE29
ENCODING 60969
SWIDTH 500 0
DWIDTH 16 0
BBX 16 32 0 -8
BITMAP
0000
0000
0000
0000
0000
0000
0000
0000
FF00
FF00
FF00
FF00
FF00
FF00
FF00
FF00
FF00
FF00
FF00
FF00
FF00
FF00
FF00
FF00
00FF
00FF
00FF
00FF
00FF
00FF
00FF
00FF
ENDCHAR
STARTCHAR U+EE2A
ENCODING 60970
SWIDTH 500 0
DWIDTH 16 0
BBX 16 32 0 -8
BITMAP
0000
0000
0000
0000
0000
0000
0000
0000
FF00
FF00
FF00
FF00
FF00
FF00
FF00
FF00
FF00
FF00
FF00
FF00
FF00
FF00
FF00
FF00
FF00
FF00
FF00
FF00
FF00
FF00
FF00
FF00
ENDCHAR
STARTCHAR U+EE2B
ENCODING 60971
SWIDTH 500 0
DWIDTH 16 0
BBX 16 32 0 -8
BITMAP
0000
0000
0000
0000
0000
0000
0000
0000
FF00
FF00
FF00
FF00
FF00
FF00
FF00
FF00
FF00
FF00
FF00
FF00
FF00
FF00
FF00
FF00
FFFF
FFFF
FFFF
FFFF
FFFF
FFFF
FFFF
FFFF
ENDCHAR
STARTCHAR U+EE2C
ENCODING 60972
SWIDTH 500 0
DWIDTH 16 0
BBX 16 32 0 -8
BITMAP
0000
0000
0000
0000
0000
0000
0000
0000
FF00
FF00
FF00
FF00
FF00
FF00
FF00
FF00
FFFF
FFFF
FFFF
FFFF
FFFF
FFFF
FFFF
FFFF
0000
0000
0000
0000
0000
0000
0000
0000
ENDCHAR
STARTCHAR U+EE2D
ENCODING 60973
SWIDTH 500 0
DWIDTH 16 0
BBX 16 32 0 -8
BITMAP
0000
0000
0000
0000
0000
0000
0000
0000
FF00
FF00
FF00
FF00
FF00
FF00
FF00
FF00
FFFF
FFFF
FFFF
FFFF
FFFF
FFFF
FFFF
FFFF
00FF
00FF
00FF
00FF
00FF
00FF
00FF
00FF
ENDCHAR
STARTCHAR U+EE2E
ENCODING 60974
SWIDTH 500 0
DWIDTH 16 0
BBX 16 32 0 -8
BITMAP
0000
0000
0000
0000
0000
0000
0000
0000
FF00
FF00
FF00
FF00
FF00
FF00
FF00
FF00
FFFF
FFFF
FFFF
FFFF
FFFF
FFFF
FFFF
FFFF
FF00
FF00
FF00
FF00
FF00
FF00
FF00
FF00
ENDCHAR
STARTCHAR U+EE2F
ENCODING 60975
SWIDTH 500 0
DWIDTH 16 0
BBX 16 32 0 -8
BITMAP
0000
0000
0000
0000
0000
0000
0000
0000
FF00
FF00
FF00
FF00
FF00
FF00
FF00
FF00
FFFF
FFFF
FFFF
FFFF
FFFF
FFFF
FFFF
FFFF
FFFF
FFFF
FFFF
FFFF
FFFF
FFFF
FFFF
FFFF
ENDCHAR
STARTCHAR U+EE30
ENCODING 60976
SWIDTH 500 0
DWIDTH 16 0
BBX 16 32 0 -8
BITMAP
0000
0000
0000
0000
0000
0000
0000
0000
FFFF
FFFF
FFFF
FFFF
FFFF
FFFF
FFFF
FFFF
0000
0000
0000
0000
0000
0000
0000
0000
0000
0000
0000
0000
0000
0000
0000
0000
ENDCHAR
STARTCHAR U+EE31
ENCODING 60977
SWIDTH 500 0
DWIDTH 16 0
BBX 16 32 0 -8
BITMAP
0000
0000
0000
0000
0000
0000
0000
0000
FFFF
FFFF
FFFF
FFFF
FFFF
FFFF
FFFF
FFFF
0000
0000
0000
0000
0000
0000
0000
0000
00FF
00FF
00FF
00FF
00FF
00FF
00FF
00FF
ENDCHAR
STARTCHAR U+EE32
ENCODING 60978
SWIDTH 500 0
DWIDTH 16 0
BBX 16 32 0 -8
BITMAP
0000
0000
0000
0000
0000
0000
0000
0000
FFFF
FFFF
FFFF
FFFF
FFFF
FFFF
FFFF
FFFF
0000
0000
0000
0000
0000
0000
0000
0000
FF00
FF00
FF00
FF00
FF00
FF00
FF00
FF00
ENDCHAR
STARTCHAR U+EE33
ENCODING 60979
SWIDTH 500 0
DWIDTH 16 0
BBX 16 32 0 -8
BITMAP
0000
0000
0000
0000
0000
0000
0000
0000
FFFF
FFFF
FFFF
FFFF
FFFF
FFFF
FFFF
FFFF
0000
0000
0000
0000
0000
0000
0000
0000
FFFF
FFFF
FFFF
FFFF
FFFF
FFFF
FFFF
FFFF
ENDCHAR
STARTCHAR U+EE34
ENCODING 60980
SWIDTH 500 0
DWIDTH 16 0
BBX 16 32 0 -8
BITMAP
0000
0000
0000
0000
0000
0000
0000
0000
FFFF
FFFF
FFFF
FFFF
FFFF
FFFF
FFFF
FFFF
00FF
00FF
00FF
00FF
00FF
00FF
00FF
00FF
0000
0000
0000
0000
0000
0000
0000
0000
ENDCHAR
STARTCHAR U+EE35
ENCODING 60981
SWIDTH 500 0
DWIDTH 16 0
BBX 16 32 0 -8
BITMAP
0000
0000
0000
0000
0000
0000
0000
0000
FFFF
FFFF
FFFF
FFFF
FFFF
FFFF
FFFF
FFFF
00FF
00FF
00FF
00FF
00FF
00FF
00FF
00FF
00FF
00FF
00FF
00FF
00FF
00FF
00FF
00FF
ENDCHAR
STARTCHAR U+EE36
ENCODING 60982
SWIDTH 500 0
DWIDTH 16 0
BBX 16 32 0 -8
BITMAP
0000
0000
0000
0000
0000
0000
0000
0000
FFFF
FFFF
FFFF
FFFF
FFFF
FFFF
FFFF
FFFF
00FF
00FF
00FF
00FF
00FF
00FF
00FF
00FF
FF00
FF00
FF00
FF00
FF00
FF00
FF00
FF00
ENDCHAR
STARTCHAR U+EE37
ENCODING 60983
SWIDTH 500 0
DWIDTH 16 0
BBX 16 32 0 -8
BITMAP
0000
0000
0000
0000
0000
0000
0000
0000
FFFF
FFFF
FFFF
FFFF
FFFF
FFFF
FFFF
FFFF
00FF
00FF
00FF
00FF
00FF
00FF
00FF
00FF
FFFF
FFFF
FFFF
FFFF
FFFF
FFFF
FFFF
FFFF
ENDCHAR
STARTCHAR U+EE38
ENCODING 60984
SWIDTH 500 0
DWIDTH 16 0
BBX 16 32 0 -8
BITMAP
0000
0000
0000
0000
0000
0000
0000
0000
FFFF
FFFF
FFFF
FFFF
FFFF
FFFF
FFFF
FFFF
FF00
FF00
FF00
FF00
FF00
FF00
FF00
FF00
0000
0000
0000
0000
0000
0000
0000
0000
ENDCHAR
STARTCHAR U+EE39
ENCODING 60985
SWIDTH 500 0
DWIDTH 16 0
BBX 16 32 0 -8
BITMAP
0000
0000
0000
0000
0000
0000
0000
0000
FFFF
FFFF
FFFF
FFFF
FFFF
FFFF
FFFF
FFFF
FF00
FF00
FF00
FF00
FF00
FF00
FF00
FF00
00FF
00FF
00FF
00FF
00FF
00FF
00FF
00FF
ENDCHAR
STARTCHAR U+EE3A
ENCODING 60986
SWIDTH 500 0
DWIDTH 16 0
BBX 16 32 0 -8
BITMAP
0000
0000
0000
0000
0000
0000
0000
0000
FFFF
FFFF
FFFF
FFFF
FFFF
FFFF
FFFF
FFFF
FF00
FF00
FF00
FF00
FF00
FF00
FF00
FF00
FF00
FF00
FF00
FF00
FF00
FF00
FF00
FF00
ENDCHAR
STARTCHAR U+EE3B
ENCODING 60987
SWIDTH 500 0
DWIDTH 16 0
BBX 16 32 0 -8
BITMAP
0000
0000
0000
0000
0000
0000
0000
0000
FFFF
FFFF
FFFF
FFFF
FFFF
FFFF
FFFF
FFFF
FF00
FF00
FF00
FF00
FF00
FF00
FF00
FF00
FFFF
FFFF
FFFF
FFFF
FFFF
FFFF
FFFF
FFFF
ENDCHAR
STARTCHAR U+EE3C
ENCODING 60988
SWIDTH 500 0
DWIDTH 16 0
BBX 16 32 0 -8
BITMAP
0000
0000
0000
0000
0000
0000
0000
0000
FFFF
FFFF
FFFF
FFFF
FFFF
FFFF
FFFF
FFFF
FFFF
FFFF
FFFF
FFFF
FFFF
FFFF
FFFF
FFFF
0000
0000
0000
0000
0000
0000
0000
0000
ENDCHAR
STARTCHAR U+EE3D
ENCODING 60989
SWIDTH 500 0
DWIDTH 16 0
BBX 16 32 0 -8
BITMAP
0000
0000
0000
0000
0000
0000
0000
0000
FFFF
FFFF
FFFF
FFFF
FFFF
FFFF
FFFF
FFFF
FFFF
FFFF
FFFF
FFFF
FFFF
FFFF
FFFF
FFFF
00FF
00FF
00FF
00FF
00FF
00FF
00FF
00FF
ENDCHAR
STARTCHAR U+EE3E
ENCODING 60990
SWIDTH 500 0
DWIDTH 16 0
BBX 16 32 0 -8
BITMAP
0000
0000
0000
0000
0000
0000
0000
0000
FFFF
FFFF
FFFF
FFFF
FFFF
FFFF
FFFF
FFFF
FFFF
FFFF
FFFF
FFFF
FFFF
FFFF
FFFF
FFFF
FF00
FF00
FF00
FF00
FF00
FF00
FF00
FF00
ENDCHAR
STARTCHAR U+EE3F
ENCODING 60991
SWIDTH 500 0
DWIDTH 16 0
BBX 16 32 0 -8
BITMAP
0000
0000
0000
0000
0000
0000
0000
0000
FFFF
FFFF
FFFF
FFFF
FFFF
FFFF
FFFF
FFFF
FFFF
FFFF
FFFF
FFFF
FFFF
FFFF
FFFF
FFFF
FFFF
FFFF
FFFF
FFFF
FFFF
FFFF
FFFF
FFFF
ENDCHAR
STARTCHAR U+EE40
ENCODING 60992
SWIDTH 500 0
DWIDTH 16 0
BBX 16 32 0 -8
BITMAP
00FF
00FF
00FF
00FF
00FF
00FF
00FF
00FF
0000
0000
0000
0000
0000
0000
0000
0000
0000
0000
0000
0000
0000
0000
0000
0000
0000
0000
0000
0000
0000
0000
0000
0000
ENDCHAR
STARTCHAR U+EE41
ENCODING 60993
SWIDTH 500 0
DWIDTH 16 0
BBX 16 32 0 -8
BITMAP
00FF
00FF
00FF
00FF
00FF
00FF
00FF
00FF
0000
0000
0000
0000
0000
0000
0000
0000
0000
0000
0000
0000
0000
0000
0000
0000
00FF
00FF
00FF
00FF
00FF
00FF
00FF
00FF
ENDCHAR
STARTCHAR U+EE42
ENCODING 60994
SWIDTH 500 0
DWIDTH 16 0
BBX 16 32 0 -8
BITMAP
00FF
00FF
00FF
00FF
00FF
00FF
00FF
00FF
0000
0000
0000
0000
0000
0000
0000
0000
0000
0000
0000
0000
0000
0000
0000
0000
FF00
FF00
FF00
FF00
FF00
FF00
FF00
FF00
ENDCHAR
STARTCHAR U+EE43
ENCODING 60995
SWIDTH 500 0
DWIDTH 16 0
BBX 16 32 0 -8
BITMAP
00FF
00FF
00FF
00FF
00FF
00FF
00FF
00FF
0000
0000
0000
0000
0000
0000
0000
0000
0000
0000
0000
0000
0000
0000
0000
0000
FFFF
FFFF
FFFF
FFFF
FFFF
FFFF
FFFF
FFFF
ENDCHAR
STARTCHAR U+EE44
ENCODING 60996
SWIDTH 500 0
DWIDTH 16 0
BBX 16 32 0 -8
BITMAP
00FF
00FF
00FF
00FF
00FF
00FF
00FF
00FF
0000
0000
0000
0000
0000
0000
0000
0000
00FF
00FF
00FF
00FF
00FF
00FF
00FF
00FF
0000
0000
0000
0000
0000
0000
0000
0000
ENDCHAR
STARTCHAR U+EE45
ENCODING 60997
SWIDTH 500 0
DWIDTH 16 0
BBX 16 32 0 -8
BITMAP
00FF
00FF
00FF
00FF
00FF
00FF
00FF
00FF
0000
0000
0000
0000
0000
0000
0000
0000
00FF
00FF
00FF
00FF
00FF
00FF
00FF
00FF
00FF
00FF
00FF
00FF
00FF
00FF
00FF
00FF
ENDCHAR
STARTCHAR U+EE46
ENCODING 60998
SWIDTH 500 0
DWIDTH 16 0
BBX 16 32 0 -8
BITMAP
00FF
00FF
00FF
00FF
00FF
00FF
00FF
00FF
0000
0000
0000
0000
0000
0000
0000
0000
00FF
00FF
00FF
00FF
00FF
00FF
00FF
00FF
FF00
FF00
FF00
FF00
FF00
FF00
FF00
FF00
ENDCHAR
STARTCHAR U+EE47
ENCODING 60999
SWIDTH 500 0
DWIDTH 16 0
BBX 16 32 0 -8
BITMAP
00FF
00FF
00FF
00FF
00FF
00FF
00FF
00FF
0000
0000
0000
0000
0000
0000
0000
0000
00FF
00FF
00FF
00FF
00FF
00FF
00FF
00FF
FFFF
FFFF
FFFF
FFFF
FFFF
FFFF
FFFF
FFFF
ENDCHAR
STARTCHAR U+EE48
ENCODING 61000
SWIDTH 500 0
DWIDTH 16 0
BBX 16 32 0 -8
BITMAP
00FF
00FF
00FF
00FF
00FF
00FF
00FF
00FF
0000
0000
0000
0000
0000
0000
0000
0000
FF00
FF00
FF00
FF00
FF00
FF00
FF00
FF00
0000
0000
0000
0000
0000
0000
0000
0000
ENDCHAR
STARTCHAR U+EE49
ENCODING 61001
SWIDTH 500 0
DWIDTH 16 0
BBX 16 32 0 -8
BITMAP
00FF
00FF
00FF
00FF
00FF
00FF
00FF
00FF
0000
0000
0000
0000
0000
0000
0000
0000
FF00
FF00
FF00
FF00
FF00
FF00
FF00
FF00
00FF
00FF
00FF
00FF
00FF
00FF
00FF
00FF
ENDCHAR
STARTCHAR U+EE4A
ENCODING 61002
SWIDTH 500 0
DWIDTH 16 0
BBX 16 32 0 -8
BITMAP
00FF
00FF
00FF
00FF
00FF
00FF
00FF
00FF
0000
0000
0000
0000
0000
0000
0000
0000
FF00
FF00
FF00
FF00
FF00
FF00
FF00
FF00
FF00
FF00
FF00
FF00
FF00
FF00
FF00
FF00
ENDCHAR
STARTCHAR U+EE4B
ENCODING 61003
SWIDTH 500 0
DWIDTH 16 0
BBX 16 32 0 -8
BITMAP
00FF
00FF
00FF
00FF
00FF
00FF
00FF
00FF
0000
0000
0000
0000
0000
0000
0000
0000
FF00
FF00
FF00
FF00
FF00
FF00
FF00
FF00
FFFF
FFFF
FFFF
FFFF
FFFF
FFFF
FFFF
FFFF
ENDCHAR
STARTCHAR U+EE4C
ENCODING 61004
SWIDTH 500 0
DWIDTH 16 0
BBX 16 32 0 -8
BITMAP
00FF
00FF
00FF
00FF
00FF
00FF
00FF
00FF
0000
0000
0000
0000
0000
0000
0000
0000
FFFF
FFFF
FFFF
FFFF
FFFF
FFFF
FFFF
FFFF
0000
0000
0000
0000
0000
0000
0000
0000
ENDCHAR
STARTCHAR U+EE4D
ENCODING 61005
SWIDTH 500 0
DWIDTH 16 0
BBX 16 32 0 -8
BITMAP
00FF
00FF
00FF
00FF
00FF
00FF
00FF
00FF
0000
0000
0000
0000
0000
0000
0000
0000
FFFF
FFFF
FFFF
FFFF
FFFF
FFFF
FFFF
FFFF
00FF
00FF
00FF
00FF
00FF
00FF
00FF
00FF
ENDCHAR
STARTCHAR U+EE4E
ENCODING 61006
SWIDTH 500 0
DWIDTH 16 0
BBX 16 32 0 -8
BITMAP
00FF
00FF
00FF
00FF
00FF
00FF
00FF
00FF
0000
0000
0000
0000
0000
0000
0000
0000
FFFF
FFFF
FFFF
FFFF
FFFF
FFFF
FFFF
FFFF
FF00
FF00
FF00
FF00
FF00
FF00
FF00
FF00
ENDCHAR
STARTCHAR U+EE4F
ENCODING 61007
SWIDTH 500 0
DWIDTH 16 0
BBX 16 32 0 -8
BITMAP
00FF
00FF
00FF
00FF
00FF
00FF
00FF
00FF
0000
0000
0000
0000
0000
0000
0000
0000
FFFF
FFFF
FFFF
FFFF
FFFF
FFFF
FFFF
FFFF
FFFF
FFFF
FFFF
FFFF
FFFF
FFFF
FFFF
FFFF
ENDCHAR
STARTCHAR U+EE50
ENCODING 61008
SWIDTH 500 0
DWIDTH 16 0
BBX 16 32 0 -8
BITMAP
00FF
00FF
00FF
00FF
00FF
00FF
00FF
00FF
00FF
00FF
00FF
00FF
00FF
00FF
00FF
00FF
0000
0000
0000
0000
0000
0000
0000
0000
0000
0000
0000
0000
0000
0000
0000
0000
ENDCHAR
STARTCHAR U+EE51
ENCODING 61009
SWIDTH 500 0
DWIDTH 16 0
BBX 16 32 0 -8
BITMAP
00FF
00FF
00FF
00FF
00FF
00FF
00FF
00FF
00FF
00FF
00FF
00FF
00FF
00FF
00FF
00FF
0000
0000
0000
0000
0000
0000
0000
0000
00FF
00FF
00FF
00FF
00FF
00FF
00FF
00FF
ENDCHAR
STARTCHAR U+EE52
ENCODING 61010
SWIDTH 500 0
DWIDTH 16 0
BBX 16 32 0 -8
BITMAP
00FF
00FF
00FF
00FF
00FF
00FF
00FF
00FF
00FF
00FF
00FF
00FF
00FF
00FF
00FF
00FF
0000
0000
0000
0000
0000
0000
0000
0000
FF00
FF00
FF00
FF00
FF00
FF00
FF00
FF00
ENDCHAR
STARTCHAR U+EE53
ENCODING 61011
SWIDTH 500 0
DWIDTH 16 0
BBX 16 32 0 -8
BITMAP
00FF
00FF
00FF
00FF
00FF
00FF
00FF
00FF
00FF
00FF
00FF
00FF
00FF
00FF
00FF
00FF
0000
0000
0000
0000
0000
0000
0000
0000
FFFF
FFFF
FFFF
FFFF
FFFF
FFFF
FFFF
FFFF
ENDCHAR
STARTCHAR U+EE54
ENCODING 61012
SWIDTH 500 0
DWIDTH 16 0
BBX 16 32 0 -8
BITMAP
00FF
00FF
00FF
00FF
00FF
00FF
00FF
00FF
00FF
00FF
00FF
00FF
00FF
00FF
00FF
00FF
00FF
00FF
00FF
00FF
00FF
00FF
00FF
00FF
0000
0000
0000
0000
0000
0000
0000
0000
ENDCHAR
STARTCHAR U+EE55
ENCODING 61013
SWIDTH 500 0
DWIDTH 16 0
BBX 16 32 0 -8
BITMAP
00FF
00FF
00FF
00FF
00FF
00FF
00FF
00FF
00FF
00FF
00FF
00FF
00FF
00FF
00FF
00FF
00FF
00FF
00FF
00FF
00FF
00FF
00FF
00FF
00FF
00FF
00FF
00FF
00FF
00FF
00FF
00FF
ENDCHAR
STARTCHAR U+EE56
ENCODING 61014
SWIDTH 500 0
DWIDTH 16 0
BBX 16 32 0 -8
BITMAP
00FF
00FF
00FF
00FF
00FF
00FF
00FF
00FF
00FF
00FF
00FF
00FF
00FF
00FF
00FF
00FF
00FF
00FF
00FF
00FF
00FF
00FF
00FF
00FF
FF00
FF00
FF00
FF00
FF00
FF00
FF00
FF00
ENDCHAR
STARTCHAR U+EE57
ENCODING 61015
SWIDTH 500 0
DWIDTH 16 0
BBX 16 32 0 -8
BITMAP
00FF
00FF
00FF
00FF
00FF
00FF
00FF
00FF
00FF
00FF
00FF
00FF
00FF
00FF
00FF
00FF
00FF
00FF
00FF
00FF
00FF
00FF
00FF
00FF
FFFF
FFFF
FFFF
FFFF
FFFF
FFFF
FFFF
FFFF
ENDCHAR
STARTCHAR U+EE58
ENCODING 61016
SWIDTH 500 0
DWIDTH 16 0
BBX 16 32 0 -8
BITMAP
00FF
00FF
00FF
00FF
00FF
00FF
00FF
00FF
00FF
00FF
00FF
00FF
00FF
00FF
00FF
00FF
FF00
FF00
FF00
FF00
FF00
FF00
FF00
FF00
0000
0000
0000
0000
0000
0000
0000
0000
ENDCHAR
STARTCHAR U+EE59
ENCODING 61017
SWIDTH 500 0
DWIDTH 16 0
BBX 16 32 0 -8
BITMAP
00FF
00FF
00FF
00FF
00FF
00FF
00FF
00FF
00FF
00FF
00FF
00FF
00FF
00FF
00FF
00FF
FF00
FF00
FF00
FF00
FF00
FF00
FF00
FF00
00FF
00FF
00FF
00FF
00FF
00FF
00FF
00FF
ENDCHAR
STARTCHAR U+EE5A
ENCODING 61018
SWIDTH 500 0
DWIDTH 16 0
BBX 16 32 0 -8
BITMAP
00FF
00FF
00FF
00FF
00FF
00FF
00FF
00FF
00FF
00FF
00FF
00FF
00FF
00FF
00FF
00FF
FF00
FF00
FF00
FF00
FF00
FF00
FF00
FF00
FF00
FF00
FF00
FF00
FF00
FF00
FF00
FF00
ENDCHAR
STARTCHAR U+EE5B
ENCODING 61019
SWIDTH 500 0
DWIDTH 16 0
BBX 16 32 0 -8
BITMAP
00FF
00FF
00FF
00FF
00FF
00FF
00FF
00FF
00FF
00FF
00FF
00FF
00FF
00FF
00FF
00FF
FF00
FF00
FF00
FF00
FF00
FF00
FF00
FF00
FFFF
FFFF
FFFF
FFFF
FFFF
FFFF
FFFF
FFFF
ENDCHAR
STARTCHAR U+EE5C
ENCODING 61020
SWIDTH 500 0
DWIDTH 16 0
BBX 16 32 0 -8
BITMAP
00FF
00FF
00FF
00FF
00FF
00FF
00FF
00FF
00FF
00FF
00FF
00FF
00FF
00FF
00FF
00FF
FFFF
FFFF
FFFF
FFFF
FFFF
FFFF
FFFF
FFFF
0000
0000
0000
0000
0000
0000
0000
0000
ENDCHAR
STARTCHAR U+EE5D
ENCODING 61021
SWIDTH 500 0
DWIDTH 16 0
BBX 16 32 0 -8
BITMAP
00FF
00FF
00FF
00FF
00FF
00FF
00FF
00FF
00FF
00FF
00FF
00FF
00FF
00FF
00FF
00FF
FFFF
FFFF
FFFF
FFFF
FFFF
FFFF
FFFF
FFFF
00FF
00FF
00FF
00FF
00FF
00FF
00FF
00FF
ENDCHAR
STARTCHAR U+EE5E
ENCODING 61022
SWIDTH 500 0
DWIDTH 16 0
BBX 16 32 0 -8
BITMAP
00FF
00FF
00FF
00FF
00FF
00FF
00FF
00FF
00FF
00FF
00FF
00FF
00FF
00FF
00FF
00FF
FFFF
FFFF
FFFF
FFFF
FFFF
FFFF
FFFF
FFFF
FF00
FF00
FF00
FF00
FF00
FF00
FF00
FF00
ENDCHAR
STARTCHAR U+EE5F
ENCODING 61023
SWIDTH 500 0
DWIDTH 16 0
BBX 16 32 0 -8
BITMAP
00FF
00FF
00FF
00FF
00FF
00FF
00FF
00FF
00FF
00FF
00FF
00FF
00FF
00FF
00FF
00FF
FFFF
FFFF
FFFF
FFFF
FFFF
FFFF
FFFF
FFFF
FFFF
FFFF
FFFF
FFFF
FFFF
FFFF
FFFF
FFFF
ENDCHAR
STARTCHAR U+EE60
ENCODING 61024
SWIDTH 500 0
DWIDTH 16 0
BBX 16 32 0 -8
BITMAP
00FF
00FF
00FF
00FF
00FF
00FF
00FF
00FF
FF00
FF00
FF00
FF00
FF00
FF00
FF00
FF00
0000
0000
0000
0000
0000
0000
0000
0000
0000
0000
0000
0000
0000
0000
0000
0000
ENDCHAR
STARTCHAR U+EE61
ENCODING 61025
SWIDTH 500 0
DWIDTH 16 0
BBX 16 32 0 -8
BITMAP
00FF
00FF
00FF
00FF
00FF
00FF
00FF
00FF
FF00
FF00
FF00
FF00
FF00
FF00
FF00
FF00
0000
0000
0000
0000
0000
0000
0000
0000
00FF
00FF
00FF
00FF
00FF
00FF
00FF
00FF
ENDCHAR
STARTCHAR U+EE62
ENCODING 61026
SWIDTH 500 0
DWIDTH 16 0
BBX 16 32 0 -8
BITMAP
00FF
00FF
00FF
00FF
00FF
00FF
00FF
00FF
FF00
FF00
FF00
FF00
FF00
FF00
FF00
FF00
0000
0000
0000
0000
0000
0000
0000
0000
FF00
FF00
FF00
FF00
FF00
FF00
FF00
FF00
ENDCHAR
STARTCHAR U+EE63
ENCODING 61027
SWIDTH 500 0
DWIDTH 16 0
BBX 16 32 0 -8
BITMAP
00FF
00FF
00FF
00FF
00FF
00FF
00FF
00FF
FF00
FF00
FF00
FF00
FF00
FF00
FF00
FF00
0000
0000
0000
0000
0000
0000
0000
0000
FFFF
FFFF
FFFF
FFFF
FFFF
FFFF
FFFF
FFFF
ENDCHAR
STARTCHAR U+EE64
ENCODING 61028
SWIDTH 500 0
DWIDTH 16 0
BBX 16 32 0 -8
BITMAP
00FF
00FF
00FF
00FF
00FF
00FF
00FF
00FF
FF00
FF00
FF00
FF00
FF00
FF00
FF00
FF00
00FF
00FF
00FF
00FF
00FF
00FF
00FF
00FF
0000
0000
0000
0000
0000
0000
0000
0000
ENDCHAR
STARTCHAR U+EE65
ENCODING 61029
SWIDTH 500 0
DWIDTH 16 0
BBX 16 32 0 -8
BITMAP
00FF
00FF
00FF
00FF
00FF
00FF
00FF
00FF
FF00
FF00
FF00
FF00
FF00
FF00
FF00
FF00
00FF
00FF
00FF
00FF
00FF
00FF
00FF
00FF
00FF
00FF
00FF
00FF
00FF
00FF
00FF
00FF
ENDCHAR
STARTCHAR U+EE66
ENCODING 61030
SWIDTH 500 0
DWIDTH 16 0
BBX 16 32 0 -8
BITMAP
00FF
00FF
00FF
00FF
00FF
00FF
00FF
00FF
FF00
FF00
FF00
FF00
FF00
FF00
FF00
FF00
00FF
00FF
00FF
00FF
00FF
00FF
00FF
00FF
FF00
FF00
FF00
FF00
FF00
FF00
FF00
FF00
ENDCHAR
STARTCHAR U+EE67
ENCODING 61031
SWIDTH 500 0
DWIDTH 16 0
BBX 16 32 0 -8
BITMAP
00FF
00FF
00FF
00FF
00FF
00FF
00FF
00FF
FF00
FF00
FF00
FF00
FF00
FF00
FF00
FF00
00FF
00FF
00FF
00FF
00FF
00FF
00FF
00FF
FFFF
FFFF
FFFF
FFFF
FFFF
FFFF
FFFF
FFFF
ENDCHAR
STARTCHAR U+EE68
ENCODING 61032
SWIDTH 500 0
DWIDTH 16 0
BBX 16 32 0 -8
BITMAP
00FF
00FF
00FF
00FF
00FF
00FF
00FF
00FF
FF00
FF00
FF00
FF00
FF00
FF00
FF00
FF00
FF00
FF00
FF00
FF00
FF00
FF00
FF00
FF00
0000
0000
0000
0000
0000
0000
0000
0000
ENDCHAR
STARTCHAR U+EE69
ENCODING 61033
SWIDTH 500 0
DWIDTH 16 0
BBX 16 32 0 -8
BITMAP
00FF
00FF
00FF
00FF
00FF
00FF
00FF
00FF
FF00
FF00
FF00
FF00
FF00
FF00
FF00
FF00
FF00
FF00
FF00
FF00
FF00
FF00
FF00
FF00
00FF
00FF
00FF
00FF
00FF
00FF
00FF
00FF
ENDCHAR
STARTCHAR U+EE6A
ENCODING 61034
SWIDTH 500 0
DWIDTH 16 0
BBX 16 32 0 -8
BITMAP
00FF
00FF
00FF
00FF
00FF
00FF
00FF
00FF
FF00
FF00
FF00
FF00
FF00
FF00
FF00
FF00
FF00
FF00
FF00
FF00
FF00
FF00
FF00
FF00
FF00
FF00
FF00
FF00
FF00
FF00
FF00
FF00
ENDCHAR
STARTCHAR U+EE6B
ENCODING 61035
SWIDTH 500 0
DWIDTH 16 0
BBX 16 32 0 -8
BITMAP
00FF
00FF
00FF
00FF
00FF
00FF
00FF
00FF
FF00
FF00
FF00
FF00
FF00
FF00
FF00
FF00
FF00
FF00
FF00
FF00
FF00
FF00
FF00
FF00
FFFF
FFFF
FFFF
FFFF
FFFF
FFFF
FFFF
FFFF
ENDCHAR
STARTCHAR U+EE6C
ENCODING 61036
SWIDTH 500 0
DWIDTH 16 0
BBX 16 32 0 -8
BITMAP
00FF
00FF
00FF
00FF
00FF
00FF
00FF
00FF
FF00
FF00
FF00
FF00
FF00
FF00
FF00
FF00
FFFF
FFFF
FFFF
FFFF
FFFF
FFFF
FFFF
FFFF
0000
0000
0000
0000
0000
0000
0000
0000
ENDCHAR
STARTCHAR U+EE6D
ENCODING 61037
SWIDTH 500 0
DWIDTH 16 0
BBX 16 32 0 -8
BITMAP
00FF
00FF
00FF
00FF
00FF
00FF
00FF
00FF
FF00
FF00
FF00
FF00
FF00
FF00
FF00
FF00
FFFF
FFFF
FFFF
FFFF
FFFF
FFFF
FFFF
FFFF
00FF
00FF
00FF
00FF
00FF
00FF
00FF
00FF
ENDCHAR
STARTCHAR U+EE6E
ENCODING 61038
SWIDTH 500 0
DWIDTH 16 0
BBX 16 32 0 -8
BITMAP
00FF
00FF
00FF
00FF
00FF
00FF
00FF
00FF
FF00
FF00
FF00
FF00
FF00
FF00
FF00
FF00
FFFF
FFFF
FFFF
FFFF
FFFF
FFFF
FFFF
FFFF
FF00
FF00
FF00
FF00
FF00
FF00
FF00
FF00
ENDCHAR
STARTCHAR U+EE6F
ENCODING 61039
SWIDTH 500 0
DWIDTH 16 0
BBX 16 32 0 -8
BITMAP
00FF
00FF
00FF
00FF
00FF
00FF
00FF
00FF
FF00
FF00
FF00
FF00
FF00
FF00
FF00
FF00
FFFF
FFFF
FFFF
FFFF
FFFF
FFFF
FFFF
FFFF
FFFF
FFFF
FFFF
FFFF
FFFF
FFFF
FFFF
FFFF
ENDCHAR
STARTCHAR U+EE70
ENCODING 61040
SWIDTH 500 0
DWIDTH 16 0
BBX 16 32 0 -8
BITMAP
00FF
00FF
00FF
00FF
00FF
00FF
00FF
00FF
FFFF
FFFF
FFFF
FFFF
FFFF
FFFF
FFFF
FFFF
0000
0000
0000
0000
0000
0000
0000
0000
0000
0000
0000
0000
0000
0000
0000
0000
ENDCHAR
STARTCHAR U+EE71
ENCODING 61041
SWIDTH 500 0
DWIDTH 16 0
BBX 16 32 0 -8
BITMAP
00FF
00FF
00FF
00FF
00FF
00FF
00FF
00FF
FFFF
FFFF
FFFF
FFFF
FFFF
FFFF
FFFF
FFFF
0000
0000
0000
0000
0000
0000
0000
0000
00FF
00FF
00FF
00FF
00FF
00FF
00FF
00FF
ENDCHAR
STARTCHAR U+EE72
ENCODING 61042
SWIDTH 500 0
DWIDTH 16 0
BBX 16 32 0 -8
BITMAP
00FF
00FF
00FF
00FF
00FF
00FF
00FF
00FF
FFFF
FFFF
FFFF
FFFF
FFFF
FFFF
FFFF
FFFF
0000
0000
0000
0000
0000
0000
0000
0000
FF00
FF00
FF00
FF00
FF00
FF00
FF00
FF00
ENDCHAR
STARTCHAR U+EE73
ENCODING 61043
SWIDTH 500 0
DWIDTH 16 0
BBX 16 32 0 -8
BITMAP
00FF
00FF
00FF
00FF
00FF
00FF
00FF
00FF
FFFF
FFFF
FFFF
FFFF
FFFF
FFFF
FFFF
FFFF
0000
0000
0000
0000
0000
0000
0000
0000
FFFF
FFFF
FFFF
FFFF
FFFF
FFFF
FFFF
FFFF
ENDCHAR
STARTCHAR U+EE74
ENCODING 61044
SWIDTH 500 0
DWIDTH 16 0
BBX 16 32 0 -8
BITMAP
00FF
00FF
00FF
00FF
00FF
00FF
00FF
00FF
FFFF
FFFF
FFFF
FFFF
FFFF
FFFF
FFFF
FFFF
00FF
00FF
00FF
00FF
00FF
00FF
00FF
00FF
0000
0000
0000
0000
0000
0000
0000
0000
ENDCHAR
STARTCHAR U+EE75
ENCODING 61045
SWIDTH 500 0
DWIDTH 16 0
BBX 16 32 0 -8
BITMAP
00FF
00FF
00FF
00FF
00FF
00FF
00FF
00FF
FFFF
FFFF
FFFF
FFFF
FFFF
FFFF
FFFF
FFFF
00FF
00FF
00FF
00FF
00FF
00FF
00FF
00FF
00FF
00FF
00FF
00FF
00FF
00FF
00FF
00FF
ENDCHAR
STARTCHAR U+EE76
ENCODING 61046
SWIDTH 500 0
DWIDTH 16 0
BBX 16 32 0 -8
BITMAP
00FF
00FF
00FF
00FF
00FF
00FF
00FF
00FF
FFFF
FFFF
FFFF
FFFF
FFFF
FFFF
FFFF
FFFF
00FF
00FF
00FF
00FF
00FF
00FF
00FF
00FF
FF00
FF00
FF00
FF00
FF00
FF00
FF00
FF00
ENDCHAR
STARTCHAR U+EE77
ENCODING 61047
SWIDTH 500 0
DWIDTH 16 0
BBX 16 32 0 -8
BITMAP
00FF
00FF
00FF
00FF
00FF
00FF
00FF
00FF
FFFF
FFFF
FFFF
FFFF
FFFF
FFFF
FFFF
FFFF
00FF
00FF
00FF
00FF
00FF
00FF
00FF
00FF
FFFF
FFFF
FFFF
FFFF
FFFF
FFFF
FFFF
FFFF
ENDCHAR
STARTCHAR U+EE78
ENCODING 61048
SWIDTH 500 0
DWIDTH 16 0
BBX 16 32 0 -8
BITMAP
00FF
00FF
00FF
00FF
00FF
00FF
00FF
00FF
FFFF
FFFF
FFFF
FFFF
FFFF
FFFF
FFFF
FFFF
FF00
FF00
FF00
FF00
FF00
FF00
FF00
FF00
0000
0000
0000
0000
0000
0000
0000
0000
ENDCHAR
STARTCHAR U+EE79
ENCODING 61049
SWIDTH 500 0
DWIDTH 16 0
BBX 16 32 0 -8
BITMAP
00FF
00FF
00FF
00FF
00FF
00FF
00FF
00FF
FFFF
FFFF
FFFF
FFFF
FFFF
FFFF
FFFF
FFFF
FF00
FF00
FF00
FF00
FF00
FF00
FF00
FF00
00FF
00FF
00FF
00FF
00FF
00FF
00FF
00FF
ENDCHAR
STARTCHAR U+EE7A
ENCODING 61050
SWIDTH 500 0
DWIDTH 16 0
BBX 16 32 0 -8
BITMAP
00FF
00FF
00FF
00FF
00FF
00FF
00FF
00FF
FFFF
FFFF
FFFF
FFFF
FFFF
FFFF
FFFF
FFFF
FF00
FF00
FF00
FF00
FF00
FF00
FF00
FF00
FF00
FF00
FF00
FF00
FF00
FF00
FF00
FF00
ENDCHAR
STARTCHAR U+EE7B
ENCODING 61051
SWIDTH 500 0
DWIDTH 16 0
BBX 16 32 0 -8
BITMAP
00FF
00FF
00FF
00FF
00FF
00FF
00FF
00FF
FFFF
FFFF
FFFF
FFFF
FFFF
FFFF
FFFF
FFFF
FF00
FF00
FF00
FF00
FF00
FF00
FF00
FF00
FFFF
FFFF
FFFF
FFFF
FFFF
FFFF
FFFF
FFFF
ENDCHAR
STARTCHAR U+EE7C
ENCODING 61052
SWIDTH 500 0
DWIDTH 16 0
BBX 16 32 0 -8
BITMAP
00FF
00FF
00FF
00FF
00FF
00FF
00FF
00FF
FFFF
FFFF
FFFF
FFFF
FFFF
FFFF
FFFF
FFFF
FFFF
FFFF
FFFF
FFFF
FFFF
FFFF
FFFF
FFFF
0000
0000
0000
0000
0000
0000
0000
0000
ENDCHAR
STARTCHAR U+EE7D
ENCODING 61053
SWIDTH 500 0
DWIDTH 16 0
BBX 16 32 0 -8
BITMAP
00FF
00FF
00FF
00FF
00FF
00FF
00FF
00FF
FFFF
FFFF
FFFF
FFFF
FFFF
FFFF
FFFF
FFFF
FFFF
FFFF
FFFF
FFFF
FFFF
FFFF
FFFF
FFFF
00FF
00FF
00FF
00FF
00FF
00FF
00FF
00FF
ENDCHAR
STARTCHAR U+EE7E
ENCODING 61054
SWIDTH 500 0
DWIDTH 16 0
BBX 16 32 0 -8
BITMAP
00FF
00FF
00FF
00FF
00FF
00FF
00FF
00FF
FFFF
FFFF
FFFF
FFFF
FFFF
FFFF
FFFF
FFFF
FFFF
FFFF
FFFF
FFFF
FFFF
FFFF
FFFF
FFFF
FF00
FF00
FF00
FF00
FF00
FF00
FF00
FF00
ENDCHAR
STARTCHAR U+EE7F
ENCODING 61055
SWIDTH 500 0
DWIDTH 16 0
BBX 16 32 0 -8
BITMAP
00FF
00FF
00FF
00FF
00FF
00FF
00FF
00FF
FFFF
FFFF
FFFF
FFFF
FFFF
FFFF
FFFF
FFFF
FFFF
FFFF
FFFF
FFFF
FFFF
FFFF
FFFF
FFFF
FFFF
FFFF
FFFF
FFFF
FFFF
FFFF
FFFF
FFFF
ENDCHAR
STARTCHAR U+EE80
ENCODING 61056
SWIDTH 500 0
DWIDTH 16 0
BBX 16 32 0 -8
BITMAP
FF00
FF00
FF00
FF00
FF00
FF00
FF00
FF00
0000
0000
0000
0000
0000
0000
0000
0000
0000
0000
0000
0000
0000
0000
0000
0000
0000
0000
0000
0000
0000
0000
0000
0000
ENDCHAR
STARTCHAR U+EE81
ENCODING 61057
SWIDTH 500 0
DWIDTH 16 0
BBX 16 32 0 -8
BITMAP
FF00
FF00
FF00
FF00
FF00
FF00
FF00
FF00
0000
0000
0000
0000
0000
0000
0000
0000
0000
0000
0000
0000
0000
0000
0000
0000
00FF
00FF
00FF
00FF
00FF
00FF
00FF
00FF
ENDCHAR
STARTCHAR U+EE82
ENCODING 61058
SWIDTH 500 0
DWIDTH 16 0
BBX 16 32 0 -8
BITMAP
FF00
FF00
FF00
FF00
FF00
FF00
FF00
FF00
0000
0000
0000
0000
0000
0000
0000
0000
0000
0000
0000
0000
0000
0000
0000
0000
FF00
FF00
FF00
FF00
FF00
FF00
FF00
FF00
ENDCHAR
STARTCHAR U+EE83
ENCODING 61059
SWIDTH 500 0
DWIDTH 16 0
BBX 16 32 0 -8
BITMAP
FF00
FF00
FF00
FF00
FF00
FF00
FF00
FF00
0000
0000
0000
0000
0000
0000
0000
0000
0000
0000
0000
0000
0000
0000
0000
0000
FFFF
FFFF
FFFF
FFFF
FFFF
FFFF
FFFF
FFFF
ENDCHAR
STARTCHAR U+EE84
ENCODING 61060
SWIDTH 500 0
DWIDTH 16 0
BBX 16 32 0 -8
BITMAP
FF00
FF00
FF00
FF00
FF00
FF00
FF00
FF00
0000
0000
0000
0000
0000
0000
0000
0000
00FF
00FF
00FF
00FF
00FF
00FF
00FF
00FF
0000
0000
0000
0000
0000
0000
0000
0000
ENDCHAR
STARTCHAR U+EE85
ENCODING 61061
SWIDTH 500 0
DWIDTH 16 0
BBX 16 32 0 -8
BITMAP
FF00
FF00
FF00
FF00
FF00
FF00
FF00
FF00
0000
0000
0000
0000
0000
0000
0000
0000
00FF
00FF
00FF
00FF
00FF
00FF
00FF
00FF
00FF
00FF
00FF
00FF
00FF
00FF
00FF
00FF
ENDCHAR
STARTCHAR U+EE86
ENCODING 61062
SWIDTH 500 0
DWIDTH 16 0
BBX 16 32 0 -8
BITMAP
FF00
FF00
FF00
FF00
FF00
FF00
FF00
FF00
0000
0000
0000
0000
0000
0000
0000
0000
00FF
00FF
00FF
00FF
00FF
00FF
00FF
00FF
FF00
FF00
FF00
FF00
FF00
FF00
FF00
FF00
ENDCHAR
STARTCHAR U+EE87
ENCODING 61063
SWIDTH 500 0
DWIDTH 16 0
BBX 16 32 0 -8
BITMAP
FF00
FF00
FF00
FF00
FF00
FF00
FF00
FF00
0000
0000
0000
0000
0000
0000
0000
0000
00FF
00FF
00FF
00FF
00FF
00FF
00FF
00FF
FFFF
FFFF
FFFF
FFFF
FFFF
FFFF
FFFF
FFFF
ENDCHAR
STARTCHAR U+EE88
ENCODING 61064
SWIDTH 500 0
DWIDTH 16 0
BBX 16 32 0 -8
BITMAP
FF00
FF00
FF00
FF00
FF00
FF00
FF00
FF00
0000
0000
0000
0000
0000
0000
0000
0000
FF00
FF00
FF00
FF00
FF00
FF00
FF00
FF00
0000
0000
0000
0000
0000
0000
0000
0000
ENDCHAR
STARTCHAR U+EE89
ENCODING 61065
SWIDTH 500 0
DWIDTH 16 0
BBX 16 32 0 -8
BITMAP
FF00
FF00
FF00
FF00
FF00
FF00
FF00
FF00
0000
0000
0000
0000
0000
0000
0000
0000
FF00
FF00
FF00
FF00
FF00
FF00
FF00
FF00
00FF
00FF
00FF
00FF
00FF
00FF
00FF
00FF
ENDCHAR
STARTCHAR U+EE8A
ENCODING 61066
SWIDTH 500 0
DWIDTH 16 0
BBX 16 32 0 -8
BITMAP
FF00
FF00
FF00
FF00
FF00
FF00
FF00
FF00
0000
0000
0000
0000
0000
0000
0000
0000
FF00
FF00
FF00
FF00
FF00
FF00
FF00
FF00
FF00
FF00
FF00
FF00
FF00
FF00
FF00
FF00
ENDCHAR
STARTCHAR U+EE8B
ENCODING 61067
SWIDTH 500 0
DWIDTH 16 0
BBX 16 32 0 -8
BITMAP
FF00
FF00
FF00
FF00
FF00
FF00
FF00
FF00
0000
0000
0000
0000
0000
0000
0000
0000
FF00
FF00
FF00
FF00
FF00
FF00
FF00
FF00
FFFF
FFFF
FFFF
FFFF
FFFF
FFFF
FFFF
FFFF
ENDCHAR
STARTCHAR U+EE8C
ENCODING 61068
SWIDTH 500 0
DWIDTH 16 0
BBX 16 32 0 -8
BITMAP
FF00
FF00
FF00
FF00
FF00
FF00
FF00
FF00
0000
0000
0000
0000
0000
0000
0000
0000
FFFF
FFFF
FFFF
FFFF
FFFF
FFFF
FFFF
FFFF
0000
0000
0000
0000
0000
0000
0000
0000
ENDCHAR
STARTCHAR U+EE8D
ENCODING 61069
SWIDTH 500 0
DWIDTH 16 0
BBX 16 32 0 -8
BITMAP
FF00
FF00
FF00
FF00
FF00
FF00
FF00
FF00
0000
0000
0000
0000
0000
0000
0000
0000
FFFF
FFFF
FFFF
FFFF
FFFF
FFFF
FFFF
FFFF
00FF
00FF
00FF
00FF
00FF
00FF
00FF
00FF
ENDCHAR
STARTCHAR U+EE8E
ENCODING 61070
SWIDTH 500 0
DWIDTH 16 0
BBX 16 32 0 -8
BITMAP
FF00
FF00
FF00
FF00
FF00
FF00
FF00
FF00
0000
0000
0000
0000
0000
0000
0000
0000
FFFF
FFFF
FFFF
FFFF
FFFF
FFFF
FFFF
FFFF
FF00
FF00
FF00
FF00
FF00
FF00
FF00
FF00
ENDCHAR
STARTCHAR U+EE8F
ENCODING 61071
SWIDTH 500 0
DWIDTH 16 0
BBX 16 32 0 -8
BITMAP
FF00
FF00
FF00
FF00
FF00
FF00
FF00
FF00
0000
0000
0000
0000
0000
0000
0000
0000
FFFF
FFFF
FFFF
FFFF
FFFF
FFFF
FFFF
FFFF
FFFF
FFFF
FFFF
FFFF
FFFF
FFFF
FFFF
FFFF
ENDCHAR
STARTCHAR U+EE90
ENCODING 61072
SWIDTH 500 0
DWIDTH 16 0
BBX 16 32 0 -8
BITMAP
FF00
FF00
FF00
FF00
FF00
FF00
FF00
FF00
00FF
00FF
00FF
00FF
00FF
00FF
00FF
00FF
0000
0000
0000
0000
0000
0000
0000
0000
0000
0000
0000
0000
0000
0000
0000
0000
ENDCHAR
STARTCHAR U+EE91
ENCODING 61073
SWIDTH 500 0
DWIDTH 16 0
BBX 16 32 0 -8
BITMAP
FF00
FF00
FF00
FF00
FF00
FF00
FF00
FF00
00FF
00FF
00FF
00FF
00FF
00FF
00FF
00FF
0000
0000
0000
0000
0000
0000
0000
0000
00FF
00FF
00FF
00FF
00FF
00FF
00FF
00FF
ENDCHAR
STARTCHAR U+EE92
ENCODING 61074
SWIDTH 500 0
DWIDTH 16 0
BBX 16 32 0 -8
BITMAP
FF00
FF00
FF00
FF00
FF00
FF00
FF00
FF00
00FF
00FF
00FF
00FF
00FF
00FF
00FF
00FF
0000
0000
0000
0000
0000
0000
0000
0000
FF00
FF00
FF00
FF00
FF00
FF00
FF00
FF00
ENDCHAR
STARTCHAR U+EE93
ENCODING 61075
SWIDTH 500 0
DWIDTH 16 0
BBX 16 32 0 -8
BITMAP
FF00
FF00
FF00
FF00
FF00
FF00
FF00
FF00
00FF
00FF
00FF
00FF
00FF
00FF
00FF
00FF
0000
0000
0000
0000
0000
0000
0000
0000
FFFF
FFFF
FFFF
FFFF
FFFF
FFFF
FFFF
FFFF
ENDCHAR
STARTCHAR U+EE94
ENCODING 61076
SWIDTH 500 0
DWIDTH 16 0
BBX 16 32 0 -8
BITMAP
FF00
FF00
FF00
FF00
FF00
FF00
FF00
FF00
00FF
00FF
00FF
00FF
00FF
00FF
00FF
00FF
00FF
00FF
00FF
00FF
00FF
00FF
00FF
00FF
0000
0000
0000
0000
0000
0000
0000
0000
ENDCHAR
STARTCHAR U+EE95
ENCODING 61077
SWIDTH 500 0
DWIDTH 16 0
BBX 16 32 0 -8
BITMAP
FF00
FF00
FF00
FF00
FF00
FF00
FF00
FF00
00FF
00FF
00FF
00FF
00FF
00FF
00FF
00FF
00FF
00FF
00FF
00FF
00FF
00FF
00FF
00FF
00FF
00FF
00FF
00FF
00FF
00FF
00FF
00FF
ENDCHAR
STARTCHAR U+EE96
ENCODING 61078
SWIDTH 500 0
DWIDTH 16 0
BBX 16 32 0 -8
BITMAP
FF00
FF00
FF00
FF00
FF00
FF00
FF00
FF00
00FF
00FF
00FF
00FF
00FF
00FF
00FF
00FF
00FF
00FF
00FF
00FF
00FF
00FF
00FF
00FF
FF00
FF00
FF00
FF00
FF00
FF00
FF00
FF00
ENDCHAR
STARTCHAR U+EE97
ENCODING 61079
SWIDTH 500 0
DWIDTH 16 0
BBX 16 32 0 -8
BITMAP
FF00
FF00
FF00
FF00
FF00
FF00
FF00
FF00
00FF
00FF
00FF
00FF
00FF
00FF
00FF
00FF
00FF
00FF
00FF
00FF
00FF
00FF
00FF
00FF
FFFF
FFFF
FFFF
FFFF
FFFF
FFFF
FFFF
FFFF
ENDCHAR
STARTCHAR U+EE98
ENCODING 61080
SWIDTH 500 0
DWIDTH 16 0
BBX 16 32 0 -8
BITMAP
FF00
FF00
FF00
FF00
FF00
FF00
FF00
FF00
00FF
00FF
00FF
00FF
00FF
00FF
00FF
00FF
FF00
FF00
FF00
FF00
FF00
FF00
FF00
FF00
0000
0000
0000
0000
0000
0000
0000
0000
ENDCHAR
STARTCHAR U+EE99
ENCODING 61081
SWIDTH 500 0
DWIDTH 16 0
BBX 16 32 0 -8
BITMAP
FF00
FF00
FF00
FF00
FF00
FF00
FF00
FF00
00FF
00FF
00FF
00FF
00FF
00FF
00FF
00FF
FF00
FF00
FF00
FF00
FF00
FF00
FF00
FF00
00FF
00FF
00FF
00FF
00FF
00FF
00FF
00FF
ENDCHAR
STARTCHAR U+EE9A
ENCODING 61082
SWIDTH 500 0
DWIDTH 16 0
BBX 16 32 0 -8
BITMAP
FF00
FF00
FF00
FF00
FF00
FF00
FF00
FF00
00FF
00FF
00FF
00FF
00FF
00FF
00FF
00FF
FF00
FF00
FF00
FF00
FF00
FF00
FF00
FF00
FF00
FF00
FF00
FF00
FF00
FF00
FF00
FF00
ENDCHAR
STARTCHAR U+EE9B
ENCODING 61083
SWIDTH 500 0
DWIDTH 16 0
BBX 16 32 0 -8
BITMAP
FF00
FF00
FF00
FF00
FF00
FF00
FF00
FF00
00FF
00FF
00FF
00FF
00FF
00FF
00FF
00FF
FF00
FF00
FF00
FF00
FF00
FF00
FF00
FF00
FFFF
FFFF
FFFF
FFFF
FFFF
FFFF
FFFF
FFFF
ENDCHAR
STARTCHAR U+EE9C
ENCODING 61084
SWIDTH 500 0
DWIDTH 16 0
BBX 16 32 0 -8
BITMAP
FF00
FF00
FF00
FF00
FF00
FF00
FF00
FF00
00FF
00FF
00FF
00FF
00FF
00FF
00FF
00FF
FFFF
FFFF
FFFF
FFFF
FFFF
FFFF
FFFF
FFFF
0000
0000
0000
0000
0000
0000
0000
0000
ENDCHAR
STARTCHAR U+EE9D
ENCODING 61085
SWIDTH 500 0
DWIDTH 16 0
BBX 16 32 0 -8
BITMAP
FF00
FF00
FF00
FF00
FF00
FF00
FF00
FF00
00FF
00FF
00FF
00FF
00FF
00FF
00FF
00FF
FFFF
FFFF
FFFF
FFFF
FFFF
FFFF
FFFF
FFFF
00FF
00FF
00FF
00FF
00FF
00FF
00FF
00FF
ENDCHAR
STARTCHAR U+EE9E
ENCODING 61086
SWIDTH 500 0
DWIDTH 16 0
BBX 16 32 0 -8
BITMAP
FF00
FF00
FF00
FF00
FF00
FF00
FF00
FF00
00FF
00FF
00FF
00FF
00FF
00FF
00FF
00FF
FFFF
FFFF
FFFF
FFFF
FFFF
FFFF
FFFF
FFFF
FF00
FF00
FF00
FF00
FF00
FF00
FF00
FF00
ENDCHAR
STARTCHAR U+EE9F
ENCODING 61087
SWIDTH 500 0
DWIDTH 16 0
BBX 16 32 0 -8
BITMAP
FF00
FF00
FF00
FF00
FF00
FF00
FF00
FF00
00FF
00FF
00FF
00FF
00FF
00FF
00FF
00FF
FFFF
FFFF
FFFF
FFFF
FFFF
FFFF
FFFF
FFFF
FFFF
FFFF
FFFF
FFFF
FFFF
FFFF
FFFF
FFFF
ENDCHAR
STARTCHAR U+EEA0
ENCODING 61088
SWIDTH 500 0
DWIDTH 16 0
BBX 16 32 0 -8
BITMAP
FF00
FF00
FF00
FF00
FF00
FF00
FF00
FF00
FF00
FF00
FF00
FF00
FF00
FF00
FF00
FF00
0000
0000
0000
0000
0000
0000
0000
0000
0000
0000
0000
0000
0000
0000
0000
0000
ENDCHAR
STARTCHAR U+EEA1
ENCODING 61089
SWIDTH 500 0
DWIDTH 16 0
BBX 16 32 0 -8
BITMAP
FF00
FF00
FF00
FF00
FF00
FF00
FF00
FF00
FF00
FF00
FF00
FF00
FF00
FF00
FF00
FF00
0000
0000
0000
0000
0000
0000
0000
0000
00FF
00FF
00FF
00FF
00FF
00FF
00FF
00FF
ENDCHAR
STARTCHAR U+EEA2
ENCODING 61090
SWIDTH 500 0
DWIDTH 16 0
BBX 16 32 0 -8
BITMAP
FF00
FF00
FF00
FF00
FF00
FF00
FF00
FF00
FF00
FF00
FF00
FF00
FF00
FF00
FF00
FF00
0000
0000
0000
0000
0000
0000
0000
0000
FF00
FF00
FF00
FF00
FF00
FF00
FF00
FF00
ENDCHAR
STARTCHAR U+EEA3
ENCODING 61091
SWIDTH 500 0
DWIDTH 16 0
BBX 16 32 0 -8
BITMAP
FF00
FF00
FF00
FF00
FF00
FF00
FF00
FF00
FF00
FF00
FF00
FF00
FF00
FF00
FF00
FF00
0000
0000
0000
0000
0000
0000
0000
0000
FFFF
FFFF
FFFF
FFFF
FFFF
FFFF
FFFF
FFFF
ENDCHAR
STARTCHAR U+EEA4
ENCODING 61092
SWIDTH 500 0
DWIDTH 16 0
BBX 16 32 0 -8
BITMAP
FF00
FF00
FF00
FF00
FF00
FF00
FF00
FF00
FF00
FF00
FF00
FF00
FF00
FF00
FF00
FF00
00FF
00FF
00FF
00FF
00FF
00FF
00FF
00FF
0000
0000
0000
0000
0000
0000
0000
0000
ENDCHAR
STARTCHAR U+EEA5
ENCODING 61093
SWIDTH 500 0
DWIDTH 16 0
BBX 16 32 0 -8
BITMAP
FF00
FF00
FF00
FF00
FF00
FF00
FF00
FF00
FF00
FF00
FF00
FF00
FF00
FF00
FF00
FF00
00FF
00FF
00FF
00FF
00FF
00FF
00FF
00FF
00FF
00FF
00FF
00FF
00FF
00FF
00FF
00FF
ENDCHAR
STARTCHAR U+EEA6
ENCODING 61094
SWIDTH 500 0
DWIDTH 16 0
BBX 16 32 0 -8
BITMAP
FF00
FF00
FF00
FF00
FF00
FF00
FF00
FF00
FF00
FF00
FF00
FF00
FF00
FF00
FF00
FF00
00FF
00FF
00FF
00FF
00FF
00FF
00FF
00FF
FF00
FF00
FF00
FF00
FF00
FF00
FF00
FF00
ENDCHAR
STARTCHAR U+EEA7
ENCODING 61095
SWIDTH 500 0
DWIDTH 16 0
BBX 16 32 0 -8
BITMAP
FF00
FF00
FF00
FF00
FF00
FF00
FF00
FF00
FF00
FF00
FF00
FF00
FF00
FF00
FF00
FF00
00FF
00FF
00FF
00FF
00FF
00FF
00FF
00FF
FFFF
FFFF
FFFF
FFFF
FFFF
FFFF
FFFF
FFFF
ENDCHAR
STARTCHAR U+EEA8
ENCODING 61096
SWIDTH 500 0
DWIDTH 16 0
BBX 16 32 0 -8
BITMAP
FF00
FF00
FF00
FF00
FF00
FF00
FF00
FF00
FF00
FF00
FF00
FF00
FF00
FF00
FF00
FF00
FF00
FF00
FF00
FF00
FF00
FF00
FF00
FF00
0000
0000
0000
0000
0000
0000
0000
0000
ENDCHAR
STARTCHAR U+EEA9
ENCODING 61097
SWIDTH 500 0
DWIDTH 16 0
BBX 16 32 0 -8
BITMAP
FF00
FF00
FF00
FF00
FF00
FF00
FF00
FF00
FF00
FF00
FF00
FF00
FF00
FF00
FF00
FF00
FF00
FF00
FF00
FF00
FF00
FF00
FF00
FF00
00FF
00FF
00FF
00FF
00FF
00FF
00FF
00FF
ENDCHAR
STARTCHAR U+EEAA
ENCODING 61098
SWIDTH 500 0
DWIDTH 16 0
BBX 16 32 0 -8
BITMAP
FF00
FF00
FF00
FF00
FF00
FF00
FF00
FF00
FF00
FF00
FF00
FF00
FF00
FF00
FF00
FF00
FF00
FF00
FF00
FF00
FF00
FF00
FF00
FF00
FF00
FF00
FF00
FF00
FF00
FF00
FF00
FF00
ENDCHAR
STARTCHAR U+EEAB
ENCODING 61099
SWIDTH 500 0
DWIDTH 16 0
BBX 16 32 0 -8
BITMAP
FF00
FF00
FF00
FF00
FF00
FF00
FF00
FF00
FF00
FF00
FF00
FF00
FF00
FF00
FF00
FF00
FF00
FF00
FF00
FF00
FF00
FF00
FF00
FF00
FFFF
FFFF
FFFF
FFFF
FFFF
FFFF
FFFF
FFFF
ENDCHAR
STARTCHAR U+EEAC
ENCODING 61100
SWIDTH 500 0
DWIDTH 16 0
BBX 16 32 0 -8
BITMAP
FF00
FF00
FF00
FF00
FF00
FF00
FF00
FF00
FF00
FF00
FF00
FF00
FF00
FF00
FF00
FF00
FFFF
FFFF
FFFF
FFFF
FFFF
FFFF
FFFF
FFFF
0000
0000
0000
0000
0000
0000
0000
0000
ENDCHAR
STARTCHAR U+EEAD
ENCODING 61101
SWIDTH 500 0
DWIDTH 16 0
BBX 16 32 0 -8
BITMAP
FF00
FF00
FF00
FF00
FF00
FF00
FF00
FF00
FF00
FF00
FF00
FF00
FF00
FF00
FF00
FF00
FFFF
FFFF
FFFF
FFFF
FFFF
FFFF
FFFF
FFFF
00FF
00FF
00FF
00FF
00FF
00FF
00FF
00FF
ENDCHAR
STARTCHAR U+EEAE
ENCODING 61102
SWIDTH 500 0
DWIDTH 16 0
BBX 16 32 0 -8
BITMAP
FF00
FF00
FF00
FF00
FF00
FF00
FF00
FF00
FF00
FF00
FF00
FF00
FF00
FF00
FF00
FF00
FFFF
FFFF
FFFF
FFFF
FFFF
FFFF
FFFF
FFFF
FF00
FF00
FF00
FF00
FF00
FF00
FF00
FF00
ENDCHAR
STARTCHAR U+EEAF
ENCODING 61103
SWIDTH 500 0
DWIDTH 16 0
BBX 16 32 0 -8
BITMAP
FF00
FF00
FF00
FF00
FF00
FF00
FF00
FF00
FF00
FF00
FF00
FF00
FF00
FF00
FF00
FF00
FFFF
FFFF
FFFF
FFFF
FFFF
FFFF
FFFF
FFFF
FFFF
FFFF
FFFF
FFFF
FFFF
FFFF
FFFF
FFFF
ENDCHAR
STARTCHAR U+EEB0
ENCODING 61104
SWIDTH 500 0
DWIDTH 16 0
BBX 16 32 0 -8
BITMAP
FF00
FF00
FF00
FF00
FF00
FF00
FF00
FF00
FFFF
FFFF
FFFF
FFFF
FFFF
FFFF
FFFF
FFFF
0000
0000
0000
0000
0000
0000
0000
0000
0000
0000
0000
0000
0000
0000
0000
0000
ENDCHAR
STARTCHAR U+EEB1
ENCODING 61105
SWIDTH 500 0
DWIDTH 16 0
BBX 16 32 0 -8
BITMAP
FF00
FF00
FF00
FF00
FF00
FF00
FF00
FF00
FFFF
FFFF
FFFF
FFFF
FFFF
FFFF
FFFF
FFFF
0000
0000
0000
0000
0000
0000
0000
0000
00FF
00FF
00FF
00FF
00FF
00FF
00FF
00FF
ENDCHAR
STARTCHAR U+EEB2
ENCODING 61106
SWIDTH 500 0
DWIDTH 16 0
BBX 16 32 0 -8
BITMAP
FF00
FF00
FF00
FF00
FF00
FF00
FF00
FF00
FFFF
FFFF
FFFF
FFFF
FFFF
FFFF
FFFF
FFFF
0000
0000
0000
0000
0000
0000
0000
0000
FF00
FF00
FF00
FF00
FF00
FF00
FF00
FF00
ENDCHAR
STARTCHAR U+EEB3
ENCODING 61107
SWIDTH 500 0
DWIDTH 16 0
BBX 16 32 0 -8
BITMAP
FF00
FF00
FF00
FF00
FF00
FF00
FF00
FF00
FFFF
FFFF
FFFF
FFFF
FFFF
FFFF
FFFF
FFFF
0000
0000
0000
0000
0000
0000
0000
0000
FFFF
FFFF
FFFF
FFFF
FFFF
FFFF
FFFF
FFFF
ENDCHAR
STARTCHAR U+EEB4
ENCODING 61108
SWIDTH 500 0
DWIDTH 16 0
BBX 16 32 0 -8
BITMAP
FF00
FF00
FF00
FF00
FF00
FF00
FF00
FF00
FFFF
FFFF
FFFF
FFFF
FFFF
FFFF
FFFF
FFFF
00FF
00FF
00FF
00FF
00FF
00FF
00FF
00FF
0000
0000
0000
0000
0000
0000
0000
0000
ENDCHAR
STARTCHAR U+EEB5
ENCODING 61109
SWIDTH 500 0
DWIDTH 16 0
BBX 16 32 0 -8
BITMAP
FF00
FF00
FF00
FF00
FF00
FF00
FF00
FF00
FFFF
FFFF
FFFF
FFFF
FFFF
FFFF
FFFF
FFFF
00FF
00FF
00FF
00FF
00FF
00FF
00FF
00FF
00FF
00FF
00FF
00FF
00FF
00FF
00FF
00FF
ENDCHAR
STARTCHAR U+EEB6
ENCODING 61110
SWIDTH 500 0
DWIDTH 16 0
BBX 16 32 0 -8
BITMAP
FF00
FF00
FF00
FF00
FF00
FF00
FF00
FF00
FFFF
FFFF
FFFF
FFFF
FFFF
FFFF
FFFF
FFFF
00FF
00FF
00FF
00FF
00FF
00FF
00FF
00FF
FF00
FF00
FF00
FF00
FF00
FF00
FF00
FF00
ENDCHAR
STARTCHAR U+EEB7
ENCODING 61111
SWIDTH 500 0
DWIDTH 16 0
BBX 16 32 0 -8
BITMAP
FF00
FF00
FF00
FF00
FF00
FF00
FF00
FF00
FFFF
FFFF
FFFF
FFFF
FFFF
FFFF
FFFF
FFFF
00FF
00FF
00FF
00FF
00FF
00FF
00FF
00FF
FFFF
FFFF
FFFF
FFFF
FFFF
FFFF
FFFF
FFFF
ENDCHAR
STARTCHAR U+EEB8
ENCODING 61112
SWIDTH 500 0
DWIDTH 16 0
BBX 16 32 0 -8
BITMAP
FF00
FF00
FF00
FF00
FF00
FF00
FF00
FF00
FFFF
FFFF
FFFF
FFFF
FFFF
FFFF
FFFF
FFFF
FF00
FF00
FF00
FF00
FF00
FF00
FF00
FF00
0000
0000
0000
0000
0000
0000
0000
0000
ENDCHAR
STARTCHAR U+EEB9
ENCODING 61113
SWIDTH 500 0
DWIDTH 16 0
BBX 16 32 0 -8
BITMAP
FF00
FF00
FF00
FF00
FF00
FF00
FF00
FF00
FFFF
FFFF
FFFF
FFFF
FFFF
FFFF
FFFF
FFFF
FF00
FF00
FF00
FF00
FF00
FF00
FF00
FF00
00FF
00FF
00FF
00FF
00FF
00FF
00FF
00FF
ENDCHAR
STARTCHAR U+EEBA
ENCODING 61114
SWIDTH 500 0
DWIDTH 16 0
BBX 16 32 0 -8
BITMAP
FF00
FF00
FF00
FF00
FF00
FF00
FF00
FF00
FFFF
FFFF
FFFF
FFFF
FFFF
FFFF
FFFF
FFFF
FF00
FF00
FF00
FF00
FF00
FF00
FF00
FF00
FF00
FF00
FF00
FF00
FF00
FF00
FF00
FF00
ENDCHAR
STARTCHAR U+EEBB
ENCODING 61115
SWIDTH 500 0
DWIDTH 16 0
BBX 16 32 0 -8
BITMAP
FF00
FF00
FF00
FF00
FF00
FF00
FF00
FF00
FFFF
FFFF
FFFF
FFFF
FFFF
FFFF
FFFF
FFFF
FF00
FF00
FF00
FF00
FF00
FF00
FF00
FF00
FFFF
FFFF
FFFF
FFFF
FFFF
FFFF
FFFF
FFFF
ENDCHAR
STARTCHAR U+EEBC
ENCODING 61116
SWIDTH 500 0
DWIDTH 16 0
BBX 16 32 0 -8
BITMAP
FF00
FF00
FF00
FF00
FF00
FF00
FF00
FF00
FFFF
FFFF
FFFF
FFFF
FFFF
FFFF
FFFF
FFFF
FFFF
FFFF
FFFF
FFFF
FFFF
FFFF
FFFF
FFFF
0000
0000
0000
0000
0000
0000
0000
0000
ENDCHAR
STARTCHAR U+EEBD
ENCODING 61117
SWIDTH 500 0
DWIDTH 16 0
BBX 16 32 0 -8
BITMAP
FF00
FF00
FF00
FF00
FF00
FF00
FF00
FF00
FFFF
FFFF
FFFF
FFFF
FFFF
FFFF
FFFF
FFFF
FFFF
FFFF
FFFF
FFFF
FFFF
FFFF
FFFF
FFFF
00FF
00FF
00FF
00FF
00FF
00FF
00FF
00FF
ENDCHAR
STARTCHAR U+EEBE
ENCODING 61118
SWIDTH 500 0
DWIDTH 16 0
BBX 16 32 0 -8
BITMAP
FF00
FF00
FF00
FF00
FF00
FF00
FF00
FF00
FFFF
FFFF
FFFF
FFFF
FFFF
FFFF
FFFF
FFFF
FFFF
FFFF
FFFF
FFFF
FFFF
FFFF
FFFF
FFFF
FF00
FF00
FF00
FF00
FF00
FF00
FF00
FF00
ENDCHAR
STARTCHAR U+EEBF
ENCODING 61119
SWIDTH 500 0
DWIDTH 16 0
BBX 16 32 0 -8
BITMAP
FF00
FF00
FF00
FF00
FF00
FF00
FF00
FF00
FFFF
FFFF
FFFF
FFFF
FFFF
FFFF
FFFF
FFFF
FFFF
FFFF
FFFF
FFFF
FFFF
FFFF
FFFF
FFFF
FFFF
FFFF
FFFF
FFFF
FFFF
FFFF
FFFF
FFFF
ENDCHAR
STARTCHAR U+EEC0
ENCODING 61120
SWIDTH 500 0
DWIDTH 16 0
BBX 16 32 0 -8
BITMAP
FFFF
FFFF
FFFF
FFFF
FFFF
FFFF
FFFF
FFFF
0000
0000
0000
0000
0000
0000
0000
0000
0000
0000
0000
0000
0000
0000
0000
0000
0000
0000
0000
0000
0000
0000
0000
0000
ENDCHAR
STARTCHAR U+EEC1
ENCODING 61121
SWIDTH 500 0
DWIDTH 16 0
BBX 16 32 0 -8
BITMAP
FFFF
FFFF
FFFF
FFFF
FFFF
FFFF
FFFF
FFFF
0000
0000
0000
0000
0000
0000
0000
0000
0000
0000
0000
0000
0000
0000
0000
0000
00FF
00FF
00FF
00FF
00FF
00FF
00FF
00FF
ENDCHAR
STARTCHAR U+EEC2
ENCODING 61122
SWIDTH 500 0
DWIDTH 16 0
BBX 16 32 0 -8
BITMAP
FFFF
FFFF
FFFF
FFFF
FFFF
FFFF
FFFF
FFFF
0000
0000
0000
0000
0000
0000
0000
0000
0000
0000
0000
0000
0000
0000
0000
0000
FF00
FF00
FF00
FF00
FF00
FF00
FF00
FF00
ENDCHAR
STARTCHAR U+EEC3
ENCODING 61123
SWIDTH 500 0
DWIDTH 16 0
BBX 16 32 0 -8
BITMAP
FFFF
FFFF
FFFF
FFFF
FFFF
FFFF
FFFF
FFFF
0000
0000
0000
0000
0000
0000
0000
0000
0000
0000
0000
0000
0000
0000
0000
0000
FFFF
FFFF
FFFF
FFFF
FFFF
FFFF
FFFF
FFFF
ENDCHAR
STARTCHAR U+EEC4
ENCODING 61124
SWIDTH 500 0
DWIDTH 16 0
BBX 16 32 0 -8
BITMAP
FFFF
FFFF
FFFF
FFFF
FFFF
FFFF
FFFF
FFFF
0000
0000
0000
0000
0000
0000
0000
0000
00FF
00FF
00FF
00FF
00FF
00FF
00FF
00FF
0000
0000
0000
0000
0000
0000
0000
0000
ENDCHAR
STARTCHAR U+EEC5
ENCODING 61125
SWIDTH 500 0
DWIDTH 16 0
BBX 16 32 0 -8
BITMAP
FFFF
FFFF
FFFF
FFFF
FFFF
FFFF
FFFF
FFFF
0000
0000
0000
0000
0000
0000
0000
0000
00FF
00FF
00FF
00FF
00FF
00FF
00FF
00FF
00FF
00FF
00FF
00FF
00FF
00FF
00FF
00FF
ENDCHAR
STARTCHAR U+EEC6
ENCODING 61126
SWIDTH 500 0
DWIDTH 16 0
BBX 16 32 0 -8
BITMAP
FFFF
FFFF
FFFF
FFFF
FFFF
FFFF
FFFF
FFFF
0000
0000
0000
0000
0000
0000
0000
0000
00FF
00FF
00FF
00FF
00FF
00FF
00FF
00FF
FF00
FF00
FF00
FF00
FF00
FF00
FF00
FF00
ENDCHAR
STARTCHAR U+EEC7
ENCODING 61127
SWIDTH 500 0
DWIDTH 16 0
BBX 16 32 0 -8
BITMAP
FFFF
FFFF
FFFF
FFFF
FFFF
FFFF
FFFF
FFFF
0000
0000
0000
0000
0000
0000
0000
0000
00FF
00FF
00FF
00FF
00FF
00FF
00FF
00FF
FFFF
FFFF
FFFF
FFFF
FFFF
FFFF
FFFF
FFFF
ENDCHAR
STARTCHAR U+EEC8
ENCODING 61128
SWIDTH 500 0
DWIDTH 16 0
BBX 16 32 0 -8
BITMAP
FFFF
FFFF
FFFF
FFFF
FFFF
FFFF
FFFF
FFFF
0000
0000
0000
0000
0000
0000
0000
0000
FF00
FF00
FF00
FF00
FF00
FF00
FF00
FF00
0000
0000
0000
0000
0000
0000
0000
0000
ENDCHAR
STARTCHAR U+EEC9
ENCODING 61129
SWIDTH 500 0
DWIDTH 16 0
BBX 16 32 0 -8
BITMAP
FFFF
FFFF
FFFF
FFFF
FFFF
FFFF
FFFF
FFFF
0000
0000
0000
0000
0000
0000
0000
0000
FF00
FF00
FF00
FF00
FF00
FF00
FF00
FF00
00FF
00FF
00FF
00FF
00FF
00FF
00FF
00FF
ENDCHAR
STARTCHAR U+EECA
ENCODING 61130
SWIDTH 500 0
DWIDTH 16 0
BBX 16 32 0 -8
BITMAP
FFFF
FFFF
FFFF
FFFF
FFFF
FFFF
FFFF
FFFF
0000
0000
0000
0000
0000
0000
0000
0000
FF00
FF00
FF00
FF00
FF00
FF00
FF00
FF00
FF00
FF00
FF00
FF00
FF00
FF00
FF00
FF00
ENDCHAR
STARTCHAR U+EECB
ENCODING 61131
SWIDTH 500 0
DWIDTH 16 0
BBX 16 32 0 -8
BITMAP
FFFF
FFFF
FFFF
FFFF
FFFF
FFFF
FFFF
FFFF
0000
0000
0000
0000
0000
0000
0000
0000
FF00
FF00
FF00
FF00
FF00
FF00
FF00
FF00
FFFF
FFFF
FFFF
FFFF
FFFF
FFFF
FFFF
FFFF
ENDCHAR
STARTCHAR U+EECC
ENCODING 61132
SWIDTH 500 0
DWIDTH 16 0
BBX 16 32 0 -8
BITMAP
FFFF
FFFF
FFFF
FFFF
FFFF
FFFF
FFFF
FFFF
0000
0000
0000
0000
0000
0000
0000
0000
FFFF
FFFF
FFFF
FFFF
FFFF
FFFF
FFFF
FFFF
0000
0000
0000
0000
0000
0000
0000
0000
ENDCHAR
STARTCHAR U+EECD
ENCODING 61133
SWIDTH 500 0
DWIDTH 16 0
BBX 16 32 0 -8
BITMAP
FFFF
FFFF
FFFF
FFFF
FFFF
FFFF
FFFF
FFFF
0000
0000
0000
0000
0000
0000
0000
0000
FFFF
FFFF
FFFF
FFFF
FFFF
FFFF
FFFF
FFFF
00FF
00FF
00FF
00FF
00FF
00FF
00FF
00FF
ENDCHAR
STARTCHAR U+EECE
ENCODING 61134
SWIDTH 500 0
DWIDTH 16 0
BBX 16 32 0 -8
BITMAP
FFFF
FFFF
FFFF
FFFF
FFFF
FFFF
FFFF
FFFF
0000
0000
0000
0000
0000
0000
0000
0000
FFFF
FFFF
FFFF
FFFF
FFFF
FFFF
FFFF
FFFF
FF00
FF00
FF00
FF00
FF00
FF00
FF00
FF00
ENDCHAR
STARTCHAR U+EECF
ENCODING 61135
SWIDTH 500 0
DWIDTH 16 0
BBX 16 32 0 -8
BITMAP
FFFF
FFFF
FFFF
FFFF
FFFF
FFFF
FFFF
FFFF
0000
0000
0000
0000
0000
0000
0000
0000
FFFF
FFFF
FFFF
FFFF
FFFF
FFFF
FFFF
FFFF
FFFF
FFFF
FFFF
FFFF
FFFF
FFFF
FFFF
FFFF
ENDCHAR
STARTCHAR U+EED0
ENCODING 61136
SWIDTH 500 0
DWIDTH 16 0
BBX 16 32 0 -8
BITMAP
FFFF
FFFF
FFFF
FFFF
FFFF
FFFF
FFFF
FFFF
00FF
00FF
00FF
00FF
00FF
00FF
00FF
00FF
0000
0000
0000
0000
0000
0000
0000
0000
0000
0000
0000
0000
0000
0000
0000
0000
ENDCHAR
STARTCHAR U+EED1
ENCODING 61137
SWIDTH 500 0
DWIDTH 16 0
BBX 16 32 0 -8
BITMAP
FFFF
FFFF
FFFF
FFFF
FFFF
FFFF
FFFF
FFFF
00FF
00FF
00FF
00FF
00FF
00FF
00FF
00FF
0000
0000
0000
0000
0000
0000
0000
0000
00FF
00FF
00FF
00FF
00FF
00FF
00FF
00FF
ENDCHAR
STARTCHAR U+EED2
ENCODING 61138
SWIDTH 500 0
DWIDTH 16 0
BBX 16 32 0 -8
BITMAP
FFFF
FFFF
FFFF
FFFF
FFFF
FFFF
FFFF
FFFF
00FF
00FF
00FF
00FF
00FF
00FF
00FF
00FF
0000
0000
0000
0000
0000
0000
0000
0000
FF00
FF00
FF00
FF00
FF00
FF00
FF00
FF00
ENDCHAR
STARTCHAR U+EED3
ENCODING 61139
SWIDTH 500 0
DWIDTH 16 0
BBX 16 32 0 -8
BITMAP
FFFF
FFFF
FFFF
FFFF
FFFF
FFFF
FFFF
FFFF
00FF
00FF
00FF
00FF
00FF
00FF
00FF
00FF
0000
0000
0000
0000
0000
0000
0000
0000
FFFF
FFFF
FFFF
FFFF
FFFF
FFFF
FFFF
FFFF
ENDCHAR
STARTCHAR U+EED4
ENCODING 61140
SWIDTH 500 0
DWIDTH 16 0
BBX 16 32 0 -8
BITMAP
FFFF
FFFF
FFFF
FFFF
FFFF
FFFF
FFFF
FFFF
00FF
00FF
00FF
00FF
00FF
00FF
00FF
00FF
00FF
00FF
00FF
00FF
00FF
00FF
00FF
00FF
0000
0000
0000
0000
0000
0000
0000
0000
ENDCHAR
STARTCHAR U+EED5
ENCODING 61141
SWIDTH 500 0
DWIDTH 16 0
BBX 16 32 0 -8
BITMAP
FFFF
FFFF
FFFF
FFFF
FFFF
FFFF
FFFF
FFFF
00FF
00FF
00FF
00FF
00FF
00FF
00FF
00FF
00FF
00FF
00FF
00FF
00FF
00FF
00FF
00FF
00FF
00FF
00FF
00FF
00FF
00FF
00FF
00FF
ENDCHAR
STARTCHAR U+EED6
ENCODING 61142
SWIDTH 500 0
DWIDTH 16 0
BBX 16 32 0 -8
BITMAP
FFFF
FFFF
FFFF
FFFF
FFFF
FFFF
FFFF
FFFF
00FF
00FF
00FF
00FF
00FF
00FF
00FF
00FF
00FF
00FF
00FF
00FF
00FF
00FF
00FF
00FF
FF00
FF00
FF00
FF00
FF00
FF00
FF00
FF00
ENDCHAR
STARTCHAR U+EED7
ENCODING 61143
SWIDTH 500 0
DWIDTH 16 0
BBX 16 32 0 -8
BITMAP
FFFF
FFFF
FFFF
FFFF
FFFF
FFFF
FFFF
FFFF
00FF
00FF
00FF
00FF
00FF
00FF
00FF
00FF
00FF
00FF
00FF
00FF
00FF
00FF
00FF
00FF
FFFF
FFFF
FFFF
FFFF
FFFF
FFFF
FFFF
FFFF
ENDCHAR
STARTCHAR U+EED8
ENCODING 61144
SWIDTH 500 0
DWIDTH 16 0
BBX 16 32 0 -8
BITMAP
FFFF
FFFF
FFFF
FFFF
FFFF
FFFF
FFFF
FFFF
00FF
00FF
00FF
00FF
00FF
00FF
00FF
00FF
FF00
FF00
FF00
FF00
FF00
FF00
FF00
FF00
0000
0000
0000
0000
0000
0000
0000
0000
ENDCHAR
STARTCHAR U+EED9
ENCODING 61145
SWIDTH 500 0
DWIDTH 16 0
BBX 16 32 0 -8
BITMAP
FFFF
FFFF
FFFF
FFFF
FFFF
FFFF
FFFF
FFFF
00FF
00FF
00FF
00FF
00FF
00FF
00FF
00FF
FF00
FF00
FF00
FF00
FF00
FF00
FF00
FF00
00FF
00FF
00FF
00FF
00FF
00FF
00FF
00FF
ENDCHAR
STARTCHAR U+EEDA
ENCODING 61146
SWIDTH 500 0
DWIDTH 16 0
BBX 16 32 0 -8
BITMAP
FFFF
FFFF
FFFF
FFFF
FFFF
FFFF
FFFF
FFFF
00FF
00FF
00FF
00FF
00FF
00FF
00FF
00FF
FF00
FF00
FF00
FF00
FF00
FF00
FF00
FF00
FF00
FF00
FF00
FF00
FF00
FF00
FF00
FF00
ENDCHAR
STARTCHAR U+EEDB
ENCODING 61147
SWIDTH 500 0
DWIDTH 16 0
BBX 16 32 0 -8
BITMAP
FFFF
FFFF
FFFF
FFFF
FFFF
FFFF
FFFF
FFFF
00FF
00FF
00FF
00FF
00FF
00FF
00FF
00FF
FF00
FF00
FF00
FF00
FF00
FF00
FF00
FF00
FFFF
FFFF
FFFF
FFFF
FFFF
FFFF
FFFF
FFFF
ENDCHAR
STARTCHAR U+EEDC
ENCODING 61148
SWIDTH 500 0
DWIDTH 16 0
BBX 16 32 0 -8
BITMAP
FFFF
FFFF
FFFF
FFFF
FFFF
FFFF
FFFF
FFFF
00FF
00FF
00FF
00FF
00FF
00FF
00FF
00FF
FFFF
FFFF
FFFF
FFFF
FFFF
FFFF
FFFF
FFFF
0000
0000
0000
0000
0000
0000
0000
0000
ENDCHAR
STARTCHAR U+EEDD
ENCODING 61149
SWIDTH 500 0
DWIDTH 16 0
BBX 16 32 0 -8
BITMAP
FFFF
FFFF
FFFF
FFFF
FFFF
FFFF
FFFF
FFFF
00FF
00FF
00FF
00FF
00FF
00FF
00FF
00FF
FFFF
FFFF
FFFF
FFFF
FFFF
FFFF
FFFF
FFFF
00FF
00FF
00FF
00FF
00FF
00FF
00FF
00FF
ENDCHAR
STARTCHAR U+EEDE
ENCODING 61150
SWIDTH 500 0
DWIDTH 16 0
BBX 16 32 0 -8
BITMAP
FFFF
FFFF
FFFF
FFFF
FFFF
FFFF
FFFF
FFFF
00FF
00FF
00FF
00FF
00FF
00FF
00FF
00FF
FFFF
FFFF
FFFF
FFFF
FFFF
FFFF
FFFF
FFFF
FF00
FF00
FF00
FF00
FF00
FF00
FF00
FF00
ENDCHAR
STARTCHAR U+EEDF
ENCODING 61151
SWIDTH 500 0
DWIDTH 16 0
BBX 16 32 0 -8
BITMAP
FFFF
FFFF
FFFF
FFFF
FFFF
FFFF
FFFF
FFFF
00FF
00FF
00FF
00FF
00FF
00FF
00FF
00FF
FFFF
FFFF
FFFF
FFFF
FFFF
FFFF
FFFF
FFFF
FFFF
FFFF
FFFF
FFFF
FFFF
FFFF
FFFF
FFFF
ENDCHAR
STARTCHAR U+EEE0
ENCODING 61152
SWIDTH 500 0
DWIDTH 16 0
BBX 16 32 0 -8
BITMAP
FFFF
FFFF
FFFF
FFFF
FFFF
FFFF
FFFF
FFFF
FF00
FF00
FF00
FF00
FF00
FF00
FF00
FF00
0000
0000
0000
0000
0000
0000
0000
0000
0000
0000
0000
0000
0000
0000
0000
0000
ENDCHAR
STARTCHAR U+EEE1
ENCODING 61153
SWIDTH 500 0
DWIDTH 16 0
BBX 16 32 0 -8
BITMAP
FFFF
FFFF
FFFF
FFFF
FFFF
FFFF
FFFF
FFFF
FF00
FF00
FF00
FF00
FF00
FF00
FF00
FF00
0000
0000
0000
0000
0000
0000
0000
0000
00FF
00FF
00FF
00FF
00FF
00FF
00FF
00FF
ENDCHAR
STARTCHAR U+EEE2
ENCODING 61154
SWIDTH 500 0
DWIDTH 16 0
BBX 16 32 0 -8
BITMAP
FFFF
FFFF
FFFF
FFFF
FFFF
FFFF
FFFF
FFFF
FF00
FF00
FF00
FF00
FF00
FF00
FF00
FF00
0000
0000
0000
0000
0000
0000
0000
0000
FF00
FF00
FF00
FF00
FF00
FF00
FF00
FF00
ENDCHAR
STARTCHAR U+EEE3
ENCODING 61155
SWIDTH 500 0
DWIDTH 16 0
BBX 16 32 0 -8
BITMAP
FFFF
FFFF
FFFF
FFFF
FFFF
FFFF
FFFF
FFFF
FF00
FF00
FF00
FF00
FF00
FF00
FF00
FF00
0000
0000
0000
0000
0000
0000
0000
0000
FFFF
FFFF
FFFF
FFFF
FFFF
FFFF
FFFF
FFFF
ENDCHAR
STARTCHAR U+EEE4
ENCODING 61156
SWIDTH 500 0
DWIDTH 16 0
BBX 16 32 0 -8
BITMAP
FFFF
FFFF
FFFF
FFFF
FFFF
FFFF
FFFF
FFFF
FF00
FF00
FF00
FF00
FF00
FF00
FF00
FF00
00FF
00FF
00FF
00FF
00FF
00FF
00FF
00FF
0000
0000
0000
0000
0000
0000
0000
0000
ENDCHAR
STARTCHAR U+EEE5
ENCODING 61157
SWIDTH 500 0
DWIDTH 16 0
BBX 16 32 0 -8
BITMAP
FFFF
FFFF
FFFF
FFFF
FFFF
FFFF
FFFF
FFFF
FF00
FF00
FF00
FF00
FF00
FF00
FF00
FF00
00FF
00FF
00FF
00FF
00FF
00FF
00FF
00FF
00FF
00FF
00FF
00FF
00FF
00FF
00FF
00FF
ENDCHAR
STARTCHAR U+EEE6
ENCODING 61158
SWIDTH 500 0
DWIDTH 16 0
BBX 16 32 0 -8
BITMAP
FFFF
FFFF
FFFF
FFFF
FFFF
FFFF
FFFF
FFFF
FF00
FF00
FF00
FF00
FF00
FF00
FF00
FF00
00FF
00FF
00FF
00FF
00FF
00FF
00FF
00FF
FF00
FF00
FF00
FF00
FF00
FF00
FF00
FF00
ENDCHAR
STARTCHAR U+EEE7
ENCODING 61159
SWIDTH 500 0
DWIDTH 16 0
BBX 16 32 0 -8
BITMAP
FFFF
FFFF
FFFF
FFFF
FFFF
FFFF
FFFF
FFFF
FF00
FF00
FF00
FF00
FF00
FF00
FF00
FF00
00FF
00FF
00FF
00FF
00FF
00FF
00FF
00FF
FFFF
FFFF
FFFF
FFFF
FFFF
FFFF
FFFF
FFFF
ENDCHAR
STARTCHAR U+EEE8
ENCODING 61160
SWIDTH 500 0
DWIDTH 16 0
BBX 16 32 0 -8
BITMAP
FFFF
FFFF
FFFF
FFFF
FFFF
FFFF
FFFF
FFFF
FF00
FF00
FF00
FF00
FF00
FF00
FF00
FF00
FF00
FF00
FF00
FF00
FF00
FF00
FF00
FF00
0000
0000
0000
0000
0000
0000
0000
0000
ENDCHAR
STARTCHAR U+EEE9
ENCODING 61161
SWIDTH 500 0
DWIDTH 16 0
BBX 16 32 0 -8
BITMAP
FFFF
FFFF
FFFF
FFFF
FFFF
FFFF
FFFF
FFFF
FF00
FF00
FF00
FF00
FF00
FF00
FF00
FF00
FF00
FF00
FF00
FF00
FF00
FF00
FF00
FF00
00FF
00FF
00FF
00FF
00FF
00FF
00FF
00FF
ENDCHAR
STARTCHAR U+EEEA
ENCODING 61162
SWIDTH 500 0
DWIDTH 16 0
BBX 16 32 0 -8
BITMAP
FFFF
FFFF
FFFF
FFFF
FFFF
FFFF
FFFF
FFFF
FF00
FF00
FF00
FF00
FF00
FF00
FF00
FF00
FF00
FF00
FF00
FF00
FF00
FF00
FF00
FF00
FF00
FF00
FF00
FF00
FF00
FF00
FF00
FF00
ENDCHAR
STARTCHAR U+EEEB
ENCODING 61163
SWIDTH 500 0
DWIDTH 16 0
BBX 16 32 0 -8
BITMAP
FFFF
FFFF
FFFF
FFFF
FFFF
FFFF
FFFF
FFFF
FF00
FF00
FF00
FF00
FF00
FF00
FF00
FF00
FF00
FF00
FF00
FF00
FF00
FF00
FF00
FF00
FFFF
FFFF
FFFF
FFFF
FFFF
FFFF
FFFF
FFFF
ENDCHAR
STARTCHAR U+EEEC
ENCODING 61164
SWIDTH 500 0
DWIDTH 16 0
BBX 16 32 0 -8
BITMAP
FFFF
FFFF
FFFF
FFFF
FFFF
FFFF
FFFF
FFFF
FF00
FF00
FF00
FF00
FF00
FF00
FF00
FF00
FFFF
FFFF
FFFF
FFFF
FFFF
FFFF
FFFF
FFFF
0000
0000
0000
0000
0000
0000
0000
0000
ENDCHAR
STARTCHAR U+EEED
ENCODING 61165
SWIDTH 500 0
DWIDTH 16 0
BBX 16 32 0 -8
BITMAP
FFFF
FFFF
FFFF
FFFF
FFFF
FFFF
FFFF
FFFF
FF00
FF00
FF00
FF00
FF00
FF00
FF00
FF00
FFFF
FFFF
FFFF
FFFF
FFFF
FFFF
FFFF
FFFF
00FF
00FF
00FF
00FF
00FF
00FF
00FF
00FF
ENDCHAR
STARTCHAR U+EEEE
ENCODING 61166
SWIDTH 500 0
DWIDTH 16 0
BBX 16 32 0 -8
BITMAP
FFFF
FFFF
FFFF
FFFF
FFFF
FFFF
FFFF
FFFF
FF00
FF00
FF00
FF00
FF00
FF00
FF00
FF00
FFFF
FFFF
FFFF
FFFF
FFFF
FFFF
FFFF
FFFF
FF00
FF00
FF00
FF00
FF00
FF00
FF00
FF00
ENDCHAR
STARTCHAR U+EEEF
ENCODING 61167
SWIDTH 500 0
DWIDTH 16 0
BBX 16 32 0 -8
BITMAP
FFFF
FFFF
FFFF
FFFF
FFFF
FFFF
FFFF
FFFF
FF00
FF00
FF00
FF00
FF00
FF00
FF00
FF00
FFFF
FFFF
FFFF
FFFF
FFFF
FFFF
FFFF
FFFF
FFFF
FFFF
FFFF
FFFF
FFFF
FFFF
FFFF
FFFF
ENDCHAR
STARTCHAR U+EEF0
ENCODING 61168
SWIDTH 500 0
DWIDTH 16 0
BBX 16 32 0 -8
BITMAP
FFFF
FFFF
FFFF
FFFF
FFFF
FFFF
FFFF
FFFF
FFFF
FFFF
FFFF
FFFF
FFFF
FFFF
FFFF
FFFF
0000
0000
0000
0000
0000
0000
0000
0000
0000
0000
0000
0000
0000
0000
0000
0000
ENDCHAR
STARTCHAR U+EEF1
ENCODING 61169
SWIDTH 500 0
DWIDTH 16 0
BBX 16 32 0 -8
BITMAP
FFFF
FFFF
FFFF
FFFF
FFFF
FFFF
FFFF
FFFF
FFFF
FFFF
FFFF
FFFF
FFFF
FFFF
FFFF
FFFF
0000
0000
0000
0000
0000
0000
0000
0000
00FF
00FF
00FF
00FF
00FF
00FF
00FF
00FF
ENDCHAR
STARTCHAR U+EEF2
ENCODING 61170
SWIDTH 500 0
DWIDTH 16 0
BBX 16 32 0 -8
BITMAP
FFFF
FFFF
FFFF
FFFF
FFFF
FFFF
FFFF
FFFF
FFFF
FFFF
FFFF
FFFF
FFFF
FFFF
FFFF
FFFF
0000
0000
0000
0000
0000
0000
0000
0000
FF00
FF00
FF00
FF00
FF00
FF00
FF00
FF00
ENDCHAR
STARTCHAR U+EEF3
ENCODING 61171
SWIDTH 500 0
DWIDTH 16 0
BBX 16 32 0 -8
BITMAP
FFFF
FFFF
FFFF
FFFF
FFFF
FFFF
FFFF
FFFF
FFFF
FFFF
FFFF
FFFF
FFFF
FFFF
FFFF
FFFF
0000
0000
0000
0000
0000
0000
0000
0000
FFFF
FFFF
FFFF
FFFF
FFFF
FFFF
FFFF
FFFF
ENDCHAR
STARTCHAR U+EEF4
ENCODING 61172
SWIDTH 500 0
DWIDTH 16 0
BBX 16 32 0 -8
BITMAP
FFFF
FFFF
FFFF
FFFF
FFFF
FFFF
FFFF
FFFF
FFFF
FFFF
FFFF
FFFF
FFFF
FFFF
FFFF
FFFF
00FF
00FF
00FF
00FF
00FF
00FF
00FF
00FF
0000
0000
0000
0000
0000
0000
0000
0000
ENDCHAR
STARTCHAR U+EEF5
ENCODING 61173
SWIDTH 500 0
DWIDTH 16 0
BBX 16 32 0 -8
BITMAP
FFFF
FFFF
FFFF
FFFF
FFFF
FFFF
FFFF
FFFF
FFFF
FFFF
FFFF
FFFF
FFFF
FFFF
FFFF
FFFF
00FF
00FF
00FF
00FF
00FF
00FF
00FF
00FF
00FF
00FF
00FF
00FF
00FF
00FF
00FF
00FF
ENDCHAR
STARTCHAR U+EEF6
ENCODING 61174
SWIDTH 500 0
DWIDTH 16 0
BBX 16 32 0 -8
BITMAP
FFFF
FFFF
FFFF
FFFF
FFFF
FFFF
FFFF
FFFF
FFFF
FFFF
FFFF
FFFF
FFFF
FFFF
FFFF
FFFF
00FF
00FF
00FF
00FF
00FF
00FF
00FF
00FF
FF00
FF00
FF00
FF00
FF00
FF00
FF00
FF00
ENDCHAR
STARTCHAR U+EEF7
ENCODING 61175
SWIDTH 500 0
DWIDTH 16 0
BBX 16 32 0 -8
BITMAP
FFFF
FFFF
FFFF
FFFF
FFFF
FFFF
FFFF
FFFF
FFFF
FFFF
FFFF
FFFF
FFFF
FFFF
FFFF
FFFF
00FF
00FF
00FF
00FF
00FF
00FF
00FF
00FF
FFFF
FFFF
FFFF
FFFF
FFFF
FFFF
FFFF
FFFF
ENDCHAR
STARTCHAR U+EEF8
ENCODING 61176
SWIDTH 500 0
DWIDTH 16 0
BBX 16 32 0 -8
BITMAP
FFFF
FFFF
FFFF
FFFF
FFFF
FFFF
FFFF
FFFF
FFFF
FFFF
FFFF
FFFF
FFFF
FFFF
FFFF
FFFF
FF00
FF00
FF00
FF00
FF00
FF00
FF00
FF00
0000
0000
0000
0000
0000
0000
0000
0000
ENDCHAR
STARTCHAR U+EEF9
ENCODING 61177
SWIDTH 500 0
DWIDTH 16 0
BBX 16 32 0 -8
BITMAP
FFFF
FFFF
FFFF
FFFF
FFFF
FFFF
FFFF
FFFF
FFFF
FFFF
FFFF
FFFF
FFFF
FFFF
FFFF
FFFF
FF00
FF00
FF00
FF00
FF00
FF00
FF00
FF00
00FF
00FF
00FF
00FF
00FF
00FF
00FF
00FF
ENDCHAR
STARTCHAR U+EEFA
ENCODING 61178
SWIDTH 500 0
DWIDTH 16 0
BBX 16 32 0 -8
BITMAP
FFFF
FFFF
FFFF
FFFF
FFFF
FFFF
FFFF
FFFF
FFFF
FFFF
FFFF
FFFF
FFFF
FFFF
FFFF
FFFF
FF00
FF00
FF00
FF00
FF00
FF00
FF00
FF00
FF00
FF00
FF00
FF00
FF00
FF00
FF00
FF00
ENDCHAR
STARTCHAR U+EEFB
ENCODING 61179
SWIDTH 500 0
DWIDTH 16 0
BBX 16 32 0 -8
BITMAP
FFFF
FFFF
FFFF
FFFF
FFFF
FFFF
FFFF
FFFF
FFFF
FFFF
FFFF
FFFF
FFFF
FFFF
FFFF
FFFF
FF00
FF00
FF00
FF00
FF00
FF00
FF00
FF00
FFFF
FFFF
FFFF
FFFF
FFFF
FFFF
FFFF
FFFF
ENDCHAR
STARTCHAR U+EEFC
ENCODING 61180
SWIDTH 500 0
DWIDTH 16 0
BBX 16 32 0 -8
BITMAP
FFFF
FFFF
FFFF
FFFF
FFFF
FFFF
FFFF
FFFF
FFFF
FFFF
FFFF
FFFF
FFFF
FFFF
FFFF
FFFF
FFFF
FFFF
FFFF
FFFF
FFFF
FFFF
FFFF
FFFF
0000
0000
0000
0000
0000
0000
0000
0000
ENDCHAR
STARTCHAR U+EEFD
ENCODING 61181
SWIDTH 500 0
DWIDTH 16 0
BBX 16 32 0 -8
BITMAP
FFFF
FFFF
FFFF
FFFF
FFFF
FFFF
FFFF
FFFF
FFFF
FFFF
FFFF
FFFF
FFFF
FFFF
FFFF
FFFF
FFFF
FFFF
FFFF
FFFF
FFFF
FFFF
FFFF
FFFF
00FF
00FF
00FF
00FF
00FF
00FF
00FF
00FF
ENDCHAR
STARTCHAR U+EEFE
ENCODING 61182
SWIDTH 500 0
DWIDTH 16 0
BBX 16 32 0 -8
BITMAP
FFFF
FFFF
FFFF
FFFF
FFFF
FFFF
FFFF
FFFF
FFFF
FFFF
FFFF
FFFF
FFFF
FFFF
FFFF
FFFF
FFFF
FFFF
FFFF
FFFF
FFFF
FFFF
FFFF
FFFF
FF00
FF00
FF00
FF00
FF00
FF00
FF00
FF00
ENDCHAR
STARTCHAR U+EEFF
ENCODING 61183
SWIDTH 500 0
DWIDTH 16 0
BBX 16 32 0 -8
BITMAP
FFFF
FFFF
FFFF
FFFF
FFFF
FFFF
FFFF
FFFF
FFFF
FFFF
FFFF
FFFF
FFFF
FFFF
FFFF
FFFF
FFFF
FFFF
FFFF
FFFF
FFFF
FFFF
FFFF
FFFF
FFFF
FFFF
FFFF
FFFF
FFFF
FFFF
FFFF
FFFF
ENDCHAR
STARTCHAR U+FFFD
ENCODING 65533
SWIDTH 500 0
DWIDTH 16 0
BBX 16 32 0 -8
BITMAP
8FE1
A7EE
2582
2571
6C9B
E57C
B936
DD4B
D499
8C7A
8B07
1252
9761
2604
665D
CC6C
B8A4
D630
D4BB
37EE
6CDB
BF7D
1904
6E92
2B6B
1CF1
D205
2DA4
AA4C
412C
8D5E
2BA4
ENDCHAR
ENDFONT
